<?xml version="1.0" standalone="no"?>
<!DOCTYPE svg PUBLIC "-//W3C//DTD SVG 1.1//EN" "http://www.w3.org/Graphics/SVG/1.1/DTD/svg11.dtd" >
<svg>
<metadata>
Created by FontForge 20090914 at Mon Sep 14 08:07:29 2015
 By www-data
Copyright 1990-1993 Bitstream Inc.  All rights reserved.
</metadata>
<defs>
<font id="Square721BT-RomanExtended" horiz-adv-x="1024" >
  <font-face 
    font-family="Square721 Ex BT"
    font-weight="400"
    font-stretch="expanded"
    units-per-em="2048"
    panose-1="2 11 5 7 2 2 2 6 2 3"
    ascent="1638"
    descent="-410"
    x-height="1053"
    cap-height="1489"
    bbox="-342 -483 3486 1962"
    underline-thickness="106"
    underline-position="-125"
    unicode-range="U+0020-U+F002"
  />
<missing-glyph horiz-adv-x="1962" 
d="M122 0v1962h1718v-1962h-1718zM1718 122v1718h-1474v-1718h1474z" />
    <glyph glyph-name=".notdef" horiz-adv-x="1962" 
d="M122 0v1962h1718v-1962h-1718zM1718 122v1718h-1474v-1718h1474z" />
    <glyph glyph-name="space" unicode=" " horiz-adv-x="973" 
 />
    <glyph glyph-name="exclam" unicode="!" horiz-adv-x="973" 
d="M406 436v1053h161v-1053h-161zM371 0v270h231v-270h-231z" />
    <glyph glyph-name="quotedbl" unicode="&#x22;" horiz-adv-x="590" 
d="M496 1434v-553h-119v553h119zM211 1434v-553h-117v553h117z" />
    <glyph glyph-name="numbersign" unicode="#" horiz-adv-x="1575" 
d="M973 862h-264l-95 -272h263zM922 1456l-166 -471h260l168 471h143l-164 -471h307l-43 -123h-311l-94 -272h330l-43 -123h-332l-166 -469h-145l168 469h-265l-168 -469h-143l166 469h-320l43 123h320l96 272h-342l43 123h344l168 471h146z" />
    <glyph glyph-name="dollar" unicode="$" horiz-adv-x="1944" 
d="M819 1337c-224 0 -366.333 -16.833 -427 -50.5s-91 -100.167 -91 -199.5c0 -92 25.5 -155.833 76.5 -191.5s151.833 -53.5 302.5 -53.5h45h162v495h-68zM1317 684h-287v-520h119c207.333 0 344.5 19.5 411.5 58.5s100.5 112.167 100.5 219.5
c0 92 -21.5 155.333 -64.5 190s-129.5 52 -259.5 52h-20zM1606 1065l-0.000976562 25.001c0 97.333 -24.833 162.833 -74.5 196.5s-176.5 50.5 -380.5 50.5h-121v-495h242c132.667 0 224.834 -4.16699 276.501 -12.5s95.167 -22.833 130.5 -43.5
c52 -30 89 -71.167 111 -123.5s33 -128.5 33 -228.5c0 -160 -45.167 -271.667 -135.5 -335s-251.5 -95 -483.5 -95h-174v-172h-143v172h-195c-200 0 -343.5 29.667 -430.5 89s-130.5 156.666 -130.5 291.999l3 81l1 28l178 -1v-14v-11c-1.33301 -5.33301 -2 -9.33301 -2 -12
v-44c0 -92.667 30.167 -157.167 90.5 -193.5s177.166 -54.5 350.499 -54.5h135v520h-215c-202 0 -343.333 29 -424 87s-121 159.333 -121 304c0 151.333 46.333 257.5 139 318.5s262 91.5 508 91.5h113v141h143v-141h84c186.667 0 317.834 -7 393.501 -21
s134.167 -37.667 175.5 -71c35.333 -28 61.333 -65.667 78 -113s25 -103.333 25 -168l-1 -23l-1 -24h-178z" />
    <glyph glyph-name="percent" unicode="%" horiz-adv-x="2525" 
d="M1450 1507h135l-514 -1525h-137zM2075 805l-299.001 0.00195312c-69.333 0 -116.166 -14.333 -140.499 -43s-36.5 -96.334 -36.5 -203.001v-192c0 -104.667 12.5 -172.167 37.5 -202.5s71.5 -45.5 139.5 -45.5h299c68 0 114.667 15 140 45s38 97.667 38 203v192
c0 105.333 -12.167 172.666 -36.5 201.999s-71.5 44 -141.5 44zM1798 -19.998c-137.333 0 -229.333 24 -276 72s-70 138.667 -70 272v254c0 142 23 237.5 69 286.5s138.333 73.5 277 73.5h250c138.667 0 231 -24.5 277 -73.5s69 -141.167 69 -276.5v-258
c0 -135.333 -23.167 -227.5 -69.5 -276.5s-138.5 -73.5 -276.5 -73.5h-250zM751.999 1376l-297 0.00195312c-70 0 -117.333 -14.833 -142 -44.5s-37 -96.834 -37 -201.501v-194c0 -102 12.667 -168.5 38 -199.5s72.333 -46.5 141 -46.5h297c68 0 114.667 15 140 45
s38 97 38 201v194c0 105.333 -12.167 172.666 -36.5 201.999s-71.5 44 -141.5 44zM476.999 551.004c-137.333 0 -229.669 24.167 -277.002 72.5s-71 138.833 -71 271.5v252c0 142 23 237.5 69 286.5s138.333 73.5 277 73.5h250c138.667 0 231.334 -24.333 278.001 -73
s70 -140.334 70 -275.001v-260c0 -133.333 -23.167 -224.666 -69.5 -273.999s-139.166 -74 -278.499 -74h-248z" />
    <glyph glyph-name="ampersand" unicode="&#x26;" horiz-adv-x="2189" 
d="M632 795c-103.333 0 -178.831 -24.5 -226.498 -73.5s-71.5 -126.5 -71.5 -232.5c0 -36 1 -67.5 3 -94.5s5.33301 -50.167 10 -69.5c8.66699 -35.333 24 -65 46 -89c27.333 -29.333 64.166 -50.333 110.499 -63s118.166 -19 215.499 -19h629c110.667 0 188 6 232 18
s75 34 93 66zM795.002 -18c-152.667 0 -264.333 7.83301 -335 23.5s-129 42.5 -175 80.5c-48 40 -84 93.833 -108 161.5s-36 149.834 -36 246.501c0 128 29.167 225.5 87.5 292.5s144.5 100.5 258.5 100.5h11c-60 40 -102 81 -126 123s-36 95.667 -36 161
c0 126 33.5 213.5 100.5 262.5s197.167 73.5 390.5 73.5h572c120.667 0 211.834 -32.333 273.501 -97s92.5 -161.334 92.5 -290.001l-1 -42l-1 -25h-194l1 27l1 40c0 89.333 -17.667 148.833 -53 178.5s-113.333 44.5 -234 44.5h-516
c-90.667 0 -154.334 -12.833 -191.001 -38.5s-55 -70.167 -55 -133.5c0 -22.667 1.33301 -41 4 -55s8 -28 16 -42c14 -22.667 49 -49.667 105 -81l1088 -592v340h180v-204v-28v-22v-18v-15v-12c0 -28.667 -1.33301 -49.667 -4 -63c0 -12.667 -0.833008 -24 -2.5 -34
s-4.16699 -21.333 -7.5 -34l297 -157l-62 -154l-297 156c-33.333 -64 -90.333 -109 -171 -135s-214.667 -39 -402 -39h-471z" />
    <glyph glyph-name="quotesingle" unicode="'" horiz-adv-x="305" 
d="M211 1434v-553h-117v553h117z" />
    <glyph glyph-name="parenleft" unicode="(" horiz-adv-x="743" 
d="M332 410c0 -114 15.833 -187.333 47.5 -220s103.167 -49 214.5 -49h76v-159h-84c-156 0 -267.333 30.667 -334 92s-100 164.333 -100 309v717c0 142 33.667 244.667 101 308s178.333 95 333 95h84v-162h-76c-110.667 0 -182 -16.333 -214 -49s-48 -105.667 -48 -219v-663
z" />
    <glyph glyph-name="parenright" unicode=")" horiz-adv-x="743" 
d="M412 410v663c0 114 -16.167 187.167 -48.5 219.5s-103.5 48.5 -213.5 48.5h-76v162h84c154 0 264.833 -31.333 332.5 -94s101.5 -165.667 101.5 -309v-717c0 -144 -33.333 -246.833 -100 -308.5s-178 -92.5 -334 -92.5h-84v159h76c109.333 0 180.333 16 213 48
s49 105.667 49 221z" />
    <glyph glyph-name="asterisk" unicode="*" horiz-adv-x="1346" 
d="M664 936l-158 -272l-115 65l158 275zM956 1444l-159 -275l-113 66l158 274zM684 936l115 68l157 -275l-114 -65zM391 1444l115 65l158 -274l-115 -66zM221 1020v133h320v-133h-320zM1126 1153v-133h-319v133h319z" />
    <glyph glyph-name="plus" unicode="+" horiz-adv-x="1706" 
d="M913 1221v-551h539v-117h-539v-553h-118v553h-541v117h541v551h118z" />
    <glyph glyph-name="comma" unicode="," horiz-adv-x="973" 
d="M371 0v270h231v-307c0 -64 -14.833 -112 -44.5 -144s-74.167 -48 -133.5 -48h-70v125h41c19.333 0 33.833 5.33301 43.5 16s14.5 27.667 14.5 51v37h-82z" />
    <glyph glyph-name="hyphen" unicode="-" horiz-adv-x="901" 
d="M166 461v149h569v-149h-569z" />
    <glyph glyph-name="period" unicode="." horiz-adv-x="973" 
d="M371 0v270h231v-270h-231z" />
    <glyph glyph-name="slash" unicode="/" horiz-adv-x="743" 
d="M694 1507h148l-848 -1697h-148z" />
    <glyph glyph-name="zero" unicode="0" horiz-adv-x="1944" 
d="M1274 1341l-606.002 -0.000976562c-42.667 0 -80.167 -2 -112.5 -6s-60.833 -10.667 -85.5 -20c-46.667 -16 -84 -44 -112 -84c-18 -26.667 -31 -59.334 -39 -98.001s-12 -103 -12 -193v-29v-370c0 -89.333 4 -153.166 12 -191.499s21 -71.5 39 -99.5
c26 -38 63.5 -65.667 112.5 -83s114.833 -26 197.5 -26h606c85.333 0 151.333 8.33301 198 25s83.667 44.667 111 84c18 27.333 31 60 39 98s12 102.333 12 193v28v342c0 104.667 -3.66699 176.834 -11 216.501s-20.666 74.167 -39.999 103.5
c-25.333 38 -62.166 65.833 -110.499 83.5s-114.5 26.5 -198.5 26.5zM749.998 -18.001c-146 0 -252.502 7.83203 -319.502 23.499s-122.5 42.5 -166.5 80.5c-48 41.333 -82.833 96.5 -104.5 165.5s-32.5 159.833 -32.5 272.5v406c0 125.333 10.5 223.833 31.5 295.5
s55.5 128.834 103.5 171.501c42 37.333 97.333 64 166 80s175.334 24 320.001 24h448c143.333 0 249.5 -8 318.5 -24s124.5 -42.667 166.5 -80c46 -40.667 80.167 -97.5 102.5 -170.5s33.5 -165.833 33.5 -278.5v-413c0 -114 -11 -206.833 -33 -278.5
s-56.333 -128.5 -103 -170.5c-42 -38 -98.167 -64.833 -168.5 -80.5s-181.166 -23.5 -332.499 -23.5h-430z" />
    <glyph glyph-name="one" unicode="1" horiz-adv-x="1944" 
d="M1067 0v1298l-551 -440l-102 119l616 512h211v-1489h-174z" />
    <glyph glyph-name="two" unicode="2" horiz-adv-x="1944" 
d="M1815 0l-1653 0.000976562v301c0 138 37.333 238.333 112 301c41.333 34 93.666 61 156.999 81c72.667 22.667 155 34 247 34l647 45c50.667 0 94.5 6 131.5 18s66.5 28.333 88.5 49c40.667 37.333 61 101.666 61 192.999c0 81.333 -4.5 138.833 -13.5 172.5
s-25.167 60.167 -48.5 79.5c-35.333 29.333 -87.5 51 -156.5 65s-166.167 21 -291.5 21h-299c-176 0 -294.5 -22.5 -355.5 -67.5s-91.5 -128.5 -91.5 -250.5v-96h-178v178c0 138 42 236.333 126 295s230.333 88 439 88h443c244.667 0 408.834 -33.333 492.501 -100
s125.5 -193.667 125.5 -381c0 -149.333 -34.667 -256.333 -104 -321c-36.667 -34 -84.667 -61 -144 -81c-67.333 -22.667 -143.666 -34 -228.999 -34l-635 -47c-50.667 0 -94.167 -3.33301 -130.5 -10s-66.166 -14.667 -89.499 -24c-36 -14 -63.667 -35.667 -83 -65
c-12 -18 -20.833 -44.667 -26.5 -80s-8.5 -78 -8.5 -128l1 -35l1 -35h1465v-166z" />
    <glyph glyph-name="three" unicode="3" horiz-adv-x="1944" 
d="M1391 678h-610.998v166h502c133.333 0 219.5 15.167 258.5 45.5s58.5 97.166 58.5 200.499c0 68 -6.16699 116.667 -18.5 146s-34.833 52.333 -67.5 69c-18 8.66699 -61.333 16.834 -130 24.501s-143.334 11.5 -224.001 11.5h-493
c-127.333 0 -214.166 -18.167 -260.499 -54.5s-69.5 -103.5 -69.5 -201.5l1 -22l1 -25h-184v103c0 130 40.333 221.833 121 275.5s228 80.5 442 80.5h497c226.667 0 379 -26.333 457 -79s117 -152 117 -298c0 -136.667 -18.667 -228.5 -56 -275.5s-105.333 -70.5 -204 -70.5
v-12h12c94.667 0 163 -25 205 -75s63 -133 63 -249c0 -52 -1.33301 -97.167 -4 -135.5s-7 -69.833 -13 -94.5c-10 -48 -28.667 -86 -56 -114c-34.667 -37.333 -90.334 -65.333 -167.001 -84s-176 -28 -298 -28h-615c-189.333 0 -323.666 30.167 -402.999 90.5
s-119 163.166 -119 308.499l4 86v6h189v-39c0 -54.667 3.66699 -98.5 11 -131.5s18.666 -58.833 33.999 -77.5c23.333 -26 55 -45 95 -57c21.333 -5.33301 48.166 -9.33301 80.499 -12s74.166 -4 125.499 -4h45h563c98.667 0 165.667 3.33301 201 10
s63.5 18.834 84.5 36.501s35.667 43.167 44 76.5s12.5 88.333 12.5 165c0 92 -16.167 154.667 -48.5 188s-93.166 50 -182.499 50z" />
    <glyph glyph-name="four" unicode="4" horiz-adv-x="1944" 
d="M1403 471v875l-1116 -875h1116zM1403 0v309h-1299v228l1221 952h244v-1018h248v-162h-248v-309h-166z" />
    <glyph glyph-name="five" unicode="5" horiz-adv-x="1944" 
d="M154 463l181.998 0.00195312v-37c0 -104.667 24.167 -176.834 72.5 -216.501s140.833 -59.5 277.5 -59.5h580c136 0 227.667 21.833 275 65.5s71 131.5 71 263.5c0 105.333 -5.66699 176.166 -17 212.499s-31.666 66.666 -60.999 90.999s-69.166 42 -119.499 53
s-129.833 16.5 -238.5 16.5h-441c-124.667 0 -214.334 -11 -269.001 -33s-87 -58.667 -97 -110h-172v780h1501v-166h-1329v-479c28 60 67.833 103.333 119.5 130s121.5 40 209.5 40h549c204 0 345.5 -30.167 424.5 -90.5s118.5 -169.5 118.5 -327.5v-209
c0 -153.333 -40.167 -259.166 -120.5 -317.499s-238.833 -87.5 -475.5 -87.5h-643c-67.333 0 -128.166 10.167 -182.499 30.5s-99.5 50.166 -135.5 89.499c-27.333 30.667 -47.333 64.834 -60 102.501s-19 97.167 -19 178.5v80z" />
    <glyph glyph-name="six" unicode="6" horiz-adv-x="1944" 
d="M369 707c23.333 69.333 60.1689 117.667 110.502 145s134.833 41 253.5 41h592c176 0 298.5 -30.5 367.5 -91.5s103.5 -173.167 103.5 -336.5c0 -123.333 -10.667 -211.166 -32 -263.499s-59 -96.833 -113 -133.5c-44 -30 -103.5 -51.833 -178.5 -65.5
s-167.167 -20.5 -276.5 -20.5h-391c-148.667 0 -257.334 7.66699 -326.001 23s-126.834 40.666 -174.501 75.999s-81.334 81 -101.001 137s-29.5 158.667 -29.5 308v574c0 138.667 43.833 241.167 131.5 307.5s224.834 99.5 411.501 99.5h405c144.667 0 251.667 -4 321 -12
c33.333 -4 63.833 -9.33301 91.5 -16s51.5 -15 71.5 -25c54 -25.333 95.833 -60.666 125.5 -105.999s44.5 -97.333 44.5 -156v-125h-180v20l1 31c0 88 -26.333 147.5 -79 178.5s-166.667 46.5 -342 46.5h-453c-134 0 -226.5 -20.333 -277.5 -61
s-76.5 -118.334 -76.5 -233.001v-342zM842.003 156.001h326.996c53.333 0 100.166 1 140.499 3s75.5 5.33301 105.5 10c56 8 96.833 22 122.5 42s43.834 48.667 54.501 86c5.33301 19.333 9.33301 43.5 12 72.5s4 65.5 4 109.5c0 72 -8.66699 123.167 -26 153.5
s-49.666 53.5 -96.999 69.5c-21.333 7.33301 -65 14 -131 20s-137.667 9 -215 9h-328c-53.333 0 -100.166 -1 -140.499 -3s-75.5 -5.33301 -105.5 -10c-56 -8 -96.667 -22 -122 -42s-43.333 -48.833 -54 -86.5s-16 -98.167 -16 -181.5
c0 -72.667 8.83301 -124.167 26.5 -154.5s49.834 -53.5 96.501 -69.5c10.667 -3.33301 26.334 -6.5 47.001 -9.5s49.334 -6.5 86.001 -10.5c20 0 53.667 -1.33301 101 -4s84.666 -4 111.999 -4z" />
    <glyph glyph-name="seven" unicode="7" horiz-adv-x="1944" 
d="M483 0l1155 1323h-1491v166h1674v-232l-1086 -1257h-252z" />
    <glyph glyph-name="eight" unicode="8" horiz-adv-x="1944" 
d="M1319 1507c166 0 283.668 -30.166 353.001 -90.499s104 -163.833 104 -310.5c0 -109.333 -21.333 -189.666 -64 -240.999c-22.667 -27.333 -50.334 -48.333 -83.001 -63s-72.334 -22 -119.001 -22c107.333 -11.333 181.833 -43.833 223.5 -97.5
s62.5 -146.834 62.5 -279.501c0 -159.333 -34.5 -269.333 -103.5 -330s-198.167 -91 -387.5 -91h-666c-189.333 0 -318.666 30.167 -387.999 90.5s-104 170.5 -104 330.5c0 132 20.833 224.833 62.5 278.5s116.5 86.5 224.5 98.5c-44.667 0 -84 7.33301 -118 22
s-62.333 35.667 -85 63c-42 51.333 -63 131.666 -63 240.999c0 146 34.333 249.333 103 310s186.667 91 354 91h694zM1276 1343h-610c-126 0 -210.5 -18.333 -253.5 -55s-64.5 -107 -64.5 -211c0 -82 22 -140.333 66 -175s120.333 -52 229 -52h655c108 0 184.667 17 230 51
c22 17.333 38.667 40.5 50 69.5s17 64.5 17 106.5c0 104 -21.5 174.333 -64.5 211s-127.833 55 -254.5 55zM1266 694.001h-588c-140 0 -232.333 -18.167 -277 -54.5s-67 -108.166 -67 -215.499c0 -114 24 -189 72 -225s149 -54 303 -54h526c154 0 255 18 303 54
s72 111 72 225c0 105.333 -22.333 176.666 -67 213.999s-137 56 -277 56z" />
    <glyph glyph-name="nine" unicode="9" horiz-adv-x="1944" 
d="M1587 780c-23.333 -68.667 -60.001 -116.669 -110.001 -144.002c-24.667 -13.333 -57.834 -23.333 -99.501 -30s-93.167 -10 -154.5 -10h-590c-177.333 0 -300.5 30.667 -369.5 92s-103.5 173.333 -103.5 336c0 122.667 10.5 210.334 31.5 263.001
s58.833 97.334 113.5 134.001c42.667 28 101.167 49.333 175.5 64s167.5 22 279.5 22h391c148.667 0 257.334 -7.66699 326.001 -23s126.834 -40.666 174.501 -75.999s81.334 -81 101.001 -137s29.5 -158.667 29.5 -308v-574c0 -140 -43.833 -242.833 -131.5 -308.5
s-224.834 -98.5 -411.501 -98.5h-405c-144.667 0 -251.667 4 -321 12c-33.333 4 -63.833 9.33301 -91.5 16s-51.5 15 -71.5 25c-54 25.333 -95.833 60.666 -125.5 105.999s-44.5 97.333 -44.5 156v125h180c0 -8.66699 -0.666992 -15.667 -2 -21v-30
c0 -87.333 26.333 -146.833 79 -178.5s167 -47.5 343 -47.5h453c134 0 226.5 20.5 277.5 61.5s76.5 118.833 76.5 233.5v340zM1114 1333l-328.004 0.00195312c-53.333 0 -100.166 -1 -140.499 -3s-75.5 -5.33301 -105.5 -10c-55.333 -8 -95.666 -22 -120.999 -42
s-43.666 -49 -54.999 -87c-5.33301 -18.667 -9.33301 -42.334 -12 -71.001s-4 -65.334 -4 -110.001c0 -74 8.66699 -125.833 26 -155.5s49.666 -52.5 96.999 -68.5c20.667 -6 65.334 -12.667 134.001 -20c20 0 53.333 -1.33301 100 -4s84 -4 112 -4h328
c53.333 0 100.166 1 140.499 3s75.5 5.33301 105.5 10c55.333 8 96 22 122 42s44 48.667 54 86c5.33301 20 9.33301 44.333 12 73s4 65 4 109c0 71.333 -8.66699 122.5 -26 153.5s-49.666 54.5 -96.999 70.5c-22.667 6.66699 -66.667 13 -132 19s-136.666 9 -213.999 9z" />
    <glyph glyph-name="colon" unicode=":" horiz-adv-x="973" 
d="M371 782v271h231v-271h-231zM371 0v270h231v-270h-231z" />
    <glyph glyph-name="semicolon" unicode=";" horiz-adv-x="973" 
d="M371 782v271h231v-271h-231zM371 0v270h231v-307c0 -64 -14.833 -112 -44.5 -144s-74.167 -48 -133.5 -48h-70v125h41c19.333 0 33.833 5.33301 43.5 16s14.5 27.667 14.5 51v37h-82z" />
    <glyph glyph-name="less" unicode="&#x3c;" horiz-adv-x="1706" 
d="M1442 1018l-1000 -408l1000 -405v-129l-1178 483v103l1178 483v-127z" />
    <glyph glyph-name="equal" unicode="=" horiz-adv-x="1706" 
d="M1452 477v-117h-1198v117h1198zM1452 860v-117h-1198v117h1198z" />
    <glyph glyph-name="greater" unicode="&#x3e;" horiz-adv-x="1706" 
d="M1442 662v-103l-1178 -483v129l1000 405l-1000 408v127z" />
    <glyph glyph-name="question" unicode="?" horiz-adv-x="1595" 
d="M627 469v87.999c0 70.667 22.5 124.834 67.5 162.501s120.833 64.834 227.5 81.501l227 37c63.333 10 107.833 34.167 133.5 72.5s38.5 102.166 38.5 191.499c0 99.333 -23.167 165.833 -69.5 199.5s-165.833 50.5 -358.5 50.5h-295c-123.333 0 -207.833 -17 -253.5 -51
s-68.5 -98.333 -68.5 -193v-92h-170v203c0 92 35.5 163 106.5 213s172.167 75 303.5 75h463c192 0 325.333 -30.833 400 -92.5s112 -172.834 112 -333.501c0 -130 -25 -226 -75 -288s-135 -103 -255 -123l-203 -31c-66 -10 -110.333 -25.667 -133 -47
s-34 -55.666 -34 -102.999v-20h-164zM819 269.999v-270h-231v270h231z" />
    <glyph glyph-name="at" unicode="@" horiz-adv-x="2048" 
d="M1292 844l58.0039 120.999h110l-141 -568l-9 -44l-3 -36c0 -28.667 9.16699 -50.834 27.5 -66.501s45.833 -23.5 82.5 -23.5c29.333 0 62.333 8 99 24s71.334 37.333 104.001 64c58.667 50 105 115.167 139 195.5s51 165.5 51 255.5
c0 176.667 -65.167 319.167 -195.5 427.5s-303.166 162.5 -518.499 162.5c-112.667 0 -216.834 -17.167 -312.501 -51.5s-182.167 -85.5 -259.5 -153.5c-92.667 -80.667 -162.834 -174.667 -210.501 -282s-71.5 -225.666 -71.5 -354.999c0 -114.667 20 -215.667 60 -303
s102.333 -164.333 187 -231c66 -53.333 146 -94.666 240 -123.999c46 -14.667 93.167 -25.667 141.5 -33s99.5 -11 153.5 -11c114.667 0 226.167 16.167 334.5 48.5s207.166 78.833 296.499 139.5l45 -66c-98 -72 -202.333 -126.833 -313 -164.5
s-226.334 -56.5 -347.001 -56.5c-129.333 0 -245.666 15.333 -348.999 46s-195 77 -275 139c-102.667 78.667 -178.834 169.5 -228.501 272.5s-74.5 220.167 -74.5 351.5c0 54.667 4 107.334 12 158.001s20.667 101 38 151c33.333 96 83.333 185.667 150 269
c97.333 117.333 214.166 206.333 350.499 267s287.166 91 452.499 91c111.333 0 215.166 -14.333 311.499 -43s178.833 -70.334 247.5 -125.001c86.667 -66.667 152 -143.667 196 -231s66 -181 66 -281c0 -112 -20.667 -214.5 -62 -307.5s-102.333 -172.167 -183 -237.5
c-46.667 -36.667 -96.667 -64.5 -150 -83.5s-107.333 -28.5 -162 -28.5c-65.333 0 -114.666 13.167 -147.999 39.5s-50 64.833 -50 115.5l1 11l1 12c-34 -58 -76.167 -102.167 -126.5 -132.5s-107.166 -45.5 -170.499 -45.5c-102 0 -179.833 28.333 -233.5 85
s-80.5 139 -80.5 247c0 153.333 45.667 283 137 389s202 159 332 159c60.667 0 111.667 -13.167 153 -39.5s73.666 -65.5 96.999 -117.5zM1202 472.999l60.001 242.001c-10.667 59.333 -34.5 105.833 -71.5 139.5s-82.167 50.5 -135.5 50.5
c-96.667 0 -177.834 -43.833 -243.501 -131.5s-98.5 -196.834 -98.5 -327.501c0 -72 17 -128.167 51 -168.5s82.333 -60.5 145 -60.5c68.667 0 129.667 23.167 183 69.5s90 108.5 110 186.5z" />
    <glyph glyph-name="A" unicode="A" horiz-adv-x="1972" 
d="M489 485h1004l-506 856zM-2 0l864 1489h246l866 -1489h-196l-195 328h-1184l-190 -328h-211z" />
    <glyph glyph-name="B" unicode="B" horiz-adv-x="1976" 
d="M367 1327l0.000976562 -462.999h847c198 0 318.5 15.167 361.5 45.5s64.5 91.166 64.5 182.499c0 55.333 -5 98 -15 128c-8.66699 30 -24.5 52 -47.5 66s-56.833 24.333 -101.5 31s-122.334 10 -233.001 10h-47h-829zM1575 795.001
c50.667 0 94.832 -7.00195 132.499 -21.002s68.834 -33.333 93.501 -58c46 -44 69 -114.667 69 -212v-158c0 -132 -42.667 -222.667 -128 -272s-262.666 -74 -531.999 -74h-1028v1489h1063c131.333 0 229.166 -5 293.499 -15s116.166 -27 155.499 -51
c45.333 -27.333 77.833 -64.166 97.5 -110.499s29.5 -113.166 29.5 -200.499c0 -102.667 -17.667 -176.167 -53 -220.5s-99.666 -76.5 -192.999 -96.5zM1341 689.999l-974.001 -0.000976562v-520h974c144 0 238.5 16 283.5 48s67.5 97.333 67.5 196
c0 116.667 -21.667 191.834 -65 225.501s-138.666 50.5 -285.999 50.5z" />
    <glyph glyph-name="C" unicode="C" horiz-adv-x="2034" 
d="M799 -18c-154.667 0 -266.336 7.83008 -335.003 23.4971s-125.667 42.5 -171 80.5c-49.333 42 -85.166 97.667 -107.499 167s-33.5 161 -33.5 275v406c0 123.333 11 221.5 33 294.5s58 131.167 108 174.5c43.333 37.333 101.333 64 174 80s182.667 24 330 24h469
c242.667 0 406.667 -30.167 492 -90.5s128 -170.166 128 -329.499l-1 -48l-1 -31h-170v22c0 116.667 -25.5 198 -76.5 244s-140.833 69 -269.5 69h-645c-88 0 -156.5 -8.16699 -205.5 -24.5s-87.167 -44.166 -114.5 -83.499c-18 -26 -31.333 -58.333 -40 -97
s-13 -102.667 -13 -192v-28v-367c0 -88 4 -151.5 12 -190.5s21.667 -71.833 41 -98.5c26.667 -37.333 65.167 -64.666 115.5 -81.999s118.5 -26 204.5 -26h643c140.667 0 236.667 22.667 288 68s77 127.666 77 246.999v41h170l1 -39l1 -35
c0 -93.333 -9.16699 -167.666 -27.5 -222.999s-48.833 -101 -91.5 -137c-39.333 -33.333 -95.166 -57.333 -167.499 -72s-189.166 -22 -350.499 -22h-467z" />
    <glyph glyph-name="D" unicode="D" horiz-adv-x="2126" 
d="M1421 1323l-1054 -0.000976562v-1157h1054c139.333 0 237 26.833 293 80.5s84 146.834 84 279.501v435c0 140 -26.333 235.333 -79 286c-26 25.333 -63.5 44.333 -112.5 57s-110.833 19 -185.5 19zM1303 1489c149.333 0 260.168 -7.33301 332.501 -22
s132.833 -39.334 181.5 -74.001c60 -44 104 -101 132 -171s42 -162 42 -276v-403c0 -114 -13.667 -206 -41 -276s-71.666 -127 -132.999 -171c-46.667 -33.333 -108.334 -57.666 -185.001 -72.999s-186.334 -23 -329.001 -23h-1121v1489h1121z" />
    <glyph glyph-name="E" unicode="E" horiz-adv-x="1741" 
d="M184 0v1489h1467v-166h-1286v-467h1232v-166h-1232v-524h1286v-166h-1467z" />
    <glyph glyph-name="F" unicode="F" horiz-adv-x="1675" 
d="M182 0v1489h1407v-166h-1220v-475h1173v-162h-1173v-686h-187z" />
    <glyph glyph-name="G" unicode="G" horiz-adv-x="2114" 
d="M1427 154c143.333 0 238.329 22.3281 284.996 66.9951s70 141 70 289v76h-764v166h950v-242c0 -143.333 -9 -242.666 -27 -297.999s-48.667 -100.666 -92 -135.999c-39.333 -33.333 -95.166 -57.333 -167.499 -72s-189.166 -22 -350.499 -22h-532
c-148.667 0 -258.834 8 -330.501 24s-130.167 43.333 -175.5 82c-49.333 42 -85.166 97.167 -107.499 165.5s-33.5 159.833 -33.5 274.5v406c0 123.333 11 221.5 33 294.5s58 131.167 108 174.5c43.333 37.333 101.333 64 174 80s182.667 24 330 24h534
c242.667 0 407.167 -30.167 493.5 -90.5s129.5 -170.166 129.5 -329.499l-1 -48l-1 -31h-170v22c0 116.667 -25.5 198 -76.5 244s-141.5 69 -271.5 69h-711c-89.333 0 -158.166 -8.16699 -206.499 -24.5s-86.166 -44.166 -113.499 -83.499c-18 -26 -31.333 -58.333 -40 -97
s-13 -102.667 -13 -192v-28v-367c0 -88 4 -151.5 12 -190.5s21.667 -71.833 41 -98.5c26.667 -37.333 65.167 -64.666 115.5 -81.999s118.5 -26 204.5 -26h704z" />
    <glyph glyph-name="H" unicode="H" horiz-adv-x="2083" 
d="M367 0h-185v1489h185v-641h1349v641h185v-1489h-185v686h-1349v-686z" />
    <glyph glyph-name="I" unicode="I" horiz-adv-x="567" 
d="M371 0h-185v1489h185v-1489z" />
    <glyph glyph-name="J" unicode="J" horiz-adv-x="1583" 
d="M53 543l184.998 0.000976562v-131c0 -105.333 19 -175.333 57 -210s109.667 -52 215 -52h319c50 0 92.5 1 127.5 3s66.833 5.66699 95.5 11c54.667 10 92.834 25.333 114.501 46s36.834 50.167 45.501 88.5s13 101.166 13 188.499v56v946h184v-1108
c0 -146 -33.333 -249 -100 -309s-182.667 -90 -348 -90h-433c-116.667 0 -200 7.33301 -250 22s-93.667 40.667 -131 78c-33.333 34.667 -57.333 74.167 -72 118.5s-22 114.833 -22 211.5v16v115z" />
    <glyph glyph-name="K" unicode="K" horiz-adv-x="1882" 
d="M371 0h-189v1489h189v-633h258l927 633h320l-1055 -715l1127 -774h-328l-991 694h-258v-694z" />
    <glyph glyph-name="L" unicode="L" horiz-adv-x="1571" 
d="M182 0v1489h185v-1325h1157v-164h-1342z" />
    <glyph glyph-name="M" unicode="M" horiz-adv-x="2695" 
d="M362 0h-180v1489h267l894 -1294l895 1294h275v-1489h-180v1311l-916 -1311h-139l-916 1311v-1311z" />
    <glyph glyph-name="N" unicode="N" horiz-adv-x="2185" 
d="M367 0h-185v1489h291l1346 -1319v1319h184v-1489h-270l-1366 1339v-1339z" />
    <glyph glyph-name="O" unicode="O" horiz-adv-x="2175" 
d="M842 -18c-161.333 0 -279.5 7.83398 -354.5 23.501s-136.5 42.5 -184.5 80.5c-52 41.333 -90.167 97.166 -114.5 167.499s-36.5 161.833 -36.5 274.5v406c0 125.333 11.5 224 34.5 296s61.167 129.667 114.5 173c46 36 108.167 62.333 186.5 79s195.833 25 352.5 25h497
c156 0 273 -8 351 -24s141.5 -43.167 190.5 -81.5s85.667 -94 110 -167s36.5 -167.167 36.5 -282.5v-415c0 -116 -12 -210 -36 -282s-61.667 -128.333 -113 -169c-47.333 -38 -109 -65 -185 -81c-36.667 -7.33301 -84.667 -13 -144 -17s-129.333 -6 -210 -6h-495zM1425 1343
l-673 0.00195312c-97.333 0 -171.666 -8.16699 -222.999 -24.5s-91.666 -44.166 -120.999 -83.499c-21.333 -28 -36.333 -62 -45 -102s-13 -103 -13 -189v-26v-365c0 -90.667 4.16699 -154.834 12.5 -192.501s23.5 -70.5 45.5 -98.5
c28.667 -37.333 69.667 -64.666 123 -81.999s127 -26 221 -26h673c97.333 0 171.666 8.16699 222.999 24.5s91.666 44.166 120.999 83.499c20 26 34.333 58.333 43 97s13 95.667 13 171v50v387c0 78.667 -4.16699 136.167 -12.5 172.5s-22.833 68.166 -43.5 95.499
c-28.667 37.333 -69.667 64.666 -123 81.999s-127 26 -221 26z" />
    <glyph glyph-name="P" unicode="P" horiz-adv-x="1896" 
d="M367 0l-185 -0.000976562v1489h1035c236 0 392.167 -25.167 468.5 -75.5s114.5 -143.166 114.5 -278.499v-195c0 -133.333 -37.833 -225.333 -113.5 -276s-232.167 -76 -469.5 -76h-850v-588zM367 755.999h903c133.333 0 222 16 266 48s66 99.333 66 202v71
c0 101.333 -21.833 168.333 -65.5 201s-132.5 49 -266.5 49h-903v-571z" />
    <glyph glyph-name="Q" unicode="Q" horiz-adv-x="2175" 
d="M1425 1337l-675.002 0.00195312c-98.667 0 -173.5 -8.16699 -224.5 -24.5s-90.833 -44.166 -119.5 -83.499c-20 -26 -34.333 -58.167 -43 -96.5s-13 -94.833 -13 -169.5v-50v-387c0 -78.667 4.16699 -135.834 12.5 -171.501s22.833 -67.167 43.5 -94.5
c29.333 -40 70 -68 122 -84s137.333 -24 256 -24h641c98.667 0 174.334 8.16699 227.001 24.5s93.334 44.166 122.001 83.499l-584 379l86 141l545 -366v23l4 138v365c0 89.333 -4.16699 152.833 -12.5 190.5s-23.5 70.5 -45.5 98.5c-27.333 37.333 -67 64.666 -119 81.999
s-126.333 26 -223 26zM839.998 -17.998c-84 0 -153.499 1.66699 -208.499 5s-102.5 9.33301 -142.5 18c-74.667 16 -136.667 43 -186 81c-52 40 -90.167 95 -114.5 165s-36.5 161 -36.5 273v406c0 125.333 11.5 223.666 34.5 294.999s61.167 128.666 114.5 171.999
c46 36 107.833 62.333 185.5 79s194.834 25 351.501 25h499c155.333 0 272 -8 350 -24c40 -8.66699 74.833 -19.167 104.5 -31.5s57.167 -28.5 82.5 -48.5c50.667 -39.333 88.167 -95.5 112.5 -168.5s36.5 -166.5 36.5 -280.5v-403
c0 -45.333 -2.16699 -87.666 -6.5 -126.999s-10.833 -77.666 -19.5 -114.999l164 -102l-82 -142l-144 97c-42.667 -64 -105.334 -109 -188.001 -135s-219.334 -39 -410.001 -39h-497z" />
    <glyph glyph-name="R" unicode="R" horiz-adv-x="1974" 
d="M1305 1327h-938v-571h938c133.333 0 221.833 16.5 265.5 49.5s65.5 99.833 65.5 200.5v71c0 99.333 -21.833 165.833 -65.5 199.5s-132.167 50.5 -265.5 50.5zM367 0l-185.001 -0.000976562v1489h1063c236 0 392.667 -25.167 470 -75.5s116 -143.166 116 -278.499v-179
c0 -92 -19 -159 -57 -201s-106.333 -74 -205 -96c80.667 -8 141.834 -36.667 183.501 -86s62.5 -117.333 62.5 -204v-369h-185v332c0 96.667 -21.333 163 -64 199c-21.333 18 -56 31.333 -104 40s-112 13 -192 13h-903v-584z" />
    <glyph glyph-name="S" unicode="S" horiz-adv-x="1954" 
d="M154 485l178.001 -0.00292969l-2 -29l-2 -59c0 -93.333 30.833 -158.333 92.5 -195s176.167 -55 343.5 -55h389c201.333 0 332.833 20 394.5 60s92.5 116.333 92.5 229c0 94 -21.333 158.5 -64 193.5s-130.334 52.5 -263.001 52.5h-629c-198 0 -337.333 30.833 -418 92.5
s-121 167.5 -121 317.5c0 153.333 45.833 260.833 137.5 322.5s259.5 92.5 503.5 92.5h338c183.333 0 312.5 -7 387.5 -21s133.167 -38.333 174.5 -73c34 -29.333 59.167 -68.166 75.5 -116.499s24.5 -107.833 24.5 -178.5v-43h-178v23c0 98.667 -23.5 165 -70.5 199
s-146.5 51 -298.5 51h-508c-154.667 0 -258.834 -17.667 -312.501 -53s-80.5 -100.333 -80.5 -195c0 -96 26 -162 78 -198s161 -54 327 -54h535c60.667 0 111.834 -1 153.501 -3s78.167 -5.66699 109.5 -11c59.333 -9.33301 106.666 -24.666 141.999 -45.999
c50.667 -30 87 -72 109 -126s33 -132.667 33 -236c0 -165.333 -44.5 -280.666 -133.5 -345.999s-249.5 -98 -481.5 -98h-505c-199.333 0 -341.666 30.167 -426.999 90.5s-128 160.5 -128 300.5l3 95z" />
    <glyph glyph-name="T" unicode="T" horiz-adv-x="1759" 
d="M971 0h-185v1323h-737v166h1659v-166h-737v-1323z" />
    <glyph glyph-name="U" unicode="U" horiz-adv-x="2066" 
d="M807 -18c-148.667 0 -257.167 7.83203 -325.5 23.499s-125.166 42.5 -170.499 80.5c-47.333 40.667 -82.333 95.334 -105 164.001s-34 160 -34 274v965h190v-965c0 -78.667 4 -135.667 12 -171s21.333 -66.333 40 -93c25.333 -37.333 62.666 -64.666 111.999 -81.999
s116.333 -26 201 -26h612c86.667 0 154 8.5 202 25.5s85.333 44.5 112 82.5c18 26 31 56.667 39 92s12 92.666 12 171.999v51v914h190v-954c0 -114 -11 -207 -33 -279s-56.667 -128.667 -104 -170c-42 -38 -98.333 -65 -169 -81c-34 -7.33301 -78.167 -13 -132.5 -17
s-118.833 -6 -193.5 -6h-455z" />
    <glyph glyph-name="V" unicode="V" horiz-adv-x="1886" 
d="M825 0l-827 1489h209l733 -1331l737 1331h211l-827 -1489h-236z" />
    <glyph glyph-name="W" unicode="W" horiz-adv-x="2654" 
d="M578 0l-576 1489h191l516 -1333l495 1333h246l492 -1333l520 1333h194l-579 -1489h-265l-485 1298l-485 -1298h-264z" />
    <glyph glyph-name="X" unicode="X" horiz-adv-x="1931" 
d="M-10 0l805 795l-713 694h260l619 -608l632 608h252l-710 -694l807 -795h-263l-712 711l-711 -711h-266z" />
    <glyph glyph-name="Y" unicode="Y" horiz-adv-x="1886" 
d="M846 0v623l-844 866h262l680 -698l680 698h264l-846 -866v-623h-196z" />
    <glyph glyph-name="Z" unicode="Z" horiz-adv-x="1872" 
d="M90 0v166l1376 1161h-1325v162h1596v-162l-1377 -1161h1397v-166h-1667z" />
    <glyph glyph-name="bracketleft" unicode="[" horiz-adv-x="743" 
d="M670 1485v-162h-336v-1161h336v-162h-512v1485h512z" />
    <glyph glyph-name="backslash" unicode="\" horiz-adv-x="743" 
d="M51 1507l846 -1697h-147l-846 1697h147z" />
    <glyph glyph-name="bracketright" unicode="]" horiz-adv-x="743" 
d="M76 0v162h336v1161h-336v162h512v-1485h-512z" />
    <glyph glyph-name="asciicircum" unicode="^" horiz-adv-x="2048" 
d="M1104 1458l520 -557h-158l-442 438l-442 -438h-160l520 557h162z" />
    <glyph glyph-name="underscore" unicode="_" 
d="M1024 -365v-118h-1024v118h1024z" />
    <glyph glyph-name="grave" unicode="`" 
d="M678 1176h-137l-344 272h247z" />
    <glyph glyph-name="a" unicode="a" horiz-adv-x="1550" 
d="M1231 279l-0.00195312 92c0 50.667 -24.333 86.5 -73 107.5s-139.667 31.5 -273 31.5h-252c-145.333 0 -239.666 -11.833 -282.999 -35.5s-65 -69.834 -65 -138.501c0 -79.333 20.333 -131.666 61 -156.999s136.334 -38 287.001 -38h252c135.333 0 226.833 10 274.5 30
s71.5 56 71.5 108zM927.998 1067c162 0 281.335 -31.332 358.002 -93.999s115 -160.334 115 -293.001v-680h-160v139c-26.667 -54.667 -67.5 -93.834 -122.5 -117.501s-137.833 -35.5 -248.5 -35.5h-280c-180 0 -306.333 25.333 -379 76s-109 139.334 -109 266.001
c0 118.667 36 202.667 108 252c35.333 24 84.666 42.167 147.999 54.5s139.333 18.5 228 18.5h295c88 0 161.167 -10 219.5 -30s105.166 -51.667 140.499 -95v144c0 88 -24 149.5 -72 184.5s-137.333 52.5 -268 52.5h-250c-128.667 0 -211 -9.66699 -247 -29
s-54 -57.333 -54 -114v-31h-176v29c0 106 35.167 183 105.5 231s185.5 72 345.5 72h303z" />
    <glyph glyph-name="b" unicode="b" horiz-adv-x="1602" 
d="M696 -14c-115.333 0 -201.499 14 -258.499 42s-100.5 76 -130.5 144v-172h-143v1489h162v-569c36 50 80.167 87 132.5 111s117.833 36 196.5 36h324c178 0 306.5 -34.833 385.5 -104.5s118.5 -185.167 118.5 -346.5v-165c0 -168 -38.833 -287.5 -116.5 -358.5
s-206.834 -106.5 -387.501 -106.5h-283zM702.001 141h234.001c152 0 253.167 22.167 303.5 66.5s75.5 131.5 75.5 261.5v125c0 124.667 -25.167 209 -75.5 253s-151.5 66 -303.5 66h-234c-150.667 0 -251.334 -21.833 -302.001 -65.5s-76 -128.167 -76 -253.5v-125
c0 -129.333 25 -216.333 75 -261s151 -67 303 -67z" />
    <glyph glyph-name="c" unicode="c" horiz-adv-x="1505" 
d="M1229 688c0 87.333 -21 146.668 -63 178.001s-134.333 47 -277 47h-246c-124 0 -212 -18.333 -264 -55s-78 -97.334 -78 -182.001v-244c0 -109.333 24.167 -185.166 72.5 -227.499s139.5 -63.5 273.5 -63.5h250c132.667 0 223.167 18 271.5 54s72.5 99.333 72.5 190v12
h158v-28c0 -133.333 -37 -230.5 -111 -291.5s-191.333 -91.5 -352 -91.5h-301c-170 0 -296.167 33.167 -378.5 99.5s-123.5 168.833 -123.5 307.5v266c0 137.333 41.167 239.666 123.5 306.999s208.5 101 378.5 101h250c179.333 0 307.333 -27.333 384 -82
s115 -144.667 115 -270v-27h-155z" />
    <glyph glyph-name="d" unicode="d" horiz-adv-x="1602" 
d="M903 141c152 0 253.167 22.167 303.5 66.5s75.5 131.5 75.5 261.5v125c0 124.667 -25.167 209 -75.5 253s-151.5 66 -303.5 66h-235c-151.333 0 -252.333 -21.833 -303 -65.5s-76 -128.167 -76 -253.5v-125c0 -128.667 25.167 -215.5 75.5 -260.5
s151.5 -67.5 303.5 -67.5h235zM907 -14h-280.001c-181.333 0 -310.666 35.5 -387.999 106.5s-116 190.5 -116 358.5v165c0 160.667 39 276 117 346s207 105 387 105h323c77.333 0 142.333 -11.667 195 -35s97.667 -60.666 135 -111.999v569h162v-1489h-146v172
c-28 -66.667 -70.5 -114.334 -127.5 -143.001s-144.167 -43 -261.5 -43z" />
    <glyph glyph-name="e" unicode="e" horiz-adv-x="1569" 
d="M924 1067c198 0 335.833 -36.6689 413.5 -110.002s116.5 -202 116.5 -386l-1 -50l-1 -31l-1151 -1v-57c0 -110 27 -187.333 81 -232s148 -67 282 -67h274c116.667 0 202.834 14.5 258.501 43.5s83.5 73.833 83.5 134.5v11h174v-27
c0 -101.333 -40.333 -178.166 -121 -230.499s-199.334 -78.5 -356.001 -78.5h-315c-188 0 -323.167 35 -405.5 105s-123.5 186.333 -123.5 349v168c0 164.667 40.667 282.334 122 353.001s217 106 407 106h262zM301 640.998h977v25c0 93.333 -24.167 157.833 -72.5 193.5
s-143.5 53.5 -285.5 53.5h-261c-132.667 0 -225.5 -20.5 -278.5 -61.5s-79.5 -111.167 -79.5 -210.5z" />
    <glyph glyph-name="f" unicode="f" horiz-adv-x="879" 
d="M252 0l0.000976562 903h-221v150h221v75c0 125.333 30.667 216.833 92 274.5s159 86.5 293 86.5h268v-152h-262c-82.667 0 -140.834 -13.667 -174.501 -41s-50.5 -73 -50.5 -137v-106h487v-150h-487v-903h-166z" />
    <glyph glyph-name="g" unicode="g" horiz-adv-x="1587" 
d="M659 205h262.999c138.667 0 233.334 19.333 284.001 58s76 108 76 208v176c0 99.333 -25.333 168.333 -76 207c-24.667 19.333 -60.667 34 -108 44s-106 15 -176 15h-263c-139.333 0 -234.166 -19.167 -284.499 -57.5s-75.5 -107.833 -75.5 -208.5v-176
c0 -99.333 25.167 -168.5 75.5 -207.5s145.166 -58.5 284.499 -58.5zM1440 18c0 -129.333 -41.832 -226.832 -125.499 -292.499s-208.5 -98.5 -374.5 -98.5h-309c-162.667 0 -283.667 28.667 -363 86c-40 29.333 -70.833 66.166 -92.5 110.499s-32.5 96.5 -32.5 156.5
l166 -1c0 -68.667 26 -117.5 78 -146.5s142.667 -43.5 272 -43.5h263c138.667 0 232.667 17.333 282 52s74 98.667 74 192v166c-37.333 -53.333 -79 -91.333 -125 -114s-111 -34 -195 -34h-327c-176.667 0 -303.834 34.667 -381.501 104s-116.5 183 -116.5 341v127
c0 156 39.5 269 118.5 339s207.5 105 385.5 105h231c138 0 234.5 -12.167 289.5 -36.5s97.833 -66.833 128.5 -127.5v150h154v-1035z" />
    <glyph glyph-name="h" unicode="h" horiz-adv-x="1602" 
d="M164 0l0.000976562 1489h166v-631c38.667 74 99.667 127.333 183 160s200.333 49 351 49c217.333 0 368.666 -28.167 453.999 -84.5s128 -155.166 128 -296.499v-686h-166v641c0 60.667 -5.33301 105 -16 133c-10 29.333 -28 53.333 -54 72
c-28 21.333 -76 37.5 -144 48.5s-151 16.5 -249 16.5c-176.667 0 -302 -21.667 -376 -65s-111 -115.666 -111 -216.999v-629h-166z" />
    <glyph glyph-name="i" unicode="i" horiz-adv-x="512" 
d="M172 1290v199h168v-199h-168zM172 0v1053h168v-1053h-168z" />
    <glyph glyph-name="j" unicode="j" horiz-adv-x="530" 
d="M195 1290v199h165v-199h-165zM360 -88c0 -108 -19.168 -180 -57.501 -216s-113.166 -54 -224.499 -54l-31 1l-33 1v153h19c66 0 109.5 8.5 130.5 25.5s31.5 52.167 31.5 105.5v1125h165v-1141z" />
    <glyph glyph-name="k" unicode="k" horiz-adv-x="1403" 
d="M358 1489v-821h109l584 385h260l-703 -461l832 -592h-256l-721 508h-105v-508h-165v1489h165z" />
    <glyph glyph-name="l" unicode="l" horiz-adv-x="551" 
d="M358 1489v-1489h-165v1489h165z" />
    <glyph glyph-name="m" unicode="m" horiz-adv-x="2484" 
d="M328 0h-164.002v1053h162v-133c28.667 52 78 89.667 148 113c34 10.667 78.333 19 133 25s118.667 9 192 9c156.667 0 269.334 -14.5 338.001 -43.5s114.334 -78.833 137.001 -149.5c42.667 65.333 102.834 113.833 180.501 145.5s177.167 47.5 298.5 47.5
c209.333 0 357.333 -28.833 444 -86.5s130 -155.834 130 -294.501v-686h-152v641c0 64.667 -5.16699 110.834 -15.5 138.501s-27.833 50.5 -52.5 68.5c-28.667 20 -73.834 35.833 -135.501 47.5s-131.834 17.5 -210.501 17.5c-146.667 0 -253.5 -20.167 -320.5 -60.5
s-105.5 -106.833 -115.5 -199.5v-653h-160v655c0 108 -25 178 -75 210s-152 48 -306 48c-163.333 0 -280.166 -21.167 -350.499 -63.5s-105.5 -112.5 -105.5 -210.5v-639z" />
    <glyph glyph-name="n" unicode="n" horiz-adv-x="1602" 
d="M164 0l0.000976562 1053h166v-195c38.667 74 99.667 127.333 183 160s200.333 49 351 49c217.333 0 368.666 -28.167 453.999 -84.5s128 -155.166 128 -296.499v-686h-166v641c0 62.667 -5.16699 108 -15.5 136s-28.5 51 -54.5 69
c-29.333 21.333 -77.833 37.5 -145.5 48.5s-150.167 16.5 -247.5 16.5c-176.667 0 -302 -21.667 -376 -65s-111 -115.666 -111 -216.999v-629h-166z" />
    <glyph glyph-name="o" unicode="o" horiz-adv-x="1636" 
d="M637 -14c-181.333 0 -310.666 35.5 -387.999 106.5s-116 190.5 -116 358.5v165c0 160.667 39 276 117 346s207 105 387 105h362c178 0 306.5 -34.833 385.5 -104.5s118.5 -185.167 118.5 -346.5v-165c0 -168 -38.833 -287.5 -116.5 -358.5
s-206.834 -106.5 -387.501 -106.5h-362zM680 141h273.998c152.667 0 254.334 22.333 305.001 67s76 131.667 76 261v125c0 124.667 -25.167 209 -75.5 253s-152.166 66 -305.499 66h-274c-151.333 0 -252.333 -21.833 -303 -65.5s-76 -128.167 -76 -253.5v-125
c0 -128.667 25.167 -215.5 75.5 -260.5s151.5 -67.5 303.5 -67.5z" />
    <glyph glyph-name="p" unicode="p" horiz-adv-x="1602" 
d="M702 909c-152 0 -252.999 -22.168 -302.999 -66.501s-75 -131.166 -75 -260.499v-125c0 -126 25.167 -210.833 75.5 -254.5s151.166 -65.5 302.499 -65.5h234c152.667 0 254 22 304 66s75 128.667 75 254v125c0 128 -25.167 214.5 -75.5 259.5s-151.5 67.5 -303.5 67.5
h-234zM696.001 1065l283.001 0.000976562c181.333 0 310.666 -35.333 387.999 -106s116 -190.334 116 -359.001v-166c0 -160 -39.333 -275 -118 -345s-207.334 -105 -386.001 -105h-324c-40.667 0 -76.667 2.66699 -108 8s-60.666 14.333 -87.999 27
c-52 22.667 -96.333 60 -133 112v-487h-162v1407h143v-172c28.667 66 72 113.5 130 142.5s144.333 43.5 259 43.5z" />
    <glyph glyph-name="q" unicode="q" horiz-adv-x="1602" 
d="M907 1065c116.667 0 203.002 -14.168 259.002 -42.501s98.667 -76.166 128 -143.499v172h146v-1407h-162v487c-36 -50.667 -80.333 -87.834 -133 -111.501s-118.334 -35.5 -197.001 -35.5h-323c-180 0 -309 34.833 -387 104.5s-117 184.834 -117 345.501v166
c0 168 38.667 287.5 116 358.5s206.666 106.5 387.999 106.5h282zM901.002 908.999l-233 -0.000976562c-152 0 -253.167 -22.167 -303.5 -66.5s-75.5 -131.166 -75.5 -260.499v-125c0 -126 25.167 -210.833 75.5 -254.5s151.5 -65.5 303.5 -65.5h233
c152.667 0 254 22 304 66s75 128.667 75 254v125c0 128 -25.167 214.5 -75.5 259.5s-151.5 67.5 -303.5 67.5z" />
    <glyph glyph-name="r" unicode="r" horiz-adv-x="1313" 
d="M164 0l-0.00195312 1042h162v-155c34 66 82.333 112.5 145 139.5s160.334 40.5 293.001 40.5c178.667 0 303.834 -26.333 375.501 -79s107.5 -143 107.5 -271v-139h-155v98c0 94 -24.5 156.667 -73.5 188s-147.5 47 -295.5 47c-136.667 0 -235.667 -20.167 -297 -60.5
s-92 -106.166 -92 -197.499v-653h-170z" />
    <glyph glyph-name="s" unicode="s" horiz-adv-x="1602" 
d="M604 467c-190.667 0 -314.504 19.998 -371.504 59.998s-85.5 118.333 -85.5 235c0 110.667 34.167 188.834 102.5 234.501s186.5 68.5 354.5 68.5h299c166.667 0 287.834 -20.167 363.501 -60.5s113.5 -104.833 113.5 -193.5v-70h-159v43c0 48 -24.333 81.167 -73 99.5
s-150 27.5 -304 27.5h-164c-165.333 0 -267.833 -9.66699 -307.5 -29s-59.5 -59.333 -59.5 -120c0 -61.333 20 -102.333 60 -123s142.333 -31 307 -31l287 2c127.333 0 216 -6 266 -18s89 -32.667 117 -62c25.333 -25.333 43.5 -55.666 54.5 -90.999s16.5 -95 16.5 -179
c0 -100.667 -34.167 -171.834 -102.5 -213.501s-191.166 -62.5 -368.499 -62.5h-424c-139.333 0 -237.666 28.333 -294.999 85c-28.667 29.333 -50.5 68.333 -65.5 117s-22.5 107.334 -22.5 176.001h152v-18c0 -80.667 15.667 -134.667 47 -162s105 -41 221 -41h471
c92.667 0 151.667 10.5 177 31.5s38 67.833 38 140.5c0 58.667 -15.167 99 -45.5 121s-86.166 33 -167.499 33h-432z" />
    <glyph glyph-name="t" unicode="t" horiz-adv-x="1196" 
d="M401 1053l693.002 -0.000976562v-142h-695v-553c0 -86.667 18.667 -145.834 56 -177.501s122.666 -47.5 255.999 -47.5c108 0 180.333 13.333 217 40s55 84.334 55 173.001v135h145v-135c0 -133.333 -33.5 -226.666 -100.5 -279.999s-185.5 -80 -355.5 -80
c-88.667 0 -161.167 8.16699 -217.5 24.5s-102.833 42.833 -139.5 79.5c-26.667 26 -45.834 57.5 -57.501 94.5s-17.5 98.5 -17.5 184.5v542h-226v142h226v241h161v-241z" />
    <glyph glyph-name="u" unicode="u" horiz-adv-x="1602" 
d="M1438 1053l-0.000976562 -1053h-160v199c-42 -77.333 -100.667 -132.166 -176 -164.499s-186.666 -48.5 -333.999 -48.5c-222.667 0 -380.334 29 -473.001 87s-139 156 -139 294v686h166v-635c0 -63.333 5 -109.333 15 -138s28.667 -53.334 56 -74.001s75 -37 143 -49
c36 -5.33301 74.333 -9.33301 115 -12s89.334 -4 146.001 -4c164 0 283.5 20.5 358.5 61.5s112.5 105.833 112.5 194.5v656h170z" />
    <glyph glyph-name="v" unicode="v" horiz-adv-x="1364" 
d="M571 0l-571 1053h186l492 -895l496 895h188l-584 -1053h-207z" />
    <glyph glyph-name="w" unicode="w" horiz-adv-x="2081" 
d="M471 0l-471 1053h193l395 -906l321 906h254l320 -906l413 906h185l-496 -1053h-231l-320 909l-332 -909h-231z" />
    <glyph glyph-name="x" unicode="x" horiz-adv-x="1380" 
d="M0 0l561 563l-491 490h227l383 -381l379 381h231l-489 -478l579 -575h-252l-448 467l-442 -467h-238z" />
    <glyph glyph-name="y" unicode="y" horiz-adv-x="1337" 
d="M571 0l-568.998 1053h184l502 -912l457 912h186l-520 -1053c-78.667 -158 -152.334 -259.667 -221.001 -305s-162.334 -68 -281.001 -68l-61 1l-53 1v150l31 -1l30 -1c110 0 190.333 16.167 241 48.5s92 90.5 124 174.5h-50z" />
    <glyph glyph-name="z" unicode="z" horiz-adv-x="1337" 
d="M100 158l918 757h-881v138h1114v-148l-917 -758h923v-147h-1157v158z" />
    <glyph glyph-name="braceleft" unicode="{" 
d="M858 1350l-22.998 1.00098l-22 1c-80 0 -134.5 -15.833 -163.5 -47.5s-43.5 -97.167 -43.5 -196.5v-242c0 -110.667 -14.333 -189.167 -43 -235.5s-80.334 -79.833 -155.001 -100.5c74 -20 125.5 -53.333 154.5 -100s43.5 -125 43.5 -235v-242
c0 -99.333 14.5 -164.5 43.5 -195.5s85.5 -46.5 169.5 -46.5h39v-125h-35c-65.333 0 -118.5 4 -159.5 12s-75.167 21.333 -102.5 40c-36 24 -62 57.333 -78 100c-14.667 44 -22 115 -22 213v244c0 101.333 -18.333 172.333 -55 213s-99.667 61 -189 61l-22 -1l-23 -1v127
l23 -1l22 -1c89.333 0 152.333 20.667 189 62s55 112.666 55 213.999v244c0 102 7.33301 173.667 22 215s40.667 74 78 98c27.333 17.333 61.166 30.333 101.499 39s93.833 13 160.5 13h35v-127z" />
    <glyph glyph-name="bar" unicode="|" 
d="M575 1565v-2048h-126v2048h126z" />
    <glyph glyph-name="braceright" unicode="}" 
d="M563 1112l-0.000976562 -244c0 -101.333 18.5 -172.666 55.5 -213.999s100.5 -62 190.5 -62l22 1l23 1v-127l-23 1l-22 1c-90 0 -153.5 -20.833 -190.5 -62.5s-55.5 -112.834 -55.5 -213.501v-242c0 -102.667 -7.16699 -174.834 -21.5 -216.501
s-39.833 -74.834 -76.5 -99.501c-25.333 -16.667 -57.5 -29 -96.5 -37s-92.833 -12 -161.5 -12h-41v125l23 -1l22 -1c79.333 0 133.666 15.833 162.999 47.5s44 97.834 44 198.501v240c0 110 14.333 188.167 43 234.5s80.334 79.833 155.001 100.5
c-73.333 20 -125 53.333 -155 100c-14 23.333 -24.667 54.5 -32 93.5s-11 86.5 -11 142.5v242c0 99.333 -14.667 164.833 -44 196.5s-85.666 47.5 -168.999 47.5h-39v125h35c66.667 0 120 -4.16699 160 -12.5s74.667 -21.5 104 -39.5c36 -22.667 61.333 -55.667 76 -99
s22 -114.666 22 -213.999z" />
    <glyph glyph-name="asciitilde" unicode="~" horiz-adv-x="1706" 
d="M1530 627c-66.667 -48 -132.334 -84 -197.001 -108s-128 -36 -190 -36c-27.333 0 -58 3.16699 -92 9.5s-67 14.833 -99 25.5l-34 11.5c-16.667 5.66699 -34.334 12.167 -53.001 19.5c-134 48 -234.667 72 -302 72c-56.667 0 -114.667 -12.667 -174 -38
c-30 -12 -62.833 -28.167 -98.5 -48.5s-73.167 -44.833 -112.5 -73.5v133c69.333 47.333 136.333 83.333 201 108s126.667 37 186 37c38 0 77.167 -4.16699 117.5 -12.5s98.166 -25.833 173.499 -52.5l44 -16c106.667 -38.667 188.334 -58 245.001 -58
s114.834 12.167 174.501 36.5s129.834 64.833 210.501 121.5v-131z" />
    <glyph glyph-name="nonbreakingspace" unicode="&#xa0;" horiz-adv-x="1944" 
 />
    <glyph glyph-name="exclamdown" unicode="&#xa1;" horiz-adv-x="973" 
d="M567 1053v-1053h-157v1053h157zM602 1489v-270h-231v270h231z" />
    <glyph glyph-name="cent" unicode="&#xa2;" horiz-adv-x="1944" 
d="M862 911c-124 0 -212 -18.168 -264 -54.501s-78 -97.166 -78 -182.499v-244c0 -102 21.667 -175.667 65 -221s114 -68 212 -68h28l222 770h-185zM1448 687.999c0 79.333 -18.502 136.333 -55.502 171s-98.5 52 -184.5 52h-16l-221 -770h145
c132.667 0 223.167 18 271.5 54s72.5 99.333 72.5 190v12h160v-28c0 -132 -37.333 -228.833 -112 -290.5s-192.334 -92.5 -353.001 -92.5h-227l-76 -260h-145l73 260h-6c-131.333 0 -234.666 35.667 -309.999 107c-37.333 36.667 -65.333 79.5 -84 128.5
s-28 105.5 -28 169.5v268c0 138 40.833 240.167 122.5 306.5s208.167 99.5 379.5 99.5h236l61 213h145l-61 -213c58.667 0 110.834 -8 156.501 -24s84.834 -39.333 117.501 -70c63.333 -59.333 95 -143.333 95 -252v-31h-156z" />
    <glyph glyph-name="sterling" unicode="&#xa3;" horiz-adv-x="1944" 
d="M135 0l1 167.999c91.333 0 156.666 16.333 195.999 49s59 86 59 160v250h-256v141h256v420c0 110 33.667 190.667 101 242s174.333 77 321 77h401c207.333 0 353.5 -25.167 438.5 -75.5s127.5 -134.166 127.5 -251.499v-125h-174l1 25l1 40
c0 88.667 -23.667 149.167 -71 181.5s-143.333 48.5 -288 48.5h-446c-82.667 0 -142 -18.667 -178 -56s-54 -101.333 -54 -192v-334h744v-141h-744v-166c0 -106.667 -8.16699 -176.667 -24.5 -210s-46.166 -61 -89.499 -83h1351v-168h-1673z" />
    <glyph glyph-name="currency" unicode="&#xa4;" horiz-adv-x="1241" 
d="M936 887c0 86 -30.333 159.667 -91 221s-134.667 92 -222 92c-86.667 0 -160.667 -30.667 -222 -92s-92 -135 -92 -221c0 -86.667 30.5 -161 91.5 -223s135.167 -93 222.5 -93c85.333 0 158.833 31.167 220.5 93.5s92.5 136.5 92.5 222.5zM365 1212
c38.667 29.333 79.332 51.832 121.999 67.499s87.334 23.5 134.001 23.5c48.667 0 93.667 -7.66699 135 -23c43.333 -14 85 -36.667 125 -68l204 207l72 -73l-205 -205c27.333 -37.333 48.5 -77.833 63.5 -121.5s22.5 -88.5 22.5 -134.5
c0 -47.333 -7.16699 -92.5 -21.5 -135.5s-35.833 -83.167 -64.5 -120.5l205 -205l-72 -74l-204 207c-38.667 -29.333 -79.667 -51.333 -123 -66s-89 -22 -137 -22s-93 7 -135 21s-82.333 36.333 -121 67l-207 -207l-72 74l207 205c-29.333 38.667 -51.333 79.667 -66 123
s-22 87.666 -22 132.999c0 46.667 7.16699 91.334 21.5 134.001s36.5 83.334 66.5 122.001l-207 205l72 73z" />
    <glyph glyph-name="yen" unicode="&#xa5;" horiz-adv-x="1944" 
d="M889 0v614h-801v123h690l-200 205h-490v123h369l-414 424h229l705 -733l709 733h215l-412 -424h369v-123h-490l-201 -205h691v-123h-803v-614h-166z" />
    <glyph glyph-name="brokenbar" unicode="&#xa6;" 
d="M575 408v-758h-126v758h126zM575 1432v-758h-126v758h126z" />
    <glyph glyph-name="section" unicode="&#xa7;" horiz-adv-x="1554" 
d="M406 702l649 -132.999l30 -5l29 -1c48 0 88 15 120 45s48 67.667 48 113c0 34.667 -10.667 62 -32 82s-61.333 36.333 -120 49l-602 131l-32 4l-29 2c-46 0 -86.5 -16.333 -121.5 -49s-52.5 -71 -52.5 -115c0 -32 9 -58.333 27 -79s46.667 -35.334 86 -44.001z
M489 -17.999c-106.667 0 -179.998 18.832 -219.998 56.499s-60 106.167 -60 205.5l-1 20l-1 21v13c0.666992 4.66699 1.33398 7.66699 2.00098 9h149l-1 -20l-1 -17c0 -56 10.833 -94.167 32.5 -114.5s69.5 -30.5 143.5 -30.5h498c62 0 105.5 10.333 130.5 31
s37.5 56 37.5 106c0 43.333 -11.667 76.5 -35 99.5s-65 40.5 -125 52.5l-663 127c-80.667 15.333 -140.5 44.166 -179.5 86.499s-58.5 98.833 -58.5 169.5c0 57.333 18 106.333 54 147s85.667 67.334 149 80.001c-42.667 22 -75.834 53.333 -99.501 94
s-35.5 86.334 -35.5 137.001c0 78 24.833 139.5 74.5 184.5s117.5 67.5 203.5 67.5h506c144 0 239.5 -18.167 286.5 -54.5s70.5 -102.833 70.5 -199.5v-30h-144v16c0 51.333 -9.83301 87 -29.5 107s-56.834 30 -111.501 30h-35h-522c-43.333 0 -76.666 -9.66699 -99.999 -29
c-23.333 -18 -35 -45 -35 -81c0 -33.333 11 -61 33 -83c21.333 -19.333 56.666 -34 105.999 -44l690 -135c80.667 -16 141.167 -44.5 181.5 -85.5s60.5 -93.167 60.5 -156.5c0 -68 -18 -123 -54 -165s-88.333 -69 -157 -81c43.333 -24.667 76.666 -58.167 99.999 -100.5
s35 -91.5 35 -147.5c0 -23.333 -1.33301 -43.333 -4 -60s-8 -35.334 -16 -56.001c-12.667 -35.333 -32.667 -67.666 -60 -96.999c-24.667 -25.333 -53.167 -43.833 -85.5 -55.5s-84.5 -17.5 -156.5 -17.5h-553z" />
    <glyph glyph-name="dieresis" unicode="&#xa8;" 
d="M616 1200v195h207v-195h-207zM201 1200v195h207v-195h-207z" />
    <glyph glyph-name="copyright" unicode="&#xa9;" horiz-adv-x="1706" 
d="M1065 911c-10 51.333 -33.5 91.498 -70.5 120.498s-83.167 43.5 -138.5 43.5c-78 0 -138.833 -30.833 -182.5 -92.5s-65.5 -148.167 -65.5 -259.5c0 -106 22 -189.833 66 -251.5s104.667 -92.5 182 -92.5c57.333 0 105.5 15.833 144.5 47.5s63.833 76.5 74.5 134.5h129
c0 -41.333 -9.33301 -78.833 -28 -112.5s-45.667 -65.167 -81 -94.5c-65.333 -53.333 -147 -80 -245 -80c-116.667 0 -210 40.333 -280 121s-105 189.334 -105 326.001c0 138 35.833 248.667 107.5 332s167.5 125 287.5 125c90 0 166.167 -24.667 228.5 -74
s97.5 -113.666 105.5 -192.999h-129zM1501 724.998c0 86.667 -16.168 169.67 -48.501 249.003s-78.666 149.166 -138.999 209.499s-130 106.833 -209 139.5s-163.167 49 -252.5 49c-87.333 0 -169.333 -15.667 -246 -47s-145.667 -77.833 -207 -139.5
s-108.666 -132.834 -141.999 -213.501s-50 -163 -50 -247c0 -84.667 16.167 -165.834 48.5 -243.501s79.666 -147.667 141.999 -210s132.5 -109.833 210.5 -142.5s159.333 -49 244 -49c86.667 0 169.5 16.5 248.5 49.5s149.5 80 211.5 141s109 130 141 207
s48 159.5 48 247.5zM851.999 1460c100.667 0 195.501 -18.167 284.501 -54.5s168.833 -89.833 239.5 -160.5c68.667 -68.667 121 -147.834 157 -237.501s54 -183.834 54 -282.501c0 -99.333 -18 -193.166 -54 -281.499s-89.167 -167 -159.5 -236s-151 -122.5 -242 -160.5
s-184.167 -57 -279.5 -57c-97.333 0 -189.833 18.333 -277.5 55s-166.834 90.334 -237.501 161.001s-125 150.334 -163 239.001c-18 44.667 -31.667 90.167 -41 136.5s-14 94.166 -14 143.499c0 97.333 18.833 190.833 56.5 280.5s91.834 170.167 162.501 241.5
c66.667 68 144.667 120.5 234 157.5s182.666 55.5 279.999 55.5z" />
    <glyph glyph-name="ordfeminine" unicode="&#xaa;" horiz-adv-x="1163" 
d="M924 946v66c0 34 -18.167 58.5 -54.5 73.5s-104.833 22.5 -205.5 22.5h-189c-110 0 -181.167 -8.16699 -213.5 -24.5s-48.5 -48.5 -48.5 -96.5c0 -56 15.167 -92.833 45.5 -110.5s102.5 -26.5 216.5 -26.5h189c101.333 0 170 7 206 21s54 39 54 75zM696 1499
c121.333 0 210.832 -22.002 268.499 -66.002s86.5 -112.667 86.5 -206v-475h-119v98c-20 -38.667 -51.167 -66.5 -93.5 -83.5s-104.166 -25.5 -185.499 -25.5h-211c-134.667 0 -229 17.833 -283 53.5s-81 97.834 -81 186.501c0 84 26.833 142.833 80.5 176.5
s147.5 50.5 281.5 50.5h222c64.667 0 119 -7 163 -21s79.667 -35.667 107 -65v101c0 62 -18.333 105.167 -55 129.5s-103.667 36.5 -201 36.5h-187c-96 0 -157.833 -6.83301 -185.5 -20.5s-41.5 -40.5 -41.5 -80.5v-22h-131v20c0 74.667 26.5 128.834 79.5 162.501
s139.167 50.5 258.5 50.5h227z" />
    <glyph glyph-name="guillemotleft" unicode="&#xab;" horiz-adv-x="1028" 
d="M934 217h-189l-221 324l221 317h189l-221 -317zM502 217h-187l-221 324l221 317h187l-219 -317z" />
    <glyph glyph-name="logicalnot" unicode="&#xac;" horiz-adv-x="1706" 
d="M1452 858v-502h-115v385h-1083v117h1198z" />
    <glyph glyph-name="minus" unicode="&#xad;" horiz-adv-x="901" 
d="M166 461v149h569v-149h-569z" />
    <glyph glyph-name="registered" unicode="&#xae;" horiz-adv-x="1706" 
d="M846 1065l-144.001 0.000976562v-291h148c81.333 0 139.5 11.167 174.5 33.5s52.5 58.166 52.5 107.499c0 52 -18.167 90 -54.5 114s-95.166 36 -176.499 36zM871.999 1157c118 0 206 -19.002 264 -57.002s87 -96 87 -174c0 -59.333 -17.5 -108.666 -52.5 -147.999
s-83.167 -64.666 -144.5 -75.999l188 -385h-157l-176 365h-179v-365h-141v840h311zM1501 720.999c0 87.333 -16 170.832 -48 250.499s-78 149.834 -138 210.501c-62.667 62.667 -133.5 110 -212.5 142s-162.5 48 -250.5 48c-89.333 0 -172.166 -15.667 -248.499 -47
s-143.833 -77 -202.5 -137c-62 -63.333 -109.833 -134.833 -143.5 -214.5s-50.5 -162.5 -50.5 -248.5c0 -84.667 16.167 -165.834 48.5 -243.501s79.5 -148.167 141.5 -211.5c60 -61.333 129.5 -108.333 208.5 -141s160.5 -49 244.5 -49c86.667 0 169.667 16 249 48
s150.666 79.333 213.999 142c60 60 106.333 128.667 139 206c15.333 37.333 27.333 76.833 36 118.5s13 83.834 13 126.501zM851.999 1460c100.667 0 195.666 -18.501 284.999 -55.501s168.666 -90.333 237.999 -160s122 -149 158 -238s54 -182.833 54 -281.5
c0 -100.667 -18.167 -195 -54.5 -283s-89.666 -166.167 -159.999 -234.5s-151.166 -122.166 -242.499 -161.499c-44.667 -18.667 -89.834 -32.667 -135.501 -42s-93.167 -14 -142.5 -14c-97.333 0 -190 18.5 -278 55.5s-168 91.5 -240 163.5
c-69.333 68.667 -122.5 147.667 -159.5 237s-55.5 182.333 -55.5 279c0 98 19 192 57 282s92.667 170.667 164 242c66.667 68 143.834 120.167 231.501 156.5s181.167 54.5 280.5 54.5z" />
    <glyph glyph-name="macron" unicode="&#xaf;" 
d="M201 1231v133h622v-133h-622z" />
    <glyph glyph-name="degree" unicode="&#xb0;" horiz-adv-x="674" 
d="M539 1171c0 56 -19.332 103.501 -57.999 142.501s-86.334 58.5 -143.001 58.5s-104.667 -19.333 -144 -58s-59 -86.334 -59 -143.001c0 -56 20 -103.667 60 -143s87.667 -59 143 -59c56 0 103.5 19.667 142.5 59s58.5 87 58.5 143zM338.001 1454
c78 0 144.668 -27.665 200.001 -82.998s83 -122 83 -200c0 -76.667 -27.833 -142.834 -83.5 -198.501s-122.834 -83.5 -201.501 -83.5c-78 0 -144.333 27.167 -199 81.5s-82 121.166 -82 200.499s27.667 146.333 83 201s122 82 200 82z" />
    <glyph glyph-name="plusminus" unicode="&#xb1;" horiz-adv-x="1706" 
d="M1452 158v-117h-1198v117h1198zM913 1180v-344h539v-117h-539v-344h-118v344h-541v117h541v344h118z" />
    <glyph glyph-name="twosuperior" unicode="&#xb2;" horiz-adv-x="1282" 
d="M1198 592l-1092 0.000976562v180c0 83.333 24.667 143.666 74 180.999c28 21.333 62.333 37.666 103 48.999c47.333 13.333 101.666 20 162.999 20l428 27c33.333 0 62.166 3.5 86.499 10.5s43.5 16.333 57.5 28s24.333 26.834 31 45.501s10 42.334 10 71.001
c0 49.333 -3 84.166 -9 104.499s-16 36.166 -30 47.499c-24 18 -58.5 31 -103.5 39s-109.5 12 -193.5 12h-197c-116.667 0 -195 -13.333 -235 -40s-60 -76.667 -60 -150v-58h-118v107c0 84 28 143.5 84 178.5s152.667 52.5 290 52.5h291
c161.333 0 269.666 -20.167 324.999 -60.5s83 -116.5 83 -228.5c0 -90 -22.667 -154.333 -68 -193c-24 -20.667 -56.667 -37.334 -98 -50.001s-90.666 -19 -147.999 -19l-419 -28l-7 -1c-50.667 0 -92.334 -5.33301 -125.001 -16s-55.667 -25 -69 -43
c-6 -9.33301 -11.333 -25.166 -16 -47.499s-7 -48.166 -7 -77.499l1 -21l1 -20h967v-100z" />
    <glyph glyph-name="threesuperior" unicode="&#xb3;" horiz-adv-x="1282" 
d="M918 999h-403.999v99h332c87.333 0 144 9 170 27s39 58 39 120c0 42.667 -4 72.334 -12 89.001s-22.333 30 -43 40c-12.667 5.33301 -41.667 10.666 -87 15.999c-22.667 2 -46 3.66699 -70 5s-49.667 2 -77 2h-326c-83.333 0 -140.666 -11.167 -171.999 -33.5
s-47 -62.5 -47 -120.5l1 -14l1 -15h-121v62c0 78 27.167 133.333 81.5 166s150.833 49 289.5 49h328c148.667 0 249 -16 301 -48s78 -91.667 78 -179c0 -82.667 -12.333 -137.667 -37 -165c-12.667 -14 -30 -24.5 -52 -31.5s-49.667 -10.5 -83 -10.5v-8h8
c62.667 0 108 -15.167 136 -45.5s42 -80.166 42 -149.499c0 -63.333 -3.66699 -109 -11 -137s-20 -50.667 -38 -68c-22 -22 -58.667 -39 -110 -51c-26.667 -5.33301 -55.334 -9.33301 -86.001 -12s-67.667 -4 -111 -4h-406c-126 0 -214.833 18 -266.5 54
s-77.5 97.667 -77.5 185l1 26l1 30h125v-25c0 -30.667 2.16699 -56.334 6.5 -77.001s11.833 -36.667 22.5 -48c15.333 -15.333 37 -27 65 -35c31.333 -6.66699 75.666 -10 132.999 -10h31h373c60.667 0 103.834 2 129.501 6s45 11.333 58 22s22.5 26.167 28.5 46.5
s9 53.5 9 99.5c0 55.333 -10.833 93 -32.5 113s-61.834 30 -120.501 30z" />
    <glyph glyph-name="acute" unicode="&#xb4;" 
d="M346 1176l234 272h247l-344 -272h-137z" />
    <glyph glyph-name="mu" unicode="&#xb5;" horiz-adv-x="1128" 
d="M362 1069l-126.001 -595.001l-12 -67l-3 -71c0 -72 19 -127.833 57 -167.5s91.333 -59.5 160 -59.5c83.333 0 152.333 33.333 207 100s97.667 169.667 129 309l121 551h156l-162 -754l-18 -84l-5 -51c0 -20.667 6 -37 18 -49c12.667 -10.667 30.667 -16 54 -16h17
c8 0 14 0.666992 18 2l-27 -125l-44 -7l-48 -3c-46.667 0 -81.667 11.667 -105 35c-21.333 22.667 -34.666 60 -39.999 112c-26.667 -45.333 -65.5 -81.166 -116.5 -107.499s-108.5 -39.5 -172.5 -39.5c-58.667 0 -109.5 11.167 -152.5 33.5s-79.5 56.833 -109.5 103.5
l-113 -545h-156l316 1495h157z" />
    <glyph glyph-name="paragraph" unicode="&#xb6;" 
d="M948 1401l-125.001 -0.000976562v-1401h-94v1401h-182v-1401h-96v782c-56 0 -106.833 8.83301 -152.5 26.5s-86.167 42.834 -121.5 75.501c-67.333 63.333 -101 145.333 -101 246c0 104 35.833 188.167 107.5 252.5s166.834 96.5 285.501 96.5h479v-78z" />
    <glyph glyph-name="cedilla" unicode="&#xb8;" 
d="M406 0l105.999 0.000976562v-133h203c36.667 0 63.834 -9.83301 81.501 -29.5s26.5 -50.167 26.5 -91.5v-70c0 -46.667 -8.16699 -79.834 -24.5 -99.501s-43.5 -29.5 -81.5 -29.5h-453v109h359c24 0 40.167 3.66699 48.5 11s12.5 20.666 12.5 39.999
c0 18.667 -4.33301 31.834 -13 39.501s-24.667 11.5 -48 11.5h-166c-19.333 0 -33 5 -41 15c-6.66699 10 -10 30.333 -10 61v166z" />
    <glyph glyph-name="onesuperior" unicode="&#xb9;" horiz-adv-x="1282" 
d="M705 592v778l-365 -264l-68 72l408 307h139v-893h-114z" />
    <glyph glyph-name="ordmasculine" unicode="&#xba;" horiz-adv-x="1227" 
d="M477 741c-136.667 0 -233.667 24.833 -291 74.5s-86 133.5 -86 251.5v117c0 112 29.333 192.5 88 241.5s155 73.5 289 73.5h273c134 0 230.5 -24.5 289.5 -73.5s88.5 -129.5 88.5 -241.5v-117c0 -116 -29 -199.333 -87 -250s-155 -76 -291 -76h-273zM510 850h207.002
c114 0 189.833 15.667 227.5 47s56.5 92 56.5 182v88c0 87.333 -19 146.5 -57 177.5s-113.667 46.5 -227 46.5h-207c-114.667 0 -190.834 -15.167 -228.501 -45.5s-56.5 -89.833 -56.5 -178.5v-88c0 -89.333 19.167 -149.833 57.5 -181.5s114.166 -47.5 227.499 -47.5z" />
    <glyph glyph-name="guillemotright" unicode="&#xbb;" horiz-adv-x="1028" 
d="M524 217l219 324l-219 317h187l221 -317l-221 -324h-187zM92 217l221 324l-221 317h189l221 -317l-221 -324h-189z" />
    <glyph glyph-name="onequarter" unicode="&#xbc;" horiz-adv-x="2791" 
d="M2451 264v490l-704 -490h704zM2451 0v174h-819v127l770 533h154v-570h156v-90h-156v-174h-105zM1028 -18h-145l880 1525h144zM672 651v727l-348 -245l-64 65l387 287h133v-834h-108z" />
    <glyph glyph-name="onehalf" unicode="&#xbd;" horiz-adv-x="2791" 
d="M2710 0l-1041 0.00195312v168c0 78 23.333 134.333 70 169c25.333 18.667 59.666 34 102.999 46s94.333 18 153 18l407 25c32.667 0 60 3.16699 82 9.5s40.333 15.833 55 28.5c26 21.333 39 57 39 107c0 44 -2.83301 76 -8.5 96s-15.5 35.333 -29.5 46
c-22.667 16.667 -55.5 29 -98.5 37s-104.5 12 -184.5 12h-189c-56 0 -102.167 -3 -138.5 -9s-64.5 -15.667 -84.5 -29c-38 -24 -57 -70.667 -57 -140v-54h-113v99c0 78 26.667 133.333 80 166s145.666 49 276.999 49h278c154.667 0 258.167 -18.667 310.5 -56
s78.5 -108.333 78.5 -213c0 -84.667 -21.667 -144.667 -65 -180c-23.333 -19.333 -54.666 -35 -93.999 -47s-86.333 -18 -141 -18l-400 -27c-31.333 0 -58.666 -1.83301 -81.999 -5.5s-44 -8.33398 -62 -14.001s-33.667 -16.834 -47 -33.501
c-6 -8.66699 -11.667 -23.667 -17 -45c-3.33301 -20 -5 -44.667 -5 -74l1 -19l1 -20h922v-92zM1028 -17.998h-145l880 1525h144zM672 651.002v727l-348 -245l-64 65l387 287h133v-834h-108z" />
    <glyph glyph-name="threequarters" unicode="&#xbe;" horiz-adv-x="2791" 
d="M2451 264v490l-704 -490h704zM2451 0v174h-819v127l770 533h154v-570h156v-90h-156v-174h-105zM1028 -18h-145l880 1525h144zM877 1030l-384.996 0.00292969v94h315c84 0 138.5 8.5 163.5 25.5s37.5 54.5 37.5 112.5c0 37.333 -3.83301 64.166 -11.5 80.499
s-21.834 29.5 -42.501 39.5c-12 6 -39 11 -81 15s-89.333 6 -142 6h-311c-80.667 0 -135.667 -10.167 -165 -30.5s-44 -57.833 -44 -112.5l1 -14l1 -13h-117v57c0 73.333 25.667 124.833 77 154.5s144.666 44.5 279.999 44.5h313c141.333 0 236.666 -14.833 285.999 -44.5
s74 -85.167 74 -166.5c0 -76.667 -12 -128 -36 -154s-66.333 -39 -127 -39v-8h8c60 0 103 -13.833 129 -41.5s39 -73.834 39 -138.501c0 -62 -3.66699 -105.333 -11 -130c-6 -25.333 -17.333 -46 -34 -62c-21.333 -21.333 -56 -37.333 -104 -48s-111 -16 -189 -16h-387
c-120 0 -205 17 -255 51s-75 91.333 -75 172l1 25l1 26h119v-20c0 -29.333 2.16699 -53.333 6.5 -72s11.5 -33.667 21.5 -45c16 -14.667 37 -25.667 63 -33c12 -2.66699 29.333 -5 52 -7s48 -3 76 -3h29h354c57.333 0 98.166 2 122.499 6s43.5 11 57.5 21
c12 10 21 23.667 27 41c2.66699 9.33301 4.66699 21.166 6 35.499s2 33.833 2 58.5c0 52 -10.333 87.167 -31 105.5s-58.667 27.5 -114 27.5z" />
    <glyph glyph-name="questiondown" unicode="&#xbf;" horiz-adv-x="1595" 
d="M969 1020l0.000976562 -87.999c0 -70 -22.667 -124.167 -68 -162.5s-121 -66.166 -227 -83.499l-228 -35c-62.667 -10 -107 -34.5 -133 -73.5s-39 -103.167 -39 -192.5c0 -99.333 22.833 -165.5 68.5 -198.5s165.5 -49.5 359.5 -49.5h295c123.333 0 207.833 17 253.5 51
s68.5 98.333 68.5 193v92h172v-203c0 -92.667 -35.667 -163.834 -107 -213.501s-173 -74.5 -305 -74.5h-461c-192.667 0 -326.5 31.167 -401.5 93.5s-112.5 173.166 -112.5 332.499c0 130 25 226 75 288s135 103 255 123l203 31c67.333 10 112.166 25.667 134.499 47
s33.5 55.333 33.5 102v21h164zM776.001 1219v270h232v-270h-232z" />
    <glyph glyph-name="Agrave" unicode="&#xc0;" horiz-adv-x="1972" 
d="M489 485h1004l-506 856zM-2 0l864 1489h246l866 -1489h-196l-195 328h-1184l-190 -328h-211zM1153 1600h-137l-344 272h247z" />
    <glyph glyph-name="Aacute" unicode="&#xc1;" horiz-adv-x="1972" 
d="M489 485h1004l-506 856zM-2 0l864 1489h246l866 -1489h-196l-195 328h-1184l-190 -328h-211zM821 1600l234 272h247l-344 -272h-137z" />
    <glyph glyph-name="Acircumflex" unicode="&#xc2;" horiz-adv-x="1972" 
d="M489 485h1004l-506 856zM-2 0l864 1489h246l866 -1489h-196l-195 328h-1184l-190 -328h-211zM635 1600l237 272h230l237 -272h-135l-217 165l-217 -165h-135z" />
    <glyph glyph-name="Atilde" unicode="&#xc3;" horiz-adv-x="1972" 
d="M489 485h1004l-506 856zM-2 0l864 1489h246l866 -1489h-196l-195 328h-1184l-190 -328h-211zM1327 1841c-12 -64 -37.834 -113.001 -77.501 -147.001s-90.167 -51 -151.5 -51h-15h-12c-6 1.33301 -10.333 2 -13 2l-43 8l-119 29l-17 3l-31 1
c-20.667 0 -39.5 -5.66699 -56.5 -17s-31.167 -27.666 -42.5 -48.999h-102c18.667 64 48.334 112.5 89.001 145.5s91.667 49.5 153 49.5c12 0 21.333 -0.666992 28 -2c10.667 0 20.667 -1.66699 30 -5l144 -32l22 -3l17 -1c24 0 44.333 6 61 18s28 29 34 51h102z" />
    <glyph glyph-name="Adieresis" unicode="&#xc4;" horiz-adv-x="1972" 
d="M489 485h1004l-506 856zM-2 0l864 1489h246l866 -1489h-196l-195 328h-1184l-190 -328h-211zM1091 1624v195h207v-195h-207zM676 1624v195h207v-195h-207z" />
    <glyph glyph-name="Aring" unicode="&#xc5;" horiz-adv-x="1972" 
d="M1118 1753c0 40 -10.5 69.501 -31.5 88.501s-54.833 28.5 -101.5 28.5c-45.333 0 -78.833 -9.33301 -100.5 -28s-32.5 -48.334 -32.5 -89.001s11 -70.667 33 -90s55.333 -29 100 -29c46 0 79.667 9.66699 101 29s32 49.333 32 90zM1262 1757
c0 -64 -24.167 -113.833 -72.5 -149.5s-116.5 -53.5 -204.5 -53.5s-156.333 17.667 -205 53s-73 85.333 -73 150c0 65.333 24.167 115.833 72.5 151.5s116.833 53.5 205.5 53.5c89.333 0 157.833 -17.667 205.5 -53s71.5 -86 71.5 -152zM489 485.001h1004l-506 856z
M-2 0.000976562l864 1489h246l866 -1489h-196l-195 328h-1184l-190 -328h-211z" />
    <glyph glyph-name="AE" unicode="&#xc6;" horiz-adv-x="2544" 
d="M492 512h665v815h-162zM-39 0l926 1489h1562v-162h-1112v-467h996v-162h-996v-536h1112v-162h-1292v352h-766l-219 -352h-211z" />
    <glyph glyph-name="Ccedilla" unicode="&#xc7;" horiz-adv-x="2034" 
d="M799 -18c-154.667 0 -266.336 7.83008 -335.003 23.4971s-125.667 42.5 -171 80.5c-49.333 42 -85.166 97.667 -107.499 167s-33.5 161 -33.5 275v406c0 123.333 11 221.5 33 294.5s58 131.167 108 174.5c43.333 37.333 101.333 64 174 80s182.667 24 330 24h469
c242.667 0 406.667 -30.167 492 -90.5s128 -170.166 128 -329.499l-1 -48l-1 -31h-170v22c0 116.667 -25.5 198 -76.5 244s-140.833 69 -269.5 69h-645c-88 0 -156.5 -8.16699 -205.5 -24.5s-87.167 -44.166 -114.5 -83.499c-18 -26 -31.333 -58.333 -40 -97
s-13 -102.667 -13 -192v-28v-367c0 -88 4 -151.5 12 -190.5s21.667 -71.833 41 -98.5c26.667 -37.333 65.167 -64.666 115.5 -81.999s118.5 -26 204.5 -26h643c140.667 0 236.667 22.667 288 68s77 127.666 77 246.999v41h170l1 -39l1 -35
c0 -93.333 -9.16699 -167.666 -27.5 -222.999s-48.833 -101 -91.5 -137c-39.333 -33.333 -95.166 -57.333 -167.499 -72s-189.166 -22 -350.499 -22h-467zM921.998 -0.00292969l105.999 0.000976562v-133h203c36.667 0 63.834 -9.83301 81.501 -29.5
s26.5 -50.167 26.5 -91.5v-70c0 -46.667 -8.16699 -79.834 -24.5 -99.501s-43.5 -29.5 -81.5 -29.5h-453v109h359c24 0 40.167 3.66699 48.5 11s12.5 20.666 12.5 39.999c0 18.667 -4.33301 31.834 -13 39.501s-24.667 11.5 -48 11.5h-166c-19.333 0 -33 5 -41 15
c-6.66699 10 -10 30.333 -10 61v166z" />
    <glyph glyph-name="Egrave" unicode="&#xc8;" horiz-adv-x="1741" 
d="M184 0v1489h1467v-166h-1286v-467h1232v-166h-1232v-524h1286v-166h-1467zM1090 1600h-137l-344 272h247z" />
    <glyph glyph-name="Eacute" unicode="&#xc9;" horiz-adv-x="1741" 
d="M184 0v1489h1467v-166h-1286v-467h1232v-166h-1232v-524h1286v-166h-1467zM758 1600l234 272h247l-344 -272h-137z" />
    <glyph glyph-name="Ecircumflex" unicode="&#xca;" horiz-adv-x="1741" 
d="M184 0v1489h1467v-166h-1286v-467h1232v-166h-1232v-524h1286v-166h-1467zM572 1600l237 272h230l237 -272h-135l-217 165l-217 -165h-135z" />
    <glyph glyph-name="Edieresis" unicode="&#xcb;" horiz-adv-x="1741" 
d="M184 0v1489h1467v-166h-1286v-467h1232v-166h-1232v-524h1286v-166h-1467zM1028 1624v195h207v-195h-207zM613 1624v195h207v-195h-207z" />
    <glyph glyph-name="Igrave" unicode="&#xcc;" horiz-adv-x="567" 
d="M371 0h-185v1489h185v-1489zM451 1600h-137l-344 272h247z" />
    <glyph glyph-name="Iacute" unicode="&#xcd;" horiz-adv-x="567" 
d="M371 0h-185v1489h185v-1489zM119 1600l234 272h247l-344 -272h-137z" />
    <glyph glyph-name="Icircumflex" unicode="&#xce;" horiz-adv-x="567" 
d="M371 0h-185v1489h185v-1489zM-67 1600l237 272h230l237 -272h-135l-217 165l-217 -165h-135z" />
    <glyph glyph-name="Idieresis" unicode="&#xcf;" horiz-adv-x="567" 
d="M371 0h-185v1489h185v-1489zM389 1624v195h207v-195h-207zM-26 1624v195h207v-195h-207z" />
    <glyph glyph-name="Eth" unicode="&#xd0;" horiz-adv-x="2114" 
d="M1427 154c143.333 0 238.329 22.3281 284.996 66.9951s70 141 70 289v76h-764v166h950v-242c0 -143.333 -9 -242.666 -27 -297.999s-48.667 -100.666 -92 -135.999c-39.333 -33.333 -95.166 -57.333 -167.499 -72s-189.166 -22 -350.499 -22h-532
c-148.667 0 -258.834 8 -330.501 24s-130.167 43.333 -175.5 82c-49.333 42 -85.166 97.167 -107.499 165.5s-33.5 159.833 -33.5 274.5v406c0 123.333 11 221.5 33 294.5s58 131.167 108 174.5c43.333 37.333 101.333 64 174 80s182.667 24 330 24h534
c242.667 0 407.167 -30.167 493.5 -90.5s129.5 -170.166 129.5 -329.499l-1 -48l-1 -31h-170v22c0 116.667 -25.5 198 -76.5 244s-141.5 69 -271.5 69h-711c-89.333 0 -158.166 -8.16699 -206.499 -24.5s-86.166 -44.166 -113.499 -83.499c-18 -26 -31.333 -58.333 -40 -97
s-13 -102.667 -13 -192v-28v-367c0 -88 4 -151.5 12 -190.5s21.667 -71.833 41 -98.5c26.667 -37.333 65.167 -64.666 115.5 -81.999s118.5 -26 204.5 -26h704zM706.996 1864h131.001c8 -41.333 29.5 -71.833 64.5 -91.5s86.5 -29.5 154.5 -29.5
c69.333 0 120.666 9.5 153.999 28.5s54.333 49.833 63 92.5h131c-11.333 -89.333 -44.833 -154.333 -100.5 -195s-138.167 -61 -247.5 -61c-110.667 0 -193.667 20.5 -249 61.5s-89 105.833 -101 194.5z" />
    <glyph glyph-name="Ntilde" unicode="&#xd1;" horiz-adv-x="2185" 
d="M367 0h-185v1489h291l1346 -1319v1319h184v-1489h-270l-1366 1339v-1339zM1440 1841c-12 -64 -37.834 -113.001 -77.501 -147.001s-90.167 -51 -151.5 -51h-15h-12c-6 1.33301 -10.333 2 -13 2l-43 8l-119 29l-17 3l-31 1c-20.667 0 -39.5 -5.66699 -56.5 -17
s-31.167 -27.666 -42.5 -48.999h-102c18.667 64 48.334 112.5 89.001 145.5s91.667 49.5 153 49.5c12 0 21.333 -0.666992 28 -2c10.667 0 20.667 -1.66699 30 -5l144 -32l22 -3l17 -1c24 0 44.333 6 61 18s28 29 34 51h102z" />
    <glyph glyph-name="Ograve" unicode="&#xd2;" horiz-adv-x="2175" 
d="M842 -18c-161.333 0 -279.5 7.83398 -354.5 23.501s-136.5 42.5 -184.5 80.5c-52 41.333 -90.167 97.166 -114.5 167.499s-36.5 161.833 -36.5 274.5v406c0 125.333 11.5 224 34.5 296s61.167 129.667 114.5 173c46 36 108.167 62.333 186.5 79s195.833 25 352.5 25h497
c156 0 273 -8 351 -24s141.5 -43.167 190.5 -81.5s85.667 -94 110 -167s36.5 -167.167 36.5 -282.5v-415c0 -116 -12 -210 -36 -282s-61.667 -128.333 -113 -169c-47.333 -38 -109 -65 -185 -81c-36.667 -7.33301 -84.667 -13 -144 -17s-129.333 -6 -210 -6h-495zM1425 1343
l-673 0.00195312c-97.333 0 -171.666 -8.16699 -222.999 -24.5s-91.666 -44.166 -120.999 -83.499c-21.333 -28 -36.333 -62 -45 -102s-13 -103 -13 -189v-26v-365c0 -90.667 4.16699 -154.834 12.5 -192.501s23.5 -70.5 45.5 -98.5
c28.667 -37.333 69.667 -64.666 123 -81.999s127 -26 221 -26h673c97.333 0 171.666 8.16699 222.999 24.5s91.666 44.166 120.999 83.499c20 26 34.333 58.333 43 97s13 95.667 13 171v50v387c0 78.667 -4.16699 136.167 -12.5 172.5s-22.833 68.166 -43.5 95.499
c-28.667 37.333 -69.667 64.666 -123 81.999s-127 26 -221 26zM1253 1600h-137l-344 272h247z" />
    <glyph glyph-name="Oacute" unicode="&#xd3;" horiz-adv-x="2175" 
d="M842 -18c-161.333 0 -279.5 7.83398 -354.5 23.501s-136.5 42.5 -184.5 80.5c-52 41.333 -90.167 97.166 -114.5 167.499s-36.5 161.833 -36.5 274.5v406c0 125.333 11.5 224 34.5 296s61.167 129.667 114.5 173c46 36 108.167 62.333 186.5 79s195.833 25 352.5 25h497
c156 0 273 -8 351 -24s141.5 -43.167 190.5 -81.5s85.667 -94 110 -167s36.5 -167.167 36.5 -282.5v-415c0 -116 -12 -210 -36 -282s-61.667 -128.333 -113 -169c-47.333 -38 -109 -65 -185 -81c-36.667 -7.33301 -84.667 -13 -144 -17s-129.333 -6 -210 -6h-495zM1425 1343
l-673 0.00195312c-97.333 0 -171.666 -8.16699 -222.999 -24.5s-91.666 -44.166 -120.999 -83.499c-21.333 -28 -36.333 -62 -45 -102s-13 -103 -13 -189v-26v-365c0 -90.667 4.16699 -154.834 12.5 -192.501s23.5 -70.5 45.5 -98.5
c28.667 -37.333 69.667 -64.666 123 -81.999s127 -26 221 -26h673c97.333 0 171.666 8.16699 222.999 24.5s91.666 44.166 120.999 83.499c20 26 34.333 58.333 43 97s13 95.667 13 171v50v387c0 78.667 -4.16699 136.167 -12.5 172.5s-22.833 68.166 -43.5 95.499
c-28.667 37.333 -69.667 64.666 -123 81.999s-127 26 -221 26zM921 1600l234 272h247l-344 -272h-137z" />
    <glyph glyph-name="Ocircumflex" unicode="&#xd4;" horiz-adv-x="2175" 
d="M842 -18c-161.333 0 -279.5 7.83398 -354.5 23.501s-136.5 42.5 -184.5 80.5c-52 41.333 -90.167 97.166 -114.5 167.499s-36.5 161.833 -36.5 274.5v406c0 125.333 11.5 224 34.5 296s61.167 129.667 114.5 173c46 36 108.167 62.333 186.5 79s195.833 25 352.5 25h497
c156 0 273 -8 351 -24s141.5 -43.167 190.5 -81.5s85.667 -94 110 -167s36.5 -167.167 36.5 -282.5v-415c0 -116 -12 -210 -36 -282s-61.667 -128.333 -113 -169c-47.333 -38 -109 -65 -185 -81c-36.667 -7.33301 -84.667 -13 -144 -17s-129.333 -6 -210 -6h-495zM1425 1343
l-673 0.00195312c-97.333 0 -171.666 -8.16699 -222.999 -24.5s-91.666 -44.166 -120.999 -83.499c-21.333 -28 -36.333 -62 -45 -102s-13 -103 -13 -189v-26v-365c0 -90.667 4.16699 -154.834 12.5 -192.501s23.5 -70.5 45.5 -98.5
c28.667 -37.333 69.667 -64.666 123 -81.999s127 -26 221 -26h673c97.333 0 171.666 8.16699 222.999 24.5s91.666 44.166 120.999 83.499c20 26 34.333 58.333 43 97s13 95.667 13 171v50v387c0 78.667 -4.16699 136.167 -12.5 172.5s-22.833 68.166 -43.5 95.499
c-28.667 37.333 -69.667 64.666 -123 81.999s-127 26 -221 26zM735 1600l237 272h230l237 -272h-135l-217 165l-217 -165h-135z" />
    <glyph glyph-name="Otilde" unicode="&#xd5;" horiz-adv-x="2175" 
d="M842 -18c-161.333 0 -279.5 7.83398 -354.5 23.501s-136.5 42.5 -184.5 80.5c-52 41.333 -90.167 97.166 -114.5 167.499s-36.5 161.833 -36.5 274.5v406c0 125.333 11.5 224 34.5 296s61.167 129.667 114.5 173c46 36 108.167 62.333 186.5 79s195.833 25 352.5 25h497
c156 0 273 -8 351 -24s141.5 -43.167 190.5 -81.5s85.667 -94 110 -167s36.5 -167.167 36.5 -282.5v-415c0 -116 -12 -210 -36 -282s-61.667 -128.333 -113 -169c-47.333 -38 -109 -65 -185 -81c-36.667 -7.33301 -84.667 -13 -144 -17s-129.333 -6 -210 -6h-495zM1425 1343
l-673 0.00195312c-97.333 0 -171.666 -8.16699 -222.999 -24.5s-91.666 -44.166 -120.999 -83.499c-21.333 -28 -36.333 -62 -45 -102s-13 -103 -13 -189v-26v-365c0 -90.667 4.16699 -154.834 12.5 -192.501s23.5 -70.5 45.5 -98.5
c28.667 -37.333 69.667 -64.666 123 -81.999s127 -26 221 -26h673c97.333 0 171.666 8.16699 222.999 24.5s91.666 44.166 120.999 83.499c20 26 34.333 58.333 43 97s13 95.667 13 171v50v387c0 78.667 -4.16699 136.167 -12.5 172.5s-22.833 68.166 -43.5 95.499
c-28.667 37.333 -69.667 64.666 -123 81.999s-127 26 -221 26zM1427 1841c-12 -64 -37.834 -113.001 -77.501 -147.001s-90.167 -51 -151.5 -51h-15h-12c-6 1.33301 -10.333 2 -13 2l-43 8l-119 29l-17 3l-31 1c-20.667 0 -39.5 -5.66699 -56.5 -17
s-31.167 -27.666 -42.5 -48.999h-102c18.667 64 48.334 112.5 89.001 145.5s91.667 49.5 153 49.5c12 0 21.333 -0.666992 28 -2c10.667 0 20.667 -1.66699 30 -5l144 -32l22 -3l17 -1c24 0 44.333 6 61 18s28 29 34 51h102z" />
    <glyph glyph-name="Odieresis" unicode="&#xd6;" horiz-adv-x="2175" 
d="M842 -18c-161.333 0 -279.5 7.83398 -354.5 23.501s-136.5 42.5 -184.5 80.5c-52 41.333 -90.167 97.166 -114.5 167.499s-36.5 161.833 -36.5 274.5v406c0 125.333 11.5 224 34.5 296s61.167 129.667 114.5 173c46 36 108.167 62.333 186.5 79s195.833 25 352.5 25h497
c156 0 273 -8 351 -24s141.5 -43.167 190.5 -81.5s85.667 -94 110 -167s36.5 -167.167 36.5 -282.5v-415c0 -116 -12 -210 -36 -282s-61.667 -128.333 -113 -169c-47.333 -38 -109 -65 -185 -81c-36.667 -7.33301 -84.667 -13 -144 -17s-129.333 -6 -210 -6h-495zM1425 1343
l-673 0.00195312c-97.333 0 -171.666 -8.16699 -222.999 -24.5s-91.666 -44.166 -120.999 -83.499c-21.333 -28 -36.333 -62 -45 -102s-13 -103 -13 -189v-26v-365c0 -90.667 4.16699 -154.834 12.5 -192.501s23.5 -70.5 45.5 -98.5
c28.667 -37.333 69.667 -64.666 123 -81.999s127 -26 221 -26h673c97.333 0 171.666 8.16699 222.999 24.5s91.666 44.166 120.999 83.499c20 26 34.333 58.333 43 97s13 95.667 13 171v50v387c0 78.667 -4.16699 136.167 -12.5 172.5s-22.833 68.166 -43.5 95.499
c-28.667 37.333 -69.667 64.666 -123 81.999s-127 26 -221 26zM1191 1624v195h207v-195h-207zM776 1624v195h207v-195h-207z" />
    <glyph glyph-name="multiply" unicode="&#xd7;" horiz-adv-x="1706" 
d="M858 692l475 477l82 -82l-475 -477l475 -475l-82 -82l-475 475l-477 -475l-80 82l475 475l-475 477l80 82z" />
    <glyph glyph-name="Oslash" unicode="&#xd8;" horiz-adv-x="2175" 
d="M840 -14c-154.667 0 -268.999 6.16797 -342.999 18.501s-129 34.166 -165 65.499l-168 -138l-94 119l157 119c-23.333 30 -42 76 -56 138c-6 30.667 -10.667 64.5 -14 101.5s-5 77.833 -5 122.5v404c0 64 2.66699 119.333 8 166s14.333 89 27 127
c23.333 72 61.333 130 114 174c46.667 37.333 108.667 64.333 186 81s194.333 25 351 25h499c68.667 0 129.667 -1.33301 183 -4s98.666 -7 135.999 -13c75.333 -10.667 130.333 -28.667 165 -54l164 131l90 -105l-144 -118c31.333 -42 54.5 -94.5 69.5 -157.5
s22.5 -138.167 22.5 -225.5v-422c0 -114 -11.667 -207 -35 -279s-61.333 -129.333 -114 -172c-47.333 -38 -109 -64.833 -185 -80.5s-193.333 -23.5 -352 -23.5h-497zM1778 1223l-1282 -1028c26.667 -12 60.334 -21.667 101.001 -29c40.667 -5.33301 91.667 -8 153 -8h675
c97.333 0 171.5 8.16699 222.5 24.5s90.833 44.166 119.5 83.499c21.333 28 36.333 61.667 45 101s13 102 13 188v27v405c0 66 -3.5 115.333 -10.5 148s-19.167 62 -36.5 88zM385 293.002l1277 1019c-24.667 11.333 -55.834 19.833 -93.501 25.5s-85.5 8.5 -143.5 8.5h-675
c-97.333 0 -171.5 -8.5 -222.5 -25.5s-91.5 -45.5 -121.5 -85.5c-19.333 -26 -33.5 -58.333 -42.5 -97s-13.5 -95 -13.5 -169v-49v-377c0 -82 2.5 -138.833 7.5 -170.5s14.167 -58.167 27.5 -79.5z" />
    <glyph glyph-name="Ugrave" unicode="&#xd9;" horiz-adv-x="2066" 
d="M807 -18c-148.667 0 -257.167 7.83203 -325.5 23.499s-125.166 42.5 -170.499 80.5c-47.333 40.667 -82.333 95.334 -105 164.001s-34 160 -34 274v965h190v-965c0 -78.667 4 -135.667 12 -171s21.333 -66.333 40 -93c25.333 -37.333 62.666 -64.666 111.999 -81.999
s116.333 -26 201 -26h612c86.667 0 154 8.5 202 25.5s85.333 44.5 112 82.5c18 26 31 56.667 39 92s12 92.666 12 171.999v51v914h190v-954c0 -114 -11 -207 -33 -279s-56.667 -128.667 -104 -170c-42 -38 -98.333 -65 -169 -81c-34 -7.33301 -78.167 -13 -132.5 -17
s-118.833 -6 -193.5 -6h-455zM1200 1600h-137l-344 272h247z" />
    <glyph glyph-name="Uacute" unicode="&#xda;" horiz-adv-x="2066" 
d="M807 -18c-148.667 0 -257.167 7.83203 -325.5 23.499s-125.166 42.5 -170.499 80.5c-47.333 40.667 -82.333 95.334 -105 164.001s-34 160 -34 274v965h190v-965c0 -78.667 4 -135.667 12 -171s21.333 -66.333 40 -93c25.333 -37.333 62.666 -64.666 111.999 -81.999
s116.333 -26 201 -26h612c86.667 0 154 8.5 202 25.5s85.333 44.5 112 82.5c18 26 31 56.667 39 92s12 92.666 12 171.999v51v914h190v-954c0 -114 -11 -207 -33 -279s-56.667 -128.667 -104 -170c-42 -38 -98.333 -65 -169 -81c-34 -7.33301 -78.167 -13 -132.5 -17
s-118.833 -6 -193.5 -6h-455zM868 1600l234 272h247l-344 -272h-137z" />
    <glyph glyph-name="Ucircumflex" unicode="&#xdb;" horiz-adv-x="2066" 
d="M807 -18c-148.667 0 -257.167 7.83203 -325.5 23.499s-125.166 42.5 -170.499 80.5c-47.333 40.667 -82.333 95.334 -105 164.001s-34 160 -34 274v965h190v-965c0 -78.667 4 -135.667 12 -171s21.333 -66.333 40 -93c25.333 -37.333 62.666 -64.666 111.999 -81.999
s116.333 -26 201 -26h612c86.667 0 154 8.5 202 25.5s85.333 44.5 112 82.5c18 26 31 56.667 39 92s12 92.666 12 171.999v51v914h190v-954c0 -114 -11 -207 -33 -279s-56.667 -128.667 -104 -170c-42 -38 -98.333 -65 -169 -81c-34 -7.33301 -78.167 -13 -132.5 -17
s-118.833 -6 -193.5 -6h-455zM682 1600l237 272h230l237 -272h-135l-217 165l-217 -165h-135z" />
    <glyph glyph-name="Udieresis" unicode="&#xdc;" horiz-adv-x="2066" 
d="M807 -18c-148.667 0 -257.167 7.83203 -325.5 23.499s-125.166 42.5 -170.499 80.5c-47.333 40.667 -82.333 95.334 -105 164.001s-34 160 -34 274v965h190v-965c0 -78.667 4 -135.667 12 -171s21.333 -66.333 40 -93c25.333 -37.333 62.666 -64.666 111.999 -81.999
s116.333 -26 201 -26h612c86.667 0 154 8.5 202 25.5s85.333 44.5 112 82.5c18 26 31 56.667 39 92s12 92.666 12 171.999v51v914h190v-954c0 -114 -11 -207 -33 -279s-56.667 -128.667 -104 -170c-42 -38 -98.333 -65 -169 -81c-34 -7.33301 -78.167 -13 -132.5 -17
s-118.833 -6 -193.5 -6h-455zM1138 1624v195h207v-195h-207zM723 1624v195h207v-195h-207z" />
    <glyph glyph-name="Yacute" unicode="&#xdd;" horiz-adv-x="567" 
d="M371 0h-185v1489h185v-1489zM176 1626v205h218v-205h-218z" />
    <glyph glyph-name="Thorn" unicode="&#xde;" horiz-adv-x="1954" 
d="M154 485l178.001 -0.00292969l-2 -29l-2 -59c0 -93.333 30.833 -158.333 92.5 -195s176.167 -55 343.5 -55h389c201.333 0 332.833 20 394.5 60s92.5 116.333 92.5 229c0 94 -21.333 158.5 -64 193.5s-130.334 52.5 -263.001 52.5h-629c-198 0 -337.333 30.833 -418 92.5
s-121 167.5 -121 317.5c0 153.333 45.833 260.833 137.5 322.5s259.5 92.5 503.5 92.5h338c183.333 0 312.5 -7 387.5 -21s133.167 -38.333 174.5 -73c34 -29.333 59.167 -68.166 75.5 -116.499s24.5 -107.833 24.5 -178.5v-43h-178v23c0 98.667 -23.5 165 -70.5 199
s-146.5 51 -298.5 51h-508c-154.667 0 -258.834 -17.667 -312.501 -53s-80.5 -100.333 -80.5 -195c0 -96 26 -162 78 -198s161 -54 327 -54h535c60.667 0 111.834 -1 153.501 -3s78.167 -5.66699 109.5 -11c59.333 -9.33301 106.666 -24.666 141.999 -45.999
c50.667 -30 87 -72 109 -126s33 -132.667 33 -236c0 -165.333 -44.5 -280.666 -133.5 -345.999s-249.5 -98 -481.5 -98h-505c-199.333 0 -341.666 30.167 -426.999 90.5s-128 160.5 -128 300.5l3 95zM871.001 -0.00292969l105.999 0.000976562v-133h203
c36.667 0 63.834 -9.83301 81.501 -29.5s26.5 -50.167 26.5 -91.5v-70c0 -46.667 -8.16699 -79.834 -24.5 -99.501s-43.5 -29.5 -81.5 -29.5h-453v109h359c24 0 40.167 3.66699 48.5 11s12.5 20.666 12.5 39.999c0 18.667 -4.33301 31.834 -13 39.501s-24.667 11.5 -48 11.5
h-166c-19.333 0 -33 5 -41 15c-6.66699 10 -10 30.333 -10 61v166z" />
    <glyph glyph-name="germandbls" unicode="&#xdf;" horiz-adv-x="1602" 
d="M178 1085c0 136 43.668 237.328 131.001 303.995s220.666 100 399.999 100h262c154.667 0 268.667 -31.667 342 -95s110 -161.333 110 -294c0 -81.333 -16 -145.166 -48 -191.499s-83.333 -79.5 -154 -99.5c95.333 -10 163.5 -45.833 204.5 -107.5
s61.5 -160.167 61.5 -295.5c0 -107.333 -7.33301 -182.166 -22 -224.499s-41.667 -78.166 -81 -107.499c-38 -31.333 -91.167 -54.166 -159.5 -68.499s-156.166 -21.5 -263.499 -21.5c-21.333 0 -51.333 0.666992 -90 2s-66.667 2 -84 2c-28 0 -49.667 0.833008 -65 2.5
s-37.666 4.83398 -66.999 9.50098v147c42 -8.66699 85 -15.667 129 -21c22.667 -2 45.334 -3.66699 68.001 -5s46.667 -2 72 -2c42 0 78.667 1 110 3s60.666 5.66699 87.999 11c51.333 10 93 25 125 45c24 16 41 41 51 75s15 98.333 15 193
c0 115.333 -21.833 192.333 -65.5 231s-129.834 58 -258.501 58h-43h-280v142h303c124 0 202.667 15.5 236 46.5s50 89.833 50 176.5c0 94 -23.833 158.833 -71.5 194.5s-143.834 53.5 -288.501 53.5h-193c-138.667 0 -233 -21.667 -283 -65s-75 -122 -75 -236v-1047h-166
v1085z" />
    <glyph glyph-name="agrave" unicode="&#xe0;" horiz-adv-x="1550" 
d="M1231 279l-0.00195312 92c0 50.667 -24.333 86.5 -73 107.5s-139.667 31.5 -273 31.5h-252c-145.333 0 -239.666 -11.833 -282.999 -35.5s-65 -69.834 -65 -138.501c0 -79.333 20.333 -131.666 61 -156.999s136.334 -38 287.001 -38h252c135.333 0 226.833 10 274.5 30
s71.5 56 71.5 108zM927.998 1067c162 0 281.335 -31.332 358.002 -93.999s115 -160.334 115 -293.001v-680h-160v139c-26.667 -54.667 -67.5 -93.834 -122.5 -117.501s-137.833 -35.5 -248.5 -35.5h-280c-180 0 -306.333 25.333 -379 76s-109 139.334 -109 266.001
c0 118.667 36 202.667 108 252c35.333 24 84.666 42.167 147.999 54.5s139.333 18.5 228 18.5h295c88 0 161.167 -10 219.5 -30s105.166 -51.667 140.499 -95v144c0 88 -24 149.5 -72 184.5s-137.333 52.5 -268 52.5h-250c-128.667 0 -211 -9.66699 -247 -29
s-54 -57.333 -54 -114v-31h-176v29c0 106 35.167 183 105.5 231s185.5 72 345.5 72h303zM942 1176h-137l-344 272h247z" />
    <glyph glyph-name="aacute" unicode="&#xe1;" horiz-adv-x="1550" 
d="M1231 279l-0.00195312 92c0 50.667 -24.333 86.5 -73 107.5s-139.667 31.5 -273 31.5h-252c-145.333 0 -239.666 -11.833 -282.999 -35.5s-65 -69.834 -65 -138.501c0 -79.333 20.333 -131.666 61 -156.999s136.334 -38 287.001 -38h252c135.333 0 226.833 10 274.5 30
s71.5 56 71.5 108zM927.998 1067c162 0 281.335 -31.332 358.002 -93.999s115 -160.334 115 -293.001v-680h-160v139c-26.667 -54.667 -67.5 -93.834 -122.5 -117.501s-137.833 -35.5 -248.5 -35.5h-280c-180 0 -306.333 25.333 -379 76s-109 139.334 -109 266.001
c0 118.667 36 202.667 108 252c35.333 24 84.666 42.167 147.999 54.5s139.333 18.5 228 18.5h295c88 0 161.167 -10 219.5 -30s105.166 -51.667 140.499 -95v144c0 88 -24 149.5 -72 184.5s-137.333 52.5 -268 52.5h-250c-128.667 0 -211 -9.66699 -247 -29
s-54 -57.333 -54 -114v-31h-176v29c0 106 35.167 183 105.5 231s185.5 72 345.5 72h303zM610 1176l234 272h247l-344 -272h-137z" />
    <glyph glyph-name="acircumflex" unicode="&#xe2;" horiz-adv-x="1550" 
d="M1231 279l-0.00195312 92c0 50.667 -24.333 86.5 -73 107.5s-139.667 31.5 -273 31.5h-252c-145.333 0 -239.666 -11.833 -282.999 -35.5s-65 -69.834 -65 -138.501c0 -79.333 20.333 -131.666 61 -156.999s136.334 -38 287.001 -38h252c135.333 0 226.833 10 274.5 30
s71.5 56 71.5 108zM927.998 1067c162 0 281.335 -31.332 358.002 -93.999s115 -160.334 115 -293.001v-680h-160v139c-26.667 -54.667 -67.5 -93.834 -122.5 -117.501s-137.833 -35.5 -248.5 -35.5h-280c-180 0 -306.333 25.333 -379 76s-109 139.334 -109 266.001
c0 118.667 36 202.667 108 252c35.333 24 84.666 42.167 147.999 54.5s139.333 18.5 228 18.5h295c88 0 161.167 -10 219.5 -30s105.166 -51.667 140.499 -95v144c0 88 -24 149.5 -72 184.5s-137.333 52.5 -268 52.5h-250c-128.667 0 -211 -9.66699 -247 -29
s-54 -57.333 -54 -114v-31h-176v29c0 106 35.167 183 105.5 231s185.5 72 345.5 72h303zM424 1176l237 272h230l237 -272h-135l-217 165l-217 -165h-135z" />
    <glyph glyph-name="atilde" unicode="&#xe3;" horiz-adv-x="1550" 
d="M1231 279l-0.00195312 92c0 50.667 -24.333 86.5 -73 107.5s-139.667 31.5 -273 31.5h-252c-145.333 0 -239.666 -11.833 -282.999 -35.5s-65 -69.834 -65 -138.501c0 -79.333 20.333 -131.666 61 -156.999s136.334 -38 287.001 -38h252c135.333 0 226.833 10 274.5 30
s71.5 56 71.5 108zM927.998 1067c162 0 281.335 -31.332 358.002 -93.999s115 -160.334 115 -293.001v-680h-160v139c-26.667 -54.667 -67.5 -93.834 -122.5 -117.501s-137.833 -35.5 -248.5 -35.5h-280c-180 0 -306.333 25.333 -379 76s-109 139.334 -109 266.001
c0 118.667 36 202.667 108 252c35.333 24 84.666 42.167 147.999 54.5s139.333 18.5 228 18.5h295c88 0 161.167 -10 219.5 -30s105.166 -51.667 140.499 -95v144c0 88 -24 149.5 -72 184.5s-137.333 52.5 -268 52.5h-250c-128.667 0 -211 -9.66699 -247 -29
s-54 -57.333 -54 -114v-31h-176v29c0 106 35.167 183 105.5 231s185.5 72 345.5 72h303zM1116 1417c-12 -64 -37.834 -113.001 -77.501 -147.001s-90.167 -51 -151.5 -51h-15h-12c-6 1.33301 -10.333 2 -13 2l-43 8l-119 29l-17 3l-31 1c-20.667 0 -39.5 -5.66699 -56.5 -17
s-31.167 -27.666 -42.5 -48.999h-102c18.667 64 48.334 112.5 89.001 145.5s91.667 49.5 153 49.5c12 0 21.333 -0.666992 28 -2c10.667 0 20.667 -1.66699 30 -5l144 -32l22 -3l17 -1c24 0 44.333 6 61 18s28 29 34 51h102z" />
    <glyph glyph-name="adieresis" unicode="&#xe4;" horiz-adv-x="1550" 
d="M1231 279l-0.00195312 92c0 50.667 -24.333 86.5 -73 107.5s-139.667 31.5 -273 31.5h-252c-145.333 0 -239.666 -11.833 -282.999 -35.5s-65 -69.834 -65 -138.501c0 -79.333 20.333 -131.666 61 -156.999s136.334 -38 287.001 -38h252c135.333 0 226.833 10 274.5 30
s71.5 56 71.5 108zM927.998 1067c162 0 281.335 -31.332 358.002 -93.999s115 -160.334 115 -293.001v-680h-160v139c-26.667 -54.667 -67.5 -93.834 -122.5 -117.501s-137.833 -35.5 -248.5 -35.5h-280c-180 0 -306.333 25.333 -379 76s-109 139.334 -109 266.001
c0 118.667 36 202.667 108 252c35.333 24 84.666 42.167 147.999 54.5s139.333 18.5 228 18.5h295c88 0 161.167 -10 219.5 -30s105.166 -51.667 140.499 -95v144c0 88 -24 149.5 -72 184.5s-137.333 52.5 -268 52.5h-250c-128.667 0 -211 -9.66699 -247 -29
s-54 -57.333 -54 -114v-31h-176v29c0 106 35.167 183 105.5 231s185.5 72 345.5 72h303zM880 1200v195h207v-195h-207zM465 1200v195h207v-195h-207z" />
    <glyph glyph-name="aring" unicode="&#xe5;" horiz-adv-x="1550" 
d="M911 1335c0 39.333 -11.002 69.001 -33.002 89.001c-22 18.667 -56 28 -102 28c-45.333 0 -78.833 -9.33301 -100.5 -28s-32.5 -48.334 -32.5 -89.001c0 -40 10.667 -69.333 32 -88c11.333 -9.33301 24.833 -16.333 40.5 -21s35.834 -7 60.501 -7
c46.667 0 80.834 9.16699 102.501 27.5s32.5 47.833 32.5 88.5zM1055 1341c0 -64 -24.333 -114.001 -73 -150.001s-117.334 -54 -206.001 -54s-156.834 17.833 -204.501 53.5s-71.5 85.834 -71.5 150.501c0 66 23.833 116.333 71.5 151s115.834 52 204.501 52
c90.667 0 159.834 -17.167 207.501 -51.5s71.5 -84.833 71.5 -151.5zM1231 279l-0.00195312 92c0 50.667 -24.333 86.5 -73 107.5s-139.667 31.5 -273 31.5h-252c-145.333 0 -239.666 -11.833 -282.999 -35.5s-65 -69.834 -65 -138.501
c0 -79.333 20.333 -131.666 61 -156.999s136.334 -38 287.001 -38h252c135.333 0 226.833 10 274.5 30s71.5 56 71.5 108zM927.996 1067c162 0 281.335 -31.332 358.002 -93.999s115 -160.334 115 -293.001v-680h-160v139c-26.667 -54.667 -67.5 -93.834 -122.5 -117.501
s-137.833 -35.5 -248.5 -35.5h-280c-180 0 -306.333 25.333 -379 76s-109 139.334 -109 266.001c0 118.667 36 202.667 108 252c35.333 24 84.666 42.167 147.999 54.5s139.333 18.5 228 18.5h295c88 0 161.167 -10 219.5 -30s105.166 -51.667 140.499 -95v144
c0 88 -24 149.5 -72 184.5s-137.333 52.5 -268 52.5h-250c-128.667 0 -211 -9.66699 -247 -29s-54 -57.333 -54 -114v-31h-176v29c0 106 35.167 183 105.5 231s185.5 72 345.5 72h303z" />
    <glyph glyph-name="ae" unicode="&#xe6;" horiz-adv-x="2669" 
d="M1311 164c-40 -65.333 -88.499 -111.334 -145.499 -138.001s-155.5 -40 -295.5 -40h-280c-180.667 0 -306.834 25.5 -378.501 76.5s-107.5 140.833 -107.5 269.5c0 118.667 35.833 201.834 107.5 249.501s196.5 71.5 374.5 71.5h295c88 0 161.167 -10 219.5 -30
s105.166 -51.667 140.499 -95v144c0 88 -24 149.5 -72 184.5s-137.333 52.5 -268 52.5h-250c-130.667 0 -213.5 -9.33301 -248.5 -28s-52.5 -57 -52.5 -115v-31h-176v29c0 106 35.167 183 105.5 231s185.5 72 345.5 72h303c116 0 203.667 -11.667 263 -35
s103.333 -63 132 -119c36.667 53.333 88.334 92 155.001 116c34 12 74.5 21.333 121.5 28s100.833 10 161.5 10h262c198.667 0 337.167 -36.667 415.5 -110s117.5 -202 117.5 -386l-1 -50l-1 -31l-1153 -1v-59c0 -107.333 23.833 -182.333 71.5 -225s131.5 -64 251.5 -64h39
h277c122 0 209.5 13.5 262.5 40.5s79.5 70.833 79.5 131.5v6h172v-26c0 -100 -40.333 -176.167 -121 -228.5s-199.334 -78.5 -356.001 -78.5h-316c-152 0 -261.167 13.333 -327.5 40s-107.166 72.667 -122.499 138zM1403 638.999h977v25c0 92.667 -24.167 157 -72.5 193
s-144.5 54 -288.5 54h-258c-132 0 -224.667 -20.333 -278 -61s-80 -111 -80 -211zM1231 278.999l-0.00195312 92c0 50.667 -24.333 86.5 -73 107.5s-139.667 31.5 -273 31.5h-252c-145.333 0 -239.666 -11.833 -282.999 -35.5s-65 -69.834 -65 -138.501
c0 -79.333 20.333 -131.666 61 -156.999s136.334 -38 287.001 -38h252c135.333 0 226.833 10 274.5 30s71.5 56 71.5 108z" />
    <glyph glyph-name="ccedilla" unicode="&#xe7;" horiz-adv-x="1505" 
d="M1229 688c0 87.333 -21 146.668 -63 178.001s-134.333 47 -277 47h-246c-124 0 -212 -18.333 -264 -55s-78 -97.334 -78 -182.001v-244c0 -109.333 24.167 -185.166 72.5 -227.499s139.5 -63.5 273.5 -63.5h250c132.667 0 223.167 18 271.5 54s72.5 99.333 72.5 190v12
h158v-28c0 -133.333 -37 -230.5 -111 -291.5s-191.333 -91.5 -352 -91.5h-301c-170 0 -296.167 33.167 -378.5 99.5s-123.5 168.833 -123.5 307.5v266c0 137.333 41.167 239.666 123.5 306.999s208.5 101 378.5 101h250c179.333 0 307.333 -27.333 384 -82
s115 -144.667 115 -270v-27h-155zM656 0.00195312l105.999 0.000976562v-133h203c36.667 0 63.834 -9.83301 81.501 -29.5s26.5 -50.167 26.5 -91.5v-70c0 -46.667 -8.16699 -79.834 -24.5 -99.501s-43.5 -29.5 -81.5 -29.5h-453v109h359c24 0 40.167 3.66699 48.5 11
s12.5 20.666 12.5 39.999c0 18.667 -4.33301 31.834 -13 39.501s-24.667 11.5 -48 11.5h-166c-19.333 0 -33 5 -41 15c-6.66699 10 -10 30.333 -10 61v166z" />
    <glyph glyph-name="egrave" unicode="&#xe8;" horiz-adv-x="1569" 
d="M924 1067c198 0 335.833 -36.6689 413.5 -110.002s116.5 -202 116.5 -386l-1 -50l-1 -31l-1151 -1v-57c0 -110 27 -187.333 81 -232s148 -67 282 -67h274c116.667 0 202.834 14.5 258.501 43.5s83.5 73.833 83.5 134.5v11h174v-27
c0 -101.333 -40.333 -178.166 -121 -230.499s-199.334 -78.5 -356.001 -78.5h-315c-188 0 -323.167 35 -405.5 105s-123.5 186.333 -123.5 349v168c0 164.667 40.667 282.334 122 353.001s217 106 407 106h262zM301 640.998h977v25c0 93.333 -24.167 157.833 -72.5 193.5
s-143.5 53.5 -285.5 53.5h-261c-132.667 0 -225.5 -20.5 -278.5 -61.5s-79.5 -111.167 -79.5 -210.5zM952 1176h-137l-344 272h247z" />
    <glyph glyph-name="eacute" unicode="&#xe9;" horiz-adv-x="1569" 
d="M924 1067c198 0 335.833 -36.6689 413.5 -110.002s116.5 -202 116.5 -386l-1 -50l-1 -31l-1151 -1v-57c0 -110 27 -187.333 81 -232s148 -67 282 -67h274c116.667 0 202.834 14.5 258.501 43.5s83.5 73.833 83.5 134.5v11h174v-27
c0 -101.333 -40.333 -178.166 -121 -230.499s-199.334 -78.5 -356.001 -78.5h-315c-188 0 -323.167 35 -405.5 105s-123.5 186.333 -123.5 349v168c0 164.667 40.667 282.334 122 353.001s217 106 407 106h262zM301 640.998h977v25c0 93.333 -24.167 157.833 -72.5 193.5
s-143.5 53.5 -285.5 53.5h-261c-132.667 0 -225.5 -20.5 -278.5 -61.5s-79.5 -111.167 -79.5 -210.5zM620 1176l234 272h247l-344 -272h-137z" />
    <glyph glyph-name="ecircumflex" unicode="&#xea;" horiz-adv-x="1569" 
d="M924 1067c198 0 335.833 -36.6689 413.5 -110.002s116.5 -202 116.5 -386l-1 -50l-1 -31l-1151 -1v-57c0 -110 27 -187.333 81 -232s148 -67 282 -67h274c116.667 0 202.834 14.5 258.501 43.5s83.5 73.833 83.5 134.5v11h174v-27
c0 -101.333 -40.333 -178.166 -121 -230.499s-199.334 -78.5 -356.001 -78.5h-315c-188 0 -323.167 35 -405.5 105s-123.5 186.333 -123.5 349v168c0 164.667 40.667 282.334 122 353.001s217 106 407 106h262zM301 640.998h977v25c0 93.333 -24.167 157.833 -72.5 193.5
s-143.5 53.5 -285.5 53.5h-261c-132.667 0 -225.5 -20.5 -278.5 -61.5s-79.5 -111.167 -79.5 -210.5zM434 1176l237 272h230l237 -272h-135l-217 165l-217 -165h-135z" />
    <glyph glyph-name="edieresis" unicode="&#xeb;" horiz-adv-x="1569" 
d="M924 1067c198 0 335.833 -36.6689 413.5 -110.002s116.5 -202 116.5 -386l-1 -50l-1 -31l-1151 -1v-57c0 -110 27 -187.333 81 -232s148 -67 282 -67h274c116.667 0 202.834 14.5 258.501 43.5s83.5 73.833 83.5 134.5v11h174v-27
c0 -101.333 -40.333 -178.166 -121 -230.499s-199.334 -78.5 -356.001 -78.5h-315c-188 0 -323.167 35 -405.5 105s-123.5 186.333 -123.5 349v168c0 164.667 40.667 282.334 122 353.001s217 106 407 106h262zM301 640.998h977v25c0 93.333 -24.167 157.833 -72.5 193.5
s-143.5 53.5 -285.5 53.5h-261c-132.667 0 -225.5 -20.5 -278.5 -61.5s-79.5 -111.167 -79.5 -210.5zM890 1200v195h207v-195h-207zM475 1200v195h207v-195h-207z" />
    <glyph glyph-name="igrave" unicode="&#xec;" horiz-adv-x="512" 
d="M172 0v1053h168v-1053h-168zM422 1176h-137l-344 272h247z" />
    <glyph glyph-name="iacute" unicode="&#xed;" horiz-adv-x="512" 
d="M172 0v1053h168v-1053h-168zM90 1176l234 272h247l-344 -272h-137z" />
    <glyph glyph-name="icircumflex" unicode="&#xee;" horiz-adv-x="512" 
d="M172 0v1053h168v-1053h-168zM-96 1176l237 272h230l237 -272h-135l-217 165l-217 -165h-135z" />
    <glyph glyph-name="idieresis" unicode="&#xef;" horiz-adv-x="512" 
d="M172 0v1053h168v-1053h-168zM360 1200v195h207v-195h-207zM-55 1200v195h207v-195h-207z" />
    <glyph glyph-name="eth" unicode="&#xf0;" horiz-adv-x="1587" 
d="M659 205h262.999c138.667 0 233.334 19.333 284.001 58s76 108 76 208v176c0 99.333 -25.333 168.333 -76 207c-24.667 19.333 -60.667 34 -108 44s-106 15 -176 15h-263c-139.333 0 -234.166 -19.167 -284.499 -57.5s-75.5 -107.833 -75.5 -208.5v-176
c0 -99.333 25.167 -168.5 75.5 -207.5s145.166 -58.5 284.499 -58.5zM1440 18c0 -129.333 -41.832 -226.832 -125.499 -292.499s-208.5 -98.5 -374.5 -98.5h-309c-162.667 0 -283.667 28.667 -363 86c-40 29.333 -70.833 66.166 -92.5 110.499s-32.5 96.5 -32.5 156.5
l166 -1c0 -68.667 26 -117.5 78 -146.5s142.667 -43.5 272 -43.5h263c138.667 0 232.667 17.333 282 52s74 98.667 74 192v166c-37.333 -53.333 -79 -91.333 -125 -114s-111 -34 -195 -34h-327c-176.667 0 -303.834 34.667 -381.501 104s-116.5 183 -116.5 341v127
c0 156 39.5 269 118.5 339s207.5 105 385.5 105h231c138 0 234.5 -12.167 289.5 -36.5s97.833 -66.833 128.5 -127.5v150h154v-1035zM445 1440h131.001c8 -41.333 29.5 -71.833 64.5 -91.5s86.5 -29.5 154.5 -29.5c69.333 0 120.666 9.5 153.999 28.5s54.333 49.833 63 92.5
h131c-11.333 -89.333 -44.833 -154.333 -100.5 -195s-138.167 -61 -247.5 -61c-110.667 0 -193.667 20.5 -249 61.5s-89 105.833 -101 194.5z" />
    <glyph glyph-name="ntilde" unicode="&#xf1;" horiz-adv-x="1602" 
d="M164 0l0.000976562 1053h166v-195c38.667 74 99.667 127.333 183 160s200.333 49 351 49c217.333 0 368.666 -28.167 453.999 -84.5s128 -155.166 128 -296.499v-686h-166v641c0 62.667 -5.16699 108 -15.5 136s-28.5 51 -54.5 69
c-29.333 21.333 -77.833 37.5 -145.5 48.5s-150.167 16.5 -247.5 16.5c-176.667 0 -302 -21.667 -376 -65s-111 -115.666 -111 -216.999v-629h-166zM1178 1417c-12 -64 -37.834 -113.001 -77.501 -147.001s-90.167 -51 -151.5 -51h-15h-12c-6 1.33301 -10.333 2 -13 2l-43 8
l-119 29l-17 3l-31 1c-20.667 0 -39.5 -5.66699 -56.5 -17s-31.167 -27.666 -42.5 -48.999h-102c18.667 64 48.334 112.5 89.001 145.5s91.667 49.5 153 49.5c12 0 21.333 -0.666992 28 -2c10.667 0 20.667 -1.66699 30 -5l144 -32l22 -3l17 -1c24 0 44.333 6 61 18
s28 29 34 51h102z" />
    <glyph glyph-name="ograve" unicode="&#xf2;" horiz-adv-x="1636" 
d="M637 -14c-181.333 0 -310.666 35.5 -387.999 106.5s-116 190.5 -116 358.5v165c0 160.667 39 276 117 346s207 105 387 105h362c178 0 306.5 -34.833 385.5 -104.5s118.5 -185.167 118.5 -346.5v-165c0 -168 -38.833 -287.5 -116.5 -358.5
s-206.834 -106.5 -387.501 -106.5h-362zM680 141h273.998c152.667 0 254.334 22.333 305.001 67s76 131.667 76 261v125c0 124.667 -25.167 209 -75.5 253s-152.166 66 -305.499 66h-274c-151.333 0 -252.333 -21.833 -303 -65.5s-76 -128.167 -76 -253.5v-125
c0 -128.667 25.167 -215.5 75.5 -260.5s151.5 -67.5 303.5 -67.5zM984.998 1176h-137l-344 272h247z" />
    <glyph glyph-name="oacute" unicode="&#xf3;" horiz-adv-x="1636" 
d="M637 -14c-181.333 0 -310.666 35.5 -387.999 106.5s-116 190.5 -116 358.5v165c0 160.667 39 276 117 346s207 105 387 105h362c178 0 306.5 -34.833 385.5 -104.5s118.5 -185.167 118.5 -346.5v-165c0 -168 -38.833 -287.5 -116.5 -358.5
s-206.834 -106.5 -387.501 -106.5h-362zM680 141h273.998c152.667 0 254.334 22.333 305.001 67s76 131.667 76 261v125c0 124.667 -25.167 209 -75.5 253s-152.166 66 -305.499 66h-274c-151.333 0 -252.333 -21.833 -303 -65.5s-76 -128.167 -76 -253.5v-125
c0 -128.667 25.167 -215.5 75.5 -260.5s151.5 -67.5 303.5 -67.5zM652.998 1176l234 272h247l-344 -272h-137z" />
    <glyph glyph-name="ocircumflex" unicode="&#xf4;" horiz-adv-x="1636" 
d="M637 -14c-181.333 0 -310.666 35.5 -387.999 106.5s-116 190.5 -116 358.5v165c0 160.667 39 276 117 346s207 105 387 105h362c178 0 306.5 -34.833 385.5 -104.5s118.5 -185.167 118.5 -346.5v-165c0 -168 -38.833 -287.5 -116.5 -358.5
s-206.834 -106.5 -387.501 -106.5h-362zM680 141h273.998c152.667 0 254.334 22.333 305.001 67s76 131.667 76 261v125c0 124.667 -25.167 209 -75.5 253s-152.166 66 -305.499 66h-274c-151.333 0 -252.333 -21.833 -303 -65.5s-76 -128.167 -76 -253.5v-125
c0 -128.667 25.167 -215.5 75.5 -260.5s151.5 -67.5 303.5 -67.5zM466.998 1176l237 272h230l237 -272h-135l-217 165l-217 -165h-135z" />
    <glyph glyph-name="otilde" unicode="&#xf5;" horiz-adv-x="1636" 
d="M637 -14c-181.333 0 -310.666 35.5 -387.999 106.5s-116 190.5 -116 358.5v165c0 160.667 39 276 117 346s207 105 387 105h362c178 0 306.5 -34.833 385.5 -104.5s118.5 -185.167 118.5 -346.5v-165c0 -168 -38.833 -287.5 -116.5 -358.5
s-206.834 -106.5 -387.501 -106.5h-362zM680 141h273.998c152.667 0 254.334 22.333 305.001 67s76 131.667 76 261v125c0 124.667 -25.167 209 -75.5 253s-152.166 66 -305.499 66h-274c-151.333 0 -252.333 -21.833 -303 -65.5s-76 -128.167 -76 -253.5v-125
c0 -128.667 25.167 -215.5 75.5 -260.5s151.5 -67.5 303.5 -67.5zM1159 1417c-12 -64 -37.834 -113.001 -77.501 -147.001s-90.167 -51 -151.5 -51h-15h-12c-6 1.33301 -10.333 2 -13 2l-43 8l-119 29l-17 3l-31 1c-20.667 0 -39.5 -5.66699 -56.5 -17
s-31.167 -27.666 -42.5 -48.999h-102c18.667 64 48.334 112.5 89.001 145.5s91.667 49.5 153 49.5c12 0 21.333 -0.666992 28 -2c10.667 0 20.667 -1.66699 30 -5l144 -32l22 -3l17 -1c24 0 44.333 6 61 18s28 29 34 51h102z" />
    <glyph glyph-name="odieresis" unicode="&#xf6;" horiz-adv-x="1636" 
d="M637 -14c-181.333 0 -310.666 35.5 -387.999 106.5s-116 190.5 -116 358.5v165c0 160.667 39 276 117 346s207 105 387 105h362c178 0 306.5 -34.833 385.5 -104.5s118.5 -185.167 118.5 -346.5v-165c0 -168 -38.833 -287.5 -116.5 -358.5
s-206.834 -106.5 -387.501 -106.5h-362zM680 141h273.998c152.667 0 254.334 22.333 305.001 67s76 131.667 76 261v125c0 124.667 -25.167 209 -75.5 253s-152.166 66 -305.499 66h-274c-151.333 0 -252.333 -21.833 -303 -65.5s-76 -128.167 -76 -253.5v-125
c0 -128.667 25.167 -215.5 75.5 -260.5s151.5 -67.5 303.5 -67.5zM922.998 1200v195h207v-195h-207zM507.998 1200v195h207v-195h-207z" />
    <glyph glyph-name="divide" unicode="&#xf7;" horiz-adv-x="1706" 
d="M854 365c31.333 0 58.333 -11.333 81 -34s34 -49.667 34 -81s-11.333 -58.333 -34 -81s-49.667 -34 -81 -34s-58.333 11 -81 33s-34 49.333 -34 82c0 32 11.333 59.167 34 81.5s49.667 33.5 81 33.5zM1452 670v-117h-1198v117h1198zM854 1085
c32 0 59.167 -11.333 81.5 -34s33.5 -49.334 33.5 -80.001c0 -32 -11.167 -59.167 -33.5 -81.5s-49.5 -33.5 -81.5 -33.5c-31.333 0 -58.333 11 -81 33s-34 49.333 -34 82c0 30.667 11.333 57.334 34 80.001s49.667 34 81 34z" />
    <glyph glyph-name="oslash" unicode="&#xf8;" horiz-adv-x="1636" 
d="M430 172c24 -10 55.332 -17.999 93.999 -23.999c19.333 -2 41.833 -3.66699 67.5 -5s55.167 -2 88.5 -2h274c154 0 256 22 306 66s75 130.667 75 260v154c0 46.667 -4.16699 85.167 -12.5 115.5s-21.166 55.166 -38.499 74.499zM339.999 252.001l852.001 633.001
c-23.333 7.33301 -55.333 13.666 -96 18.999c-19.333 2 -40.5 3.66699 -63.5 5s-49.167 2 -78.5 2h-274c-151.333 0 -252.333 -21.833 -303 -65.5s-76 -128.167 -76 -253.5v-162c0 -42.667 3.16699 -79 9.5 -109s16.166 -53 29.499 -69zM1503 379.002
c0 -130 -42.333 -228 -127 -294s-210.334 -99 -377.001 -99h-364c-80 0 -148.5 6.16699 -205.5 18.5s-105.167 31.833 -144.5 58.5l-164 -122l-72 94l150 110c-23.333 33.333 -40.166 69 -50.499 107s-15.5 84.333 -15.5 139v225c0 160.667 39 276 117 346s207 105 387 105
h362c79.333 0 150 -7.33301 212 -22s103.333 -32 124 -52l162 121l68 -90l-142 -106c27.333 -30.667 47.5 -66.667 60.5 -108s19.5 -87.333 19.5 -138v-293z" />
    <glyph glyph-name="ugrave" unicode="&#xf9;" horiz-adv-x="1602" 
d="M1438 1053l-0.000976562 -1053h-160v199c-42 -77.333 -100.667 -132.166 -176 -164.499s-186.666 -48.5 -333.999 -48.5c-222.667 0 -380.334 29 -473.001 87s-139 156 -139 294v686h166v-635c0 -63.333 5 -109.333 15 -138s28.667 -53.334 56 -74.001s75 -37 143 -49
c36 -5.33301 74.333 -9.33301 115 -12s89.334 -4 146.001 -4c164 0 283.5 20.5 358.5 61.5s112.5 105.833 112.5 194.5v656h170zM966.999 1176h-137l-344 272h247z" />
    <glyph glyph-name="uacute" unicode="&#xfa;" horiz-adv-x="1602" 
d="M1438 1053l-0.000976562 -1053h-160v199c-42 -77.333 -100.667 -132.166 -176 -164.499s-186.666 -48.5 -333.999 -48.5c-222.667 0 -380.334 29 -473.001 87s-139 156 -139 294v686h166v-635c0 -63.333 5 -109.333 15 -138s28.667 -53.334 56 -74.001s75 -37 143 -49
c36 -5.33301 74.333 -9.33301 115 -12s89.334 -4 146.001 -4c164 0 283.5 20.5 358.5 61.5s112.5 105.833 112.5 194.5v656h170zM634.999 1176l234 272h247l-344 -272h-137z" />
    <glyph glyph-name="ucircumflex" unicode="&#xfb;" horiz-adv-x="1602" 
d="M1438 1053l-0.000976562 -1053h-160v199c-42 -77.333 -100.667 -132.166 -176 -164.499s-186.666 -48.5 -333.999 -48.5c-222.667 0 -380.334 29 -473.001 87s-139 156 -139 294v686h166v-635c0 -63.333 5 -109.333 15 -138s28.667 -53.334 56 -74.001s75 -37 143 -49
c36 -5.33301 74.333 -9.33301 115 -12s89.334 -4 146.001 -4c164 0 283.5 20.5 358.5 61.5s112.5 105.833 112.5 194.5v656h170zM448.999 1176l237 272h230l237 -272h-135l-217 165l-217 -165h-135z" />
    <glyph glyph-name="udieresis" unicode="&#xfc;" horiz-adv-x="1602" 
d="M1438 1053l-0.000976562 -1053h-160v199c-42 -77.333 -100.667 -132.166 -176 -164.499s-186.666 -48.5 -333.999 -48.5c-222.667 0 -380.334 29 -473.001 87s-139 156 -139 294v686h166v-635c0 -63.333 5 -109.333 15 -138s28.667 -53.334 56 -74.001s75 -37 143 -49
c36 -5.33301 74.333 -9.33301 115 -12s89.334 -4 146.001 -4c164 0 283.5 20.5 358.5 61.5s112.5 105.833 112.5 194.5v656h170zM904.999 1200v195h207v-195h-207zM489.999 1200v195h207v-195h-207z" />
    <glyph glyph-name="yacute" unicode="&#xfd;" horiz-adv-x="512" 
d="M172 0v1053h168v-1053h-168z" />
    <glyph glyph-name="thorn" unicode="&#xfe;" horiz-adv-x="1602" 
d="M604 467c-190.667 0 -314.504 19.998 -371.504 59.998s-85.5 118.333 -85.5 235c0 110.667 34.167 188.834 102.5 234.501s186.5 68.5 354.5 68.5h299c166.667 0 287.834 -20.167 363.501 -60.5s113.5 -104.833 113.5 -193.5v-70h-159v43c0 48 -24.333 81.167 -73 99.5
s-150 27.5 -304 27.5h-164c-165.333 0 -267.833 -9.66699 -307.5 -29s-59.5 -59.333 -59.5 -120c0 -61.333 20 -102.333 60 -123s142.333 -31 307 -31l287 2c127.333 0 216 -6 266 -18s89 -32.667 117 -62c25.333 -25.333 43.5 -55.666 54.5 -90.999s16.5 -95 16.5 -179
c0 -100.667 -34.167 -171.834 -102.5 -213.501s-191.166 -62.5 -368.499 -62.5h-424c-139.333 0 -237.666 28.333 -294.999 85c-28.667 29.333 -50.5 68.333 -65.5 117s-22.5 107.334 -22.5 176.001h152v-18c0 -80.667 15.667 -134.667 47 -162s105 -41 221 -41h471
c92.667 0 151.667 10.5 177 31.5s38 67.833 38 140.5c0 58.667 -15.167 99 -45.5 121s-86.166 33 -167.499 33h-432zM694.996 -0.00195312l105.999 0.000976562v-133h203c36.667 0 63.834 -9.83301 81.501 -29.5s26.5 -50.167 26.5 -91.5v-70
c0 -46.667 -8.16699 -79.834 -24.5 -99.501s-43.5 -29.5 -81.5 -29.5h-453v109h359c24 0 40.167 3.66699 48.5 11s12.5 20.666 12.5 39.999c0 18.667 -4.33301 31.834 -13 39.501s-24.667 11.5 -48 11.5h-166c-19.333 0 -33 5 -41 15c-6.66699 10 -10 30.333 -10 61v166z
" />
    <glyph glyph-name="ydieresis" unicode="&#xff;" horiz-adv-x="1337" 
d="M571 0l-568.998 1053h184l502 -912l457 912h186l-520 -1053c-78.667 -158 -152.334 -259.667 -221.001 -305s-162.334 -68 -281.001 -68l-61 1l-53 1v150l31 -1l30 -1c110 0 190.333 16.167 241 48.5s92 90.5 124 174.5h-50zM774.002 1200v195h207v-195h-207z
M359.002 1200v195h207v-195h-207z" />
    <glyph glyph-name="Cacute" unicode="&#x106;" horiz-adv-x="2034" 
d="M799 -18c-154.667 0 -266.336 7.83008 -335.003 23.4971s-125.667 42.5 -171 80.5c-49.333 42 -85.166 97.667 -107.499 167s-33.5 161 -33.5 275v406c0 123.333 11 221.5 33 294.5s58 131.167 108 174.5c43.333 37.333 101.333 64 174 80s182.667 24 330 24h469
c242.667 0 406.667 -30.167 492 -90.5s128 -170.166 128 -329.499l-1 -48l-1 -31h-170v22c0 116.667 -25.5 198 -76.5 244s-140.833 69 -269.5 69h-645c-88 0 -156.5 -8.16699 -205.5 -24.5s-87.167 -44.166 -114.5 -83.499c-18 -26 -31.333 -58.333 -40 -97
s-13 -102.667 -13 -192v-28v-367c0 -88 4 -151.5 12 -190.5s21.667 -71.833 41 -98.5c26.667 -37.333 65.167 -64.666 115.5 -81.999s118.5 -26 204.5 -26h643c140.667 0 236.667 22.667 288 68s77 127.666 77 246.999v41h170l1 -39l1 -35
c0 -93.333 -9.16699 -167.666 -27.5 -222.999s-48.833 -101 -91.5 -137c-39.333 -33.333 -95.166 -57.333 -167.499 -72s-189.166 -22 -350.499 -22h-467zM863.998 1600l234 272h247l-344 -272h-137z" />
    <glyph glyph-name="cacute" unicode="&#x107;" horiz-adv-x="1505" 
d="M1229 688c0 87.333 -21 146.668 -63 178.001s-134.333 47 -277 47h-246c-124 0 -212 -18.333 -264 -55s-78 -97.334 -78 -182.001v-244c0 -109.333 24.167 -185.166 72.5 -227.499s139.5 -63.5 273.5 -63.5h250c132.667 0 223.167 18 271.5 54s72.5 99.333 72.5 190v12
h158v-28c0 -133.333 -37 -230.5 -111 -291.5s-191.333 -91.5 -352 -91.5h-301c-170 0 -296.167 33.167 -378.5 99.5s-123.5 168.833 -123.5 307.5v266c0 137.333 41.167 239.666 123.5 306.999s208.5 101 378.5 101h250c179.333 0 307.333 -27.333 384 -82
s115 -144.667 115 -270v-27h-155zM598 1176l234 272h247l-344 -272h-137z" />
    <glyph glyph-name="Ccaron" unicode="&#x10c;" horiz-adv-x="2034" 
d="M799 -18c-154.667 0 -266.336 7.83008 -335.003 23.4971s-125.667 42.5 -171 80.5c-49.333 42 -85.166 97.667 -107.499 167s-33.5 161 -33.5 275v406c0 123.333 11 221.5 33 294.5s58 131.167 108 174.5c43.333 37.333 101.333 64 174 80s182.667 24 330 24h469
c242.667 0 406.667 -30.167 492 -90.5s128 -170.166 128 -329.499l-1 -48l-1 -31h-170v22c0 116.667 -25.5 198 -76.5 244s-140.833 69 -269.5 69h-645c-88 0 -156.5 -8.16699 -205.5 -24.5s-87.167 -44.166 -114.5 -83.499c-18 -26 -31.333 -58.333 -40 -97
s-13 -102.667 -13 -192v-28v-367c0 -88 4 -151.5 12 -190.5s21.667 -71.833 41 -98.5c26.667 -37.333 65.167 -64.666 115.5 -81.999s118.5 -26 204.5 -26h643c140.667 0 236.667 22.667 288 68s77 127.666 77 246.999v41h170l1 -39l1 -35
c0 -93.333 -9.16699 -167.666 -27.5 -222.999s-48.833 -101 -91.5 -137c-39.333 -33.333 -95.166 -57.333 -167.499 -72s-189.166 -22 -350.499 -22h-467zM677.998 1868h135l217 -168l217 168h135l-237 -273h-230z" />
    <glyph glyph-name="ccaron" unicode="&#x10d;" horiz-adv-x="1505" 
d="M1229 688c0 87.333 -21 146.668 -63 178.001s-134.333 47 -277 47h-246c-124 0 -212 -18.333 -264 -55s-78 -97.334 -78 -182.001v-244c0 -109.333 24.167 -185.166 72.5 -227.499s139.5 -63.5 273.5 -63.5h250c132.667 0 223.167 18 271.5 54s72.5 99.333 72.5 190v12
h158v-28c0 -133.333 -37 -230.5 -111 -291.5s-191.333 -91.5 -352 -91.5h-301c-170 0 -296.167 33.167 -378.5 99.5s-123.5 168.833 -123.5 307.5v266c0 137.333 41.167 239.666 123.5 306.999s208.5 101 378.5 101h250c179.333 0 307.333 -27.333 384 -82
s115 -144.667 115 -270v-27h-155zM412 1444h135l217 -168l217 168h135l-237 -273h-230z" />
    <glyph glyph-name="dcroat" unicode="&#x111;" horiz-adv-x="1612" 
d="M1290 469v106c0 126 -25.167 211.167 -75.5 255.5s-151.5 66.5 -303.5 66.5h-233c-150.667 0 -251.5 -22.167 -302.5 -66.5s-76.5 -129.5 -76.5 -255.5v-106c0 -128.667 25.167 -215.5 75.5 -260.5s151.5 -67.5 303.5 -67.5h233c152 0 253.167 22.167 303.5 66.5
s75.5 131.5 75.5 261.5zM1450 1489v-167.998h203v-125h-203v-1196h-143v172c-30 -66.667 -73 -114.334 -129 -143.001s-142.667 -43 -260 -43h-281c-180 0 -309 35.167 -387 105.5s-117 190.166 -117 359.499v149c0 159.333 39 274.333 117 345s207 106 387 106h321
c78.667 0 144.5 -11.667 197.5 -35s97.833 -61 134.5 -113v293h-512v125h512v168h160z" />
    <glyph glyph-name="Gbreve" unicode="&#x11e;" horiz-adv-x="2114" 
d="M1427 154c143.333 0 238.329 22.3281 284.996 66.9951s70 141 70 289v76h-764v166h950v-242c0 -143.333 -9 -242.666 -27 -297.999s-48.667 -100.666 -92 -135.999c-39.333 -33.333 -95.166 -57.333 -167.499 -72s-189.166 -22 -350.499 -22h-532
c-148.667 0 -258.834 8 -330.501 24s-130.167 43.333 -175.5 82c-49.333 42 -85.166 97.167 -107.499 165.5s-33.5 159.833 -33.5 274.5v406c0 123.333 11 221.5 33 294.5s58 131.167 108 174.5c43.333 37.333 101.333 64 174 80s182.667 24 330 24h534
c242.667 0 407.167 -30.167 493.5 -90.5s129.5 -170.166 129.5 -329.499l-1 -48l-1 -31h-170v22c0 116.667 -25.5 198 -76.5 244s-141.5 69 -271.5 69h-711c-89.333 0 -158.166 -8.16699 -206.499 -24.5s-86.166 -44.166 -113.499 -83.499c-18 -26 -31.333 -58.333 -40 -97
s-13 -102.667 -13 -192v-28v-367c0 -88 4 -151.5 12 -190.5s21.667 -71.833 41 -98.5c26.667 -37.333 65.167 -64.666 115.5 -81.999s118.5 -26 204.5 -26h704zM706.996 1864h131.001c8 -41.333 29.5 -71.833 64.5 -91.5s86.5 -29.5 154.5 -29.5
c69.333 0 120.666 9.5 153.999 28.5s54.333 49.833 63 92.5h131c-11.333 -89.333 -44.833 -154.333 -100.5 -195s-138.167 -61 -247.5 -61c-110.667 0 -193.667 20.5 -249 61.5s-89 105.833 -101 194.5z" />
    <glyph glyph-name="gbreve" unicode="&#x11f;" horiz-adv-x="1587" 
d="M659 205h262.999c138.667 0 233.334 19.333 284.001 58s76 108 76 208v176c0 99.333 -25.333 168.333 -76 207c-24.667 19.333 -60.667 34 -108 44s-106 15 -176 15h-263c-139.333 0 -234.166 -19.167 -284.499 -57.5s-75.5 -107.833 -75.5 -208.5v-176
c0 -99.333 25.167 -168.5 75.5 -207.5s145.166 -58.5 284.499 -58.5zM1440 18c0 -129.333 -41.832 -226.832 -125.499 -292.499s-208.5 -98.5 -374.5 -98.5h-309c-162.667 0 -283.667 28.667 -363 86c-40 29.333 -70.833 66.166 -92.5 110.499s-32.5 96.5 -32.5 156.5
l166 -1c0 -68.667 26 -117.5 78 -146.5s142.667 -43.5 272 -43.5h263c138.667 0 232.667 17.333 282 52s74 98.667 74 192v166c-37.333 -53.333 -79 -91.333 -125 -114s-111 -34 -195 -34h-327c-176.667 0 -303.834 34.667 -381.501 104s-116.5 183 -116.5 341v127
c0 156 39.5 269 118.5 339s207.5 105 385.5 105h231c138 0 234.5 -12.167 289.5 -36.5s97.833 -66.833 128.5 -127.5v150h154v-1035zM445 1440h131.001c8 -41.333 29.5 -71.833 64.5 -91.5s86.5 -29.5 154.5 -29.5c69.333 0 120.666 9.5 153.999 28.5s54.333 49.833 63 92.5
h131c-11.333 -89.333 -44.833 -154.333 -100.5 -195s-138.167 -61 -247.5 -61c-110.667 0 -193.667 20.5 -249 61.5s-89 105.833 -101 194.5z" />
    <glyph glyph-name="Idotaccent" unicode="&#x130;" horiz-adv-x="567" 
d="M371 0h-185v1489h185v-1489zM176 1626v205h218v-205h-218z" />
    <glyph glyph-name="dotlessi" unicode="&#x131;" horiz-adv-x="512" 
d="M172 0v1053h168v-1053h-168z" />
    <glyph glyph-name="c316" unicode="&#x13c;" horiz-adv-x="973" 
d="M367 752c0 33.333 11.333 61.333 34 84s50.667 34 84 34c34 0 62.667 -11.167 86 -33.5s35 -50.5 35 -84.5c0 -33.333 -11.833 -61.833 -35.5 -85.5s-52.167 -35.5 -85.5 -35.5c-32 0 -59.667 12 -83 36s-35 52.333 -35 85z" />
    <glyph glyph-name="Lslash" unicode="&#x141;" horiz-adv-x="1585" 
d="M197 0v545l-197 -129v170l197 129v774h184v-688l571 373v-170l-571 -371v-469h1157v-164h-1341z" />
    <glyph glyph-name="lslash" unicode="&#x142;" horiz-adv-x="578" 
d="M373 1489v-606l223 151v-145l-223 -152v-737h-168v662l-211 -144v144l211 145v682h168z" />
    <glyph glyph-name="OE" unicode="&#x152;" horiz-adv-x="2968" 
d="M1532 166c-42 -68 -90.333 -115.667 -145 -143s-147.667 -41 -279 -41h-455c-118 0 -204 7.83301 -258 23.5s-99 42.5 -135 80.5c-38 40 -65.833 95.167 -83.5 165.5s-26.5 161.166 -26.5 272.499v406c0 62.667 2 117.834 6 165.501s10.667 90.5 20 128.5
c16.667 73.333 44.667 131 84 173c34 37.333 79 64 135 80s141.333 24 256 24h566c84.667 0 149.667 -11.833 195 -35.5s85.333 -64.5 120 -122.5v146h1296v-166h-1112v-459h1043v-162h-1043v-536h1112v-166h-1296v166zM1087 1339l-351.997 -0.000976562
c-49.333 0 -90 -1 -122 -3s-59 -5.66699 -81 -11c-40 -9.33301 -73.333 -25.666 -100 -48.999c-29.333 -27.333 -51 -64.666 -65 -111.999c-6 -22.667 -10.667 -54.834 -14 -96.501s-5 -93.167 -5 -154.5v-338c0 -121.333 6.16699 -205 18.5 -251s34.166 -83 65.499 -111
c23.333 -21.333 54.666 -36.833 93.999 -46.5s102.333 -14.5 189 -14.5h73h373c90 0 153.667 4.66699 191 14s68.666 25 93.999 47c29.333 27.333 50.666 64 63.999 110s20 130 20 252v338c0 124.667 -6.16699 209 -18.5 253s-34.166 80.667 -65.499 110
c-26 22 -59.333 38 -100 48s-109 15 -205 15h-54z" />
    <glyph glyph-name="oe" unicode="&#x153;" horiz-adv-x="2773" 
d="M680 139h273.998c152.667 0 254.334 22.333 305.001 67s76 131.667 76 261v125c0 124.667 -25.167 209 -75.5 253s-152.166 66 -305.499 66h-274c-151.333 0 -252.333 -21.833 -303 -65.5s-76 -128.167 -76 -253.5v-125c0 -128.667 25.167 -215.5 75.5 -260.5
s151.5 -67.5 303.5 -67.5zM1505 641h977v21c0 94.667 -23.833 159.834 -71.5 195.501s-143.167 53.5 -286.5 53.5h-260c-133.333 0 -226.5 -20.333 -279.5 -61s-79.5 -110.334 -79.5 -209.001zM2128 1065c199.333 0 337.504 -36.166 414.504 -108.499
s115.5 -200.833 115.5 -385.5l-1 -50l-1 -31l-1151 -1v-59c0 -106.667 25.167 -181.834 75.5 -225.501s136.5 -65.5 258.5 -65.5h29h274c122 0 209.5 13.667 262.5 41s79.5 71.666 79.5 132.999v6h174v-24c0 -101.333 -40.333 -178.166 -121 -230.499s-200 -78.5 -358 -78.5
h-315c-114 0 -205.333 11 -274 33s-125 58.667 -169 110c-40.667 -48.667 -95.334 -85 -164.001 -109c-32.667 -10.667 -70.834 -19 -114.501 -25s-91.5 -9 -143.5 -9h-362c-181.333 0 -310.666 35.5 -387.999 106.5s-116 190.5 -116 358.5v165
c0 160 39.167 274.833 117.5 344.5s207.166 104.5 386.499 104.5h362c107.333 0 194.666 -11.5 261.999 -34.5s120.666 -59.167 159.999 -108.5c42 49.333 98.333 85.5 169 108.5s162 34.5 274 34.5h264z" />
    <glyph glyph-name="Scedilla" unicode="&#x15e;" horiz-adv-x="1954" 
d="M154 485l178.001 -0.00292969l-2 -29l-2 -59c0 -93.333 30.833 -158.333 92.5 -195s176.167 -55 343.5 -55h389c201.333 0 332.833 20 394.5 60s92.5 116.333 92.5 229c0 94 -21.333 158.5 -64 193.5s-130.334 52.5 -263.001 52.5h-629c-198 0 -337.333 30.833 -418 92.5
s-121 167.5 -121 317.5c0 153.333 45.833 260.833 137.5 322.5s259.5 92.5 503.5 92.5h338c183.333 0 312.5 -7 387.5 -21s133.167 -38.333 174.5 -73c34 -29.333 59.167 -68.166 75.5 -116.499s24.5 -107.833 24.5 -178.5v-43h-178v23c0 98.667 -23.5 165 -70.5 199
s-146.5 51 -298.5 51h-508c-154.667 0 -258.834 -17.667 -312.501 -53s-80.5 -100.333 -80.5 -195c0 -96 26 -162 78 -198s161 -54 327 -54h535c60.667 0 111.834 -1 153.501 -3s78.167 -5.66699 109.5 -11c59.333 -9.33301 106.666 -24.666 141.999 -45.999
c50.667 -30 87 -72 109 -126s33 -132.667 33 -236c0 -165.333 -44.5 -280.666 -133.5 -345.999s-249.5 -98 -481.5 -98h-505c-199.333 0 -341.666 30.167 -426.999 90.5s-128 160.5 -128 300.5l3 95zM871.001 -0.00292969l105.999 0.000976562v-133h203
c36.667 0 63.834 -9.83301 81.501 -29.5s26.5 -50.167 26.5 -91.5v-70c0 -46.667 -8.16699 -79.834 -24.5 -99.501s-43.5 -29.5 -81.5 -29.5h-453v109h359c24 0 40.167 3.66699 48.5 11s12.5 20.666 12.5 39.999c0 18.667 -4.33301 31.834 -13 39.501s-24.667 11.5 -48 11.5
h-166c-19.333 0 -33 5 -41 15c-6.66699 10 -10 30.333 -10 61v166z" />
    <glyph glyph-name="scedilla" unicode="&#x15f;" horiz-adv-x="1602" 
d="M604 467c-190.667 0 -314.504 19.998 -371.504 59.998s-85.5 118.333 -85.5 235c0 110.667 34.167 188.834 102.5 234.501s186.5 68.5 354.5 68.5h299c166.667 0 287.834 -20.167 363.501 -60.5s113.5 -104.833 113.5 -193.5v-70h-159v43c0 48 -24.333 81.167 -73 99.5
s-150 27.5 -304 27.5h-164c-165.333 0 -267.833 -9.66699 -307.5 -29s-59.5 -59.333 -59.5 -120c0 -61.333 20 -102.333 60 -123s142.333 -31 307 -31l287 2c127.333 0 216 -6 266 -18s89 -32.667 117 -62c25.333 -25.333 43.5 -55.666 54.5 -90.999s16.5 -95 16.5 -179
c0 -100.667 -34.167 -171.834 -102.5 -213.501s-191.166 -62.5 -368.499 -62.5h-424c-139.333 0 -237.666 28.333 -294.999 85c-28.667 29.333 -50.5 68.333 -65.5 117s-22.5 107.334 -22.5 176.001h152v-18c0 -80.667 15.667 -134.667 47 -162s105 -41 221 -41h471
c92.667 0 151.667 10.5 177 31.5s38 67.833 38 140.5c0 58.667 -15.167 99 -45.5 121s-86.166 33 -167.499 33h-432zM694.996 -0.00195312l105.999 0.000976562v-133h203c36.667 0 63.834 -9.83301 81.501 -29.5s26.5 -50.167 26.5 -91.5v-70
c0 -46.667 -8.16699 -79.834 -24.5 -99.501s-43.5 -29.5 -81.5 -29.5h-453v109h359c24 0 40.167 3.66699 48.5 11s12.5 20.666 12.5 39.999c0 18.667 -4.33301 31.834 -13 39.501s-24.667 11.5 -48 11.5h-166c-19.333 0 -33 5 -41 15c-6.66699 10 -10 30.333 -10 61v166z
" />
    <glyph glyph-name="Scaron" unicode="&#x160;" horiz-adv-x="1954" 
d="M154 485l178.001 -0.00292969l-2 -29l-2 -59c0 -93.333 30.833 -158.333 92.5 -195s176.167 -55 343.5 -55h389c201.333 0 332.833 20 394.5 60s92.5 116.333 92.5 229c0 94 -21.333 158.5 -64 193.5s-130.334 52.5 -263.001 52.5h-629c-198 0 -337.333 30.833 -418 92.5
s-121 167.5 -121 317.5c0 153.333 45.833 260.833 137.5 322.5s259.5 92.5 503.5 92.5h338c183.333 0 312.5 -7 387.5 -21s133.167 -38.333 174.5 -73c34 -29.333 59.167 -68.166 75.5 -116.499s24.5 -107.833 24.5 -178.5v-43h-178v23c0 98.667 -23.5 165 -70.5 199
s-146.5 51 -298.5 51h-508c-154.667 0 -258.834 -17.667 -312.501 -53s-80.5 -100.333 -80.5 -195c0 -96 26 -162 78 -198s161 -54 327 -54h535c60.667 0 111.834 -1 153.501 -3s78.167 -5.66699 109.5 -11c59.333 -9.33301 106.666 -24.666 141.999 -45.999
c50.667 -30 87 -72 109 -126s33 -132.667 33 -236c0 -165.333 -44.5 -280.666 -133.5 -345.999s-249.5 -98 -481.5 -98h-505c-199.333 0 -341.666 30.167 -426.999 90.5s-128 160.5 -128 300.5l3 95zM625.001 1868h135l217 -168l217 168h135l-237 -273h-230z" />
    <glyph glyph-name="scaron" unicode="&#x161;" horiz-adv-x="1602" 
d="M604 467c-190.667 0 -314.504 19.998 -371.504 59.998s-85.5 118.333 -85.5 235c0 110.667 34.167 188.834 102.5 234.501s186.5 68.5 354.5 68.5h299c166.667 0 287.834 -20.167 363.501 -60.5s113.5 -104.833 113.5 -193.5v-70h-159v43c0 48 -24.333 81.167 -73 99.5
s-150 27.5 -304 27.5h-164c-165.333 0 -267.833 -9.66699 -307.5 -29s-59.5 -59.333 -59.5 -120c0 -61.333 20 -102.333 60 -123s142.333 -31 307 -31l287 2c127.333 0 216 -6 266 -18s89 -32.667 117 -62c25.333 -25.333 43.5 -55.666 54.5 -90.999s16.5 -95 16.5 -179
c0 -100.667 -34.167 -171.834 -102.5 -213.501s-191.166 -62.5 -368.499 -62.5h-424c-139.333 0 -237.666 28.333 -294.999 85c-28.667 29.333 -50.5 68.333 -65.5 117s-22.5 107.334 -22.5 176.001h152v-18c0 -80.667 15.667 -134.667 47 -162s105 -41 221 -41h471
c92.667 0 151.667 10.5 177 31.5s38 67.833 38 140.5c0 58.667 -15.167 99 -45.5 121s-86.166 33 -167.499 33h-432zM448.996 1444h135l217 -168l217 168h135l-237 -273h-230z" />
    <glyph glyph-name="Ydieresis" unicode="&#x178;" horiz-adv-x="1886" 
d="M846 0v623l-844 866h262l680 -698l680 698h264l-846 -866v-623h-196zM1048 1624v195h207v-195h-207zM633 1624v195h207v-195h-207z" />
    <glyph glyph-name="Zcaron" unicode="&#x17d;" horiz-adv-x="1872" 
d="M90 0v166l1376 1161h-1325v162h1596v-162l-1377 -1161h1397v-166h-1667zM584 1868h135l217 -168l217 168h135l-237 -273h-230z" />
    <glyph glyph-name="zcaron" unicode="&#x17e;" horiz-adv-x="1337" 
d="M100 158l918 757h-881v138h1114v-148l-917 -758h923v-147h-1157v158zM318 1444h135l217 -168l217 168h135l-237 -273h-230z" />
    <glyph glyph-name="florin" unicode="&#x192;" horiz-adv-x="1944" 
d="M852 680h-358.003v149h397l31 125c46.667 200 114.834 342.5 204.501 427.5s215.167 127.5 376.5 127.5c17.333 0 46 -0.666992 86 -2s61 -2 63 -2c25.333 0 49 -1 71 -3c1.33301 0 25 -3 71 -9v-160c-48.667 9.33301 -95 16.5 -139 21.5s-80.333 7.5 -109 7.5
c-131.333 0 -230.166 -31.167 -296.499 -93.5s-117.5 -174.5 -153.5 -336.5l-23 -103h377v-149h-412l-61 -295c-12.667 -62.667 -26 -121 -40 -175s-28.333 -101.333 -43 -142c-28.667 -80.667 -61 -147.667 -97 -201c-48 -70 -114.5 -123 -199.5 -159
s-185.833 -54 -302.5 -54c-36.667 0 -75 2 -115 6c-18 0 -31 0.5 -39 1.5s-35.667 5.83301 -83 14.5l-1 154c18.667 -4 35.834 -7.33301 51.501 -10s37.834 -6 66.501 -10c17.333 -2 34.333 -3.66699 51 -5s32.667 -2 48 -2c151.333 0 264.666 41 339.999 123
s136.333 239.667 183 473z" />
    <glyph glyph-name="circumflex" unicode="&#x2c6;" 
d="M160 1176l237 272h230l237 -272h-135l-217 165l-217 -165h-135z" />
    <glyph glyph-name="caron" unicode="&#x2c7;" 
d="M160 1444h135l217 -168l217 168h135l-237 -273h-230z" />
    <glyph glyph-name="breve" unicode="&#x2d8;" 
d="M162 1440h131.001c8 -41.333 29.5 -71.833 64.5 -91.5s86.5 -29.5 154.5 -29.5c69.333 0 120.666 9.5 153.999 28.5s54.333 49.833 63 92.5h131c-11.333 -89.333 -44.833 -154.333 -100.5 -195s-138.167 -61 -247.5 -61c-110.667 0 -193.667 20.5 -249 61.5
s-89 105.833 -101 194.5z" />
    <glyph glyph-name="dotaccent" unicode="&#x2d9;" 
d="M403 1202v205h218v-205h-218z" />
    <glyph glyph-name="ring" unicode="&#x2da;" 
d="M647 1360c0 40 -10.834 69.834 -32.501 89.501s-55.834 29.5 -102.501 29.5c-43.333 0 -76.333 -9.83301 -99 -29.5s-34 -49.5 -34 -89.5s10.667 -69.667 32 -89c11.333 -9.33301 24.833 -16.333 40.5 -21s35.834 -7 60.501 -7c46.667 0 80.834 9.16699 102.501 27.5
s32.5 48.166 32.5 89.499zM790.999 1366c0 -64.667 -24.3311 -115 -72.998 -151s-117.334 -54 -206.001 -54s-156.834 17.833 -204.501 53.5s-71.5 86.167 -71.5 151.5c0 66 23.667 116.333 71 151s115.666 52 204.999 52c90.667 0 159.834 -17.333 207.501 -52
s71.5 -85 71.5 -151z" />
    <glyph glyph-name="ogonek" unicode="&#x2db;" 
d="M594 0l-166 -176.002l-10 -12c-6 -7.33301 -10.667 -14.166 -14 -20.499s-5 -13.166 -5 -20.499c0 -16 5.83301 -28.333 17.5 -37s28.5 -13 50.5 -13h203v-127h-287c-54 0 -91.333 9.16699 -112 27.5s-31 54.5 -31 108.5c0 27.333 4.83301 50.5 14.5 69.5
s32.167 42.167 67.5 69.5l165 131h107z" />
    <glyph glyph-name="tilde" unicode="&#x2dc;" 
d="M852 1417c-12 -64 -37.834 -113.001 -77.501 -147.001s-90.167 -51 -151.5 -51h-15h-12c-6 1.33301 -10.333 2 -13 2l-43 8l-119 29l-17 3l-31 1c-20.667 0 -39.5 -5.66699 -56.5 -17s-31.167 -27.666 -42.5 -48.999h-102c18.667 64 48.334 112.5 89.001 145.5
s91.667 49.5 153 49.5c12 0 21.333 -0.666992 28 -2c10.667 0 20.667 -1.66699 30 -5l144 -32l22 -3l17 -1c24 0 44.333 6 61 18s28 29 34 51h102z" />
    <glyph glyph-name="Omega" unicode="&#x3a9;" horiz-adv-x="1573" 
d="M1473 156v-155.999h-590v150c126.667 73.333 225.334 166.333 296.001 279c34 56 59.667 115 77 177s26 127.667 26 197c0 168 -45.667 303.167 -137 405.5s-211 153.5 -359 153.5c-146.667 0 -266.167 -51.667 -358.5 -155s-138.5 -238 -138.5 -404
c0 -136 34.167 -260.333 102.5 -373s167.833 -206 298.5 -280v-150h-590v156h332c-108.667 88 -189.334 182.833 -242.001 284.5s-79 213.5 -79 335.5c0 219.333 62.833 397 188.5 533s287.834 204 486.501 204c199.333 0 361.833 -67.333 487.5 -202
s188.5 -311.667 188.5 -531c0 -124.667 -26.333 -237.834 -79 -339.501s-133.334 -196.5 -242.001 -284.5h332z" />
    <glyph glyph-name="pi" unicode="&#x3c0;" horiz-adv-x="1186" 
d="M1139 930l-185.001 -0.000976562l-110 -516l-22 -115l-7 -74c0 -37.333 8 -64.333 24 -81s43 -25 81 -25h16c6 0 11.5 0.166992 16.5 0.5s9.5 0.833008 13.5 1.5l52 8l-29 -129l-5 -1c-42 -10 -75 -15 -99 -15c-72.667 0 -128.5 17.167 -167.5 51.5
s-58.5 84.5 -58.5 150.5c0 36 3.66699 76.333 11 121s22.333 121.334 45 230.001l84 393h-348l-197 -930h-158l197 930h-39c-36 0 -63.833 -10 -83.5 -30s-33.5 -53.667 -41.5 -101h-145c16.667 102 47.834 172.5 93.501 211.5s120.167 58.5 223.5 58.5h866z" />
    <glyph glyph-name="endash" unicode="&#x2013;" 
d="M0 483v107h1024v-107h-1024z" />
    <glyph glyph-name="emdash" unicode="&#x2014;" horiz-adv-x="2048" 
d="M0 483v107h2048v-107h-2048z" />
    <glyph glyph-name="quoteleft" unicode="&#x2018;" horiz-adv-x="758" 
d="M496 1278v-270h-234v307c0 64 15 112 45 144s75 48 135 48h68v-125h-41c-20 0 -34.5 -5.5 -43.5 -16.5s-13.5 -28.5 -13.5 -52.5v-35h84z" />
    <glyph glyph-name="quoteright" unicode="&#x2019;" horiz-adv-x="758" 
d="M262 1219v269.999h234v-307c0 -63.333 -15.167 -111.666 -45.5 -144.999s-74.833 -50 -133.5 -50h-69v127h41c20 0 34.5 5.33301 43.5 16s13.5 28 13.5 52v37h-84z" />
    <glyph glyph-name="quotesinglbase" unicode="&#x201a;" horiz-adv-x="758" 
d="M262 0v270h234v-307c0 -64 -14.833 -112 -44.5 -144s-74.5 -48 -134.5 -48h-69v125h41c20 0 34.5 5.33301 43.5 16s13.5 27.667 13.5 51v37h-84z" />
    <glyph glyph-name="quotedblleft" unicode="&#x201c;" horiz-adv-x="1190" 
d="M496 1278v-270h-234v307c0 64 15 112 45 144s75 48 135 48h68v-125h-41c-20 0 -34.5 -5.5 -43.5 -16.5s-13.5 -28.5 -13.5 -52.5v-35h84zM926 1278v-270.001h-232v307c0 64.667 14.833 112.834 44.5 144.501s74.167 47.5 133.5 47.5h68v-125h-39
c-20 0 -34.5 -5.5 -43.5 -16.5s-13.5 -28.5 -13.5 -52.5v-35h82z" />
    <glyph glyph-name="quotedblright" unicode="&#x201d;" horiz-adv-x="1190" 
d="M262 1219v269.999h234v-307c0 -63.333 -15.167 -111.666 -45.5 -144.999s-74.833 -50 -133.5 -50h-69v127h41c20 0 34.5 5.33301 43.5 16s13.5 28 13.5 52v37h-84zM696 1219v269.999h232v-307c0 -63.333 -15.167 -111.666 -45.5 -144.999s-74.5 -50 -132.5 -50h-70v127
h41c20 0 34.5 5.33301 43.5 16s13.5 28 13.5 52v37h-82z" />
    <glyph glyph-name="quotedblbase" unicode="&#x201e;" horiz-adv-x="1190" 
d="M262 0v270h234v-307c0 -64 -14.833 -112 -44.5 -144s-74.5 -48 -134.5 -48h-69v125h41c20 0 34.5 5.33301 43.5 16s13.5 27.667 13.5 51v37h-84zM696 0v270h232v-307c0 -64 -14.833 -112 -44.5 -144s-74.167 -48 -133.5 -48h-70v125h41c20 0 34.5 5.33301 43.5 16
s13.5 27.667 13.5 51v37h-82z" />
    <glyph glyph-name="dagger" unicode="&#x2020;" horiz-adv-x="1346" 
d="M594 0v958h-438v134h438v397h160v-397h438v-134h-438v-958h-160z" />
    <glyph glyph-name="daggerdbl" unicode="&#x2021;" horiz-adv-x="1346" 
d="M598 0v340h-422v143h422v537h-422v145h422v324h150v-324h421v-145h-421v-537h421v-143h-421v-340h-150z" />
    <glyph glyph-name="bullet" unicode="&#x2022;" horiz-adv-x="1208" 
d="M307 762c0 81.333 29.167 150.833 87.5 208.5s128.166 86.5 209.499 86.5c80.667 0 150 -28.833 208 -86.5s87 -127.167 87 -208.5s-29.167 -151.166 -87.5 -209.499s-128.166 -87.5 -209.499 -87.5s-150.833 29.167 -208.5 87.5s-86.5 128.166 -86.5 209.499z" />
    <glyph glyph-name="ellipsis" unicode="&#x2026;" horiz-adv-x="2048" 
d="M226 0v270h231v-270h-231zM908 0v270h231v-270h-231zM1592 0v270h231v-270h-231z" />
    <glyph glyph-name="perthousand" unicode="&#x2030;" horiz-adv-x="3615" 
d="M3164 805l-297 0.00195312c-69.333 0 -116.333 -14.833 -141 -44.5s-37 -96.834 -37 -201.501v-192c0 -104 12.5 -171.333 37.5 -202s71.833 -46 140.5 -46h297c69.333 0 116.333 15 141 45s37 97.667 37 203v192c0 105.333 -12.167 172.666 -36.5 201.999
s-71.5 44 -141.5 44zM2890 -19.998c-137.333 0 -229.666 24.168 -277 72.501c-47.333 48.333 -71 138.833 -71 271.5v254c0 141.333 23 236.666 69 285.999s139 74 279 74h248c138 0 230.5 -24.667 277.5 -74s70.5 -141.333 70.5 -276v-258
c0 -135.333 -23.333 -227.5 -70 -276.5s-139.334 -73.5 -278 -73.5h-248zM1450 1507h135l-514 -1525h-137zM2075 805.003l-299.001 0.00195312c-69.333 0 -116.166 -14.333 -140.499 -43s-36.5 -96.334 -36.5 -203.001v-192c0 -104.667 12.5 -172.167 37.5 -202.5
s71.5 -45.5 139.5 -45.5h299c68 0 114.667 15 140 45s38 97.667 38 203v192c0 105.333 -12.167 172.666 -36.5 201.999s-71.5 44 -141.5 44zM1798 -19.9951c-137.333 0 -229.333 24 -276 72s-70 138.667 -70 272v254c0 142 23 237.5 69 286.5s138.333 73.5 277 73.5h250
c138.667 0 231 -24.5 277 -73.5s69 -141.167 69 -276.5v-258c0 -135.333 -23.167 -227.5 -69.5 -276.5s-138.5 -73.5 -276.5 -73.5h-250zM751.999 1376l-297 0.00195312c-70 0 -117.333 -14.833 -142 -44.5s-37 -96.834 -37 -201.501v-194c0 -102 12.667 -168.5 38 -199.5
s72.333 -46.5 141 -46.5h297c68 0 114.667 15 140 45s38 97 38 201v194c0 105.333 -12.167 172.666 -36.5 201.999s-71.5 44 -141.5 44zM476.999 551.007c-137.333 0 -229.669 24.167 -277.002 72.5s-71 138.833 -71 271.5v252c0 142 23 237.5 69 286.5
s138.333 73.5 277 73.5h250c138.667 0 231.334 -24.333 278.001 -73s70 -140.334 70 -275.001v-260c0 -133.333 -23.167 -224.666 -69.5 -273.999s-139.166 -74 -278.499 -74h-248z" />
    <glyph glyph-name="guilsinglleft" unicode="&#x2039;" horiz-adv-x="598" 
d="M504 217h-189l-221 324l221 317h189l-221 -317z" />
    <glyph glyph-name="guilsinglright" unicode="&#x203a;" horiz-adv-x="598" 
d="M94 217l219 324l-219 317h187l221 -317l-221 -324h-187z" />
    <glyph glyph-name="franc" unicode="&#x20a3;" horiz-adv-x="2988" 
d="M182 0v1489h1407v-166h-1220v-475h1173v-162h-1173v-686h-187zM1839 0v1042h162v-155c34 66 82.333 112.5 145 139.5s160.334 40.5 293 40.5c178.667 0 303.834 -26.333 375.5 -79c71.667 -52.667 107.5 -143 107.5 -271v-139h-155v98c0 94 -24.5 156.667 -73.5 188
s-147.5 47 -295.5 47c-136.667 0 -235.667 -20.167 -297 -60.5s-92 -106.166 -92 -197.499v-653h-170z" />
    <glyph glyph-name="trademark" unicode="&#x2122;" horiz-adv-x="1706" 
d="M948 1456l160 -405l149 405h132v-534h-82v458l-172 -458h-54l-180 458v-458h-82v534h129zM694 1456v-67h-172v-467h-94v467h-174v67h440z" />
    <glyph glyph-name="partialdiff" unicode="&#x2202;" horiz-adv-x="1044" 
d="M754 604c7.33301 49.333 13.666 102.998 18.999 160.998c0 18.667 1.16699 46.667 3.5 84s3.5 62.333 3.5 75c0 93.333 -13.167 165.5 -39.5 216.5s-63.5 76.5 -111.5 76.5c-35.333 0 -74.166 -21.167 -116.499 -63.5s-78.833 -63.5 -109.5 -63.5
c-18.667 0 -35.667 7 -51 21c-6.66699 6.66699 -12 14.334 -16 23.001s-6 18.334 -6 29.001c0 39.333 22.667 74.5 68 105.5s99.666 46.5 162.999 46.5c114 0 205 -50.833 273 -152.5s102 -239.167 102 -412.5c0 -223.333 -46.333 -408.333 -139 -555
s-207.334 -220 -344.001 -220c-97.333 0 -177.666 35.667 -240.999 107s-95 162 -95 272c0 125.333 36.167 230.5 108.5 315.5s161.166 127.5 266.499 127.5c66.667 0 120.834 -15.5 162.501 -46.5s74.834 -79.833 99.501 -146.5zM709 482.998
c0 78 -15.167 138.166 -45.5 180.499s-72.5 63.5 -126.5 63.5c-74.667 0 -136 -42.5 -184 -127.5s-72 -196.167 -72 -333.5c0 -78.667 14.667 -138.167 44 -178.5s72 -60.5 128 -60.5c74.667 0 136 42.833 184 128.5s72 194.834 72 327.501z" />
    <glyph glyph-name="Delta" unicode="&#x2206;" horiz-adv-x="1356" 
d="M1122 158l-444 1138l-445 -1138h889zM780 1473l586 -1473h-1374l586 1473h202z" />
    <glyph glyph-name="product" unicode="&#x220f;" horiz-adv-x="1528" 
d="M160 1473h1208v-1866h-201v1693h-809v-1693h-198v1866z" />
    <glyph glyph-name="c294" unicode="&#x2211;" horiz-adv-x="1346" 
d="M51 1473h1239v-166h-989l690 -744l-719 -792h1035v-164h-1289v139l738 813l-705 758v156z" />
    <glyph glyph-name="c295" unicode="&#x2212;" horiz-adv-x="1706" 
d="M1452 670v-119h-1198v119h1198z" />
    <glyph glyph-name="fraction" unicode="&#x2215;" horiz-adv-x="342" 
d="M-197 -18h-145l881 1525h143z" />
    <glyph glyph-name="periodcentered" unicode="&#x2219;" horiz-adv-x="973" 
d="M367 752c0 33.333 11.333 61.333 34 84s50.667 34 84 34c34 0 62.667 -11.167 86 -33.5s35 -50.5 35 -84.5c0 -33.333 -11.833 -61.833 -35.5 -85.5s-52.167 -35.5 -85.5 -35.5c-32 0 -59.667 12 -83 36s-35 52.333 -35 85z" />
    <glyph glyph-name="radical" unicode="&#x221a;" horiz-adv-x="1288" 
d="M1288 1647v-82h-119l-594 -1606h-53l-323 893l-119 -43l-23 68l262 92l265 -729l522 1407h182z" />
    <glyph glyph-name="infinity" unicode="&#x221e;" horiz-adv-x="1706" 
d="M905 559c34 -63.333 73.8311 -110.501 119.498 -141.501s97.5 -46.5 155.5 -46.5c68.667 0 125 23.833 169 71.5s66 107.834 66 180.501c0 72 -20.167 131.833 -60.5 179.5s-91.166 71.5 -152.499 71.5c-56 0 -106.667 -24 -152 -72s-93.666 -129 -144.999 -243z
M802.998 665.999c-34 63.333 -73.666 110.833 -118.999 142.5s-96.666 47.5 -153.999 47.5c-70.667 0 -127.834 -23.667 -171.501 -71s-65.5 -108.333 -65.5 -183c0 -72 20.167 -131.667 60.5 -179s91.166 -71 152.499 -71c55.333 0 105.5 23 150.5 69
s93.833 127.667 146.5 245zM839.999 726.999c22.667 46.667 45.834 86.834 69.501 120.501s49.167 61.5 76.5 83.5c52 44 110.333 66 175 66c88.667 0 163.834 -36.333 225.501 -109s92.5 -163.334 92.5 -272.001c0 -114 -27.333 -206.333 -82 -277s-125.667 -106 -213 -106
c-63.333 0 -119 19.667 -167 59s-98.333 106.666 -151 201.999c-46.667 -92 -95.834 -159.167 -147.501 -201.5s-109.5 -63.5 -173.5 -63.5c-88.667 0 -163.834 36.333 -225.501 109s-92.5 163.334 -92.5 272.001c0 114 27.5 206.333 82.5 277s126.5 106 214.5 106
c63.333 0 120.5 -21.167 171.5 -63.5s99.167 -109.833 144.5 -202.5z" />
    <glyph glyph-name="integral" unicode="&#x222b;" horiz-adv-x="1020" 
d="M301 -268c77.333 0 115.998 221.334 115.998 664.001l5 216c0 163.333 9 304.5 27 423.5s43 217.5 75 295.5c60 144.667 153.667 217 281 217c49.333 0 90 -13 122 -39c14.667 -12.667 26 -27.667 34 -45s12 -37 12 -59c0 -32 -10.333 -57.833 -31 -77.5
s-48 -29.5 -82 -29.5c-35.333 0 -63.666 11.667 -84.999 35s-32 54 -32 92c0 4.66699 -1.83301 9.5 -5.5 14.5s-8.5 7.83301 -14.5 8.5c-79.333 0 -119 -211.333 -119 -634l-6 -245c0 -94 -3 -179.167 -9 -255.5s-13.667 -144.833 -23 -205.5
c-14 -104 -34.667 -186.333 -62 -247c-31.333 -74.667 -72 -132 -122 -172s-106.333 -60 -169 -60c-48.667 0 -88.5 12.667 -119.5 38s-46.5 57.666 -46.5 96.999c0 35.333 10.667 63.333 32 84s49 31 83 31c31.333 0 57.833 -9.66699 79.5 -29s32.5 -41.666 32.5 -66.999
c0 -16 2.33301 -28.333 7 -37s11.334 -13.334 20.001 -14.001z" />
    <glyph glyph-name="approxequal" unicode="&#x2248;" horiz-adv-x="1706" 
d="M1530 453c-71.333 -50 -138.833 -86.834 -202.5 -110.501s-125.834 -35.5 -186.501 -35.5c-64.667 0 -160.834 23.167 -288.501 69.5s-224.167 69.5 -289.5 69.5c-53.333 0 -109.166 -11.667 -167.499 -35s-130.833 -64.666 -217.5 -123.999v131
c69.333 47.333 136.333 83.333 201 108s126.667 37 186 37c73.333 0 173.833 -22.833 301.5 -68.5s219.834 -68.5 276.501 -68.5s114.167 11.833 172.5 35.5s129.833 64.5 214.5 122.5v-131zM1530 802.999c-68.667 -48 -135.336 -84 -200.003 -108s-127 -36 -187 -36
c-65.333 0 -161.5 23 -288.5 69s-224.167 69 -291.5 69c-54.667 0 -112 -12 -172 -36c-28 -12 -60.167 -28.167 -96.5 -48.5s-75.166 -44.833 -116.499 -73.5v131c69.333 47.333 136.333 83.333 201 108s126.667 37 186 37c74 0 174.167 -22.833 300.5 -68.5
s218.833 -68.5 277.5 -68.5c30.667 0 59.834 2.66699 87.501 8s56.834 14.333 87.501 27c57.333 22.667 128 63 212 121v-131z" />
    <glyph glyph-name="notequal" unicode="&#x2260;" horiz-adv-x="1706" 
d="M1298 1110l-196 -250h350v-115h-424l-211 -270h635v-115h-709l-251 -319l-89 70l197 249h-346v115h420l211 270h-631v115h704l252 320z" />
    <glyph glyph-name="lessequal" unicode="&#x2264;" horiz-adv-x="1706" 
d="M1444 150v-117h-1182v117h1182zM1444 1067l-977 -324l977 -323v-125l-1182 399v101l1182 397v-125z" />
    <glyph glyph-name="greaterequal" unicode="&#x2265;" horiz-adv-x="1706" 
d="M1444 150v-117h-1182v117h1182zM1444 795v-101l-1182 -399v125l979 323l-979 324v125z" />
    <glyph glyph-name="lozenge" unicode="&#x25ca;" horiz-adv-x="1012" 
d="M506 1409l-385 -817l385 -825l385 825zM506 1653l500 -1061l-500 -1069l-500 1069z" />
    <glyph glyph-name="apple" unicode="&#xf000;" horiz-adv-x="1618" 
d="M836 1216l-2 14v23c0 82.667 31.667 159 95 229s142 114 236 132l1 -23l1 -39c0 -87.333 -34.5 -165.5 -103.5 -234.5s-136.833 -103.5 -203.5 -103.5h-8l-8 1zM1505 403c-76 -164 -144.165 -278 -204.498 -342s-128.5 -96 -204.5 -96c-32.667 0 -76.334 11 -131.001 33
s-95.667 33 -123 33c-29.333 0 -72.833 -11 -130.5 -33s-100.167 -33 -127.5 -33c-42.667 0 -85.334 14.667 -128.001 44s-86 73.333 -130 132c-66.667 91.333 -119.334 189.666 -158.001 294.999c-18 52 -31.667 103 -41 153s-14 99.333 -14 148
c0 146 41.667 264.833 125 356.5s191 137.5 323 137.5c45.333 0 97.5 -11.333 156.5 -34s99.833 -34 122.5 -34c12 0 27.333 2.66699 46 8s43.667 14.333 75 27c58.667 23.333 109.667 35 153 35c74 0 139.833 -13.167 197.5 -39.5s111.5 -67.833 161.5 -124.5
c-67.333 -42.667 -117.666 -91.167 -150.999 -145.5s-50 -115.166 -50 -182.499c0 -74 20 -140.5 60 -199.5s97.667 -105.167 173 -138.5z" />
    <glyph glyph-name="fi" unicode="&#xf001;" horiz-adv-x="1329" 
d="M252 0l0.000976562 903h-221v150h221v75c0 125.333 30.667 216.833 92 274.5s159 86.5 293 86.5h176v-152h-170c-82.667 0 -140.834 -13.333 -174.501 -40s-50.5 -72.667 -50.5 -138v-106h395v-150h-395v-903h-166zM973.001 1290v199h166v-199h-166zM973.001 0v1053h166
v-1053h-166z" />
    <glyph glyph-name="fl" unicode="&#xf002;" horiz-adv-x="1329" 
d="M252 0l0.000976562 903h-221v150h221v75c0 125.333 30.667 216.833 92 274.5s159 86.5 293 86.5h176v-152h-170c-82.667 0 -140.834 -13.333 -174.501 -40s-50.5 -72.667 -50.5 -138v-106h395v-150h-395v-903h-166zM973.001 0v1489h166v-1489h-166z" />
    <glyph glyph-name=".null" horiz-adv-x="0" 
 />
    <glyph glyph-name="nonmarkingreturn" horiz-adv-x="973" 
 />
    </font>
</defs>
</svg>
