<?xml version="1.0" standalone="no"?>
<!DOCTYPE svg PUBLIC "-//W3C//DTD SVG 1.1//EN" "http://www.w3.org/Graphics/SVG/1.1/DTD/svg11.dtd" >
<svg>
<metadata>
Created by FontForge 20090914 at Fri Jan 15 14:19:50 2016
 By www-data
Copyright 1992-2003 Adobe Systems Incorporated. All Rights Reserved. U.S. Patent Des. 454,582.
</metadata>
<defs>
<font id="MyriadWebPro" horiz-adv-x="1087" >
  <font-face 
    font-family="Myriad Web Pro"
    font-weight="400"
    font-stretch="normal"
    units-per-em="2048"
    panose-1="2 11 5 3 3 4 3 2 2 4"
    ascent="1556"
    descent="-492"
    x-height="991"
    cap-height="1380"
    bbox="-96 -512 1987 1729"
    underline-thickness="102"
    underline-position="-153"
    unicode-range="U+0020-U+FB04"
  />
<missing-glyph horiz-adv-x="1024" 
d="M0 0v1434h1024v-1434h-1024zM102 195l349 522l-349 522v-1044zM164 102h696l-348 523zM164 1331l348 -522l348 522h-696zM573 717l349 -522v1044z" />
    <glyph glyph-name=".notdef" horiz-adv-x="1024" 
d="M0 0v1434h1024v-1434h-1024zM102 195l349 522l-349 522v-1044zM164 102h696l-348 523zM164 1331l348 -522l348 522h-696zM573 717l349 -522v1044z" />
    <glyph glyph-name="space" unicode=" " horiz-adv-x="446" 
 />
    <glyph glyph-name="exclam" unicode="!" horiz-adv-x="483" 
d="M115 111c0 38.667 11.833 70.5 35.5 95.5s54.167 37.5 91.5 37.5s67.833 -12.5 91.5 -37.5s35.5 -56.833 35.5 -95.5c0 -37.333 -11.667 -69 -35 -95s-54 -39 -92 -39c-36.667 0 -67 13 -91 39s-36 57.667 -36 95zM137 1380h207l-31 -979h-145z" />
    <glyph glyph-name="quotedbl" unicode="&#x22;" horiz-adv-x="706" 
d="M100 1419h191l-37 -497h-117zM416 1419h190l-37 -497h-116z" />
    <glyph glyph-name="numbersign" unicode="#" horiz-adv-x="1052" 
d="M80 399v127h192l39 289h-180v127h199l53 389h127l-53 -389h219l51 389h127l-51 -389h172v-127h-191l-36 -289h178v-127h-199l-53 -399h-129l53 399h-217l-51 -399h-129l53 399h-174zM401 526h217l37 289h-217z" />
    <glyph glyph-name="dollar" unicode="$" 
d="M135 121l52.999 147c93.333 -61.333 196 -92 308 -92c72.667 0 131.667 18.333 177 55s68 83.334 68 140.001c0 51.333 -18 95.333 -54 132s-96.333 71 -181 103c-130 50 -221.167 103 -273.5 159s-78.5 123.333 -78.5 202c0 84 28.333 156.5 85 217.5
s135.334 99.5 236.001 115.5v205h135v-198c102.667 -3.33301 194.334 -28 275.001 -74l-51 -143c-86.667 49.333 -177.667 73.666 -273 72.999c-68.667 0 -122 -16.333 -160 -49s-57 -73.667 -57 -123c0 -48 18.333 -88.5 55 -121.5s104.334 -68.833 203.001 -107.5
c119.333 -47.333 204.166 -100 254.499 -158s75.5 -130.333 75.5 -217c0 -85.333 -29.333 -161 -88 -227s-141.334 -107.667 -248.001 -125v-211h-135v205c-131.333 3.33301 -240 34 -326 92z" />
    <glyph glyph-name="percent" unicode="%" horiz-adv-x="1669" 
d="M61 936c0 126.667 31.5 227.999 94.5 303.999s142.833 114 239.5 114c98 0 175.833 -35 233.5 -105s86.5 -167 86.5 -291c0 -134 -31.833 -237.667 -95.5 -311s-142.5 -110 -236.5 -110c-92.667 0 -169.5 35.833 -230.5 107.5s-91.5 168.834 -91.5 291.501zM215 943.999
c0 -87.333 15.5 -158.332 46.5 -212.999s74.167 -82 129.5 -82c56 0 99 26.167 129 78.5s45 125.833 45 220.5c0 92.667 -15 164.667 -45 216s-73 77 -129 77c-53.333 0 -96 -27.333 -128 -82s-48 -126.334 -48 -215.001zM379 -23l788 1377h119l-788 -1377h-119zM954 387
c0 125.333 31.5 226 94.5 302s142.833 114 239.5 114c98 0 175.833 -35 233.5 -105s86.5 -166.667 86.5 -290c0 -134 -31.833 -237.833 -95.5 -311.5s-142.5 -110.5 -236.5 -110.5c-93.333 0 -170.333 35.833 -231 107.5s-91 169.5 -91 293.5zM1108 393
c0 -89.333 15.832 -160.834 47.499 -214.501s74.5 -80.5 128.5 -80.5c56 0 99 26.167 129 78.5s45 125.833 45 220.5c0 88 -14.167 158.833 -42.5 212.5s-72.166 80.5 -131.499 80.5c-53.333 0 -96 -27.167 -128 -81.5s-48 -126.166 -48 -215.499z" />
    <glyph glyph-name="ampersand" unicode="&#x26;" horiz-adv-x="1275" 
d="M63 365c0 170.667 93.002 307 279.002 409c-79.333 98 -119 193 -119 285c0 90.667 32.833 170.667 98.5 240s154.5 104 266.5 104c92 0 167.833 -27.667 227.5 -83s89.5 -126.666 89.5 -213.999c0 -77.333 -25.333 -145.333 -76 -204s-128.334 -115 -233.001 -169
l338 -375c63.333 91.333 109 224.666 137 399.999h174c-39.333 -231.333 -108.333 -402 -207 -512l236 -246h-227l-132 133c-116.667 -104 -254.334 -156 -413.001 -156c-130.667 0 -236.5 37.333 -317.5 112s-121.5 166.667 -121.5 276zM248.002 395
c0 -79.333 27 -144.832 81 -196.499s122.667 -77.5 206 -77.5c112 0 207.333 40.333 286 121l-393 428c-120 -74.667 -180 -166.334 -180 -275.001zM401.002 1077c0 -78.667 35.666 -159.667 106.999 -243c84 46 143.5 89 178.5 129s52.5 85 52.5 135
c0 49.333 -14.5 91 -43.5 125s-68.167 51 -117.5 51c-53.333 0 -96.166 -18.833 -128.499 -56.5s-48.5 -84.5 -48.5 -140.5z" />
    <glyph glyph-name="quotesingle" unicode="'" horiz-adv-x="391" 
d="M100 1419h191l-37 -497h-117z" />
    <glyph glyph-name="parenleft" unicode="(" horiz-adv-x="593" 
d="M133 586c0 320.667 90 599.669 270 837.002h148c-172 -232 -258 -511.667 -258 -839c0 -310.667 86 -587.334 258 -830.001h-148c-180 233.333 -270 510.666 -270 831.999z" />
    <glyph glyph-name="parenright" unicode=")" horiz-adv-x="593" 
d="M43 -246c172 238.667 258 517.333 258 836s-86 596.334 -258 833.001h147c180 -232.667 270.333 -510.334 271 -833.001c0 -319.333 -90.333 -598 -271 -836h-147z" />
    <glyph glyph-name="asterisk" unicode="*" horiz-adv-x="866" 
d="M63 969v143l306 -37l-195 254l131 74l129 -289l127 289l127 -72l-199 -260l316 41v-143l-316 32l201 -247l-133 -76l-129 291l-133 -293l-121 78l199 254z" />
    <glyph glyph-name="plus" unicode="+" horiz-adv-x="1220" 
d="M84 483v129h459v480h137v-480h459v-129h-459v-483h-137v483h-459z" />
    <glyph glyph-name="comma" unicode="," horiz-adv-x="434" 
d="M31 -252c56 156 97.667 322 125 498l211 20c-59.333 -208 -126.333 -376 -201 -504z" />
    <glyph glyph-name="hyphen" unicode="-" horiz-adv-x="636" 
d="M61 485v140h514v-140h-514z" />
    <glyph glyph-name="period" unicode="." horiz-adv-x="434" 
d="M106 111c0 38.667 12.168 70.833 36.501 96.5s55.5 38.5 93.5 38.5c37.333 0 67.666 -12.5 90.999 -37.5s35 -57.5 35 -97.5c0 -38 -12 -69.833 -36 -95.5s-55 -38.5 -93 -38.5c-36.667 0 -67 13 -91 39s-36 57.667 -36 95z" />
    <glyph glyph-name="slash" unicode="/" horiz-adv-x="716" 
d="M0 -82l575 1485h148l-580 -1485h-143z" />
    <glyph glyph-name="zero" unicode="0" 
d="M76 662c0 215.333 43.665 384.5 130.998 507.5s203.333 184.5 348 184.5c144 0 256.167 -59.167 336.5 -177.5s120.5 -283.833 120.5 -496.5c0 -224.667 -41.667 -398 -125 -520s-200.666 -183 -351.999 -183c-139.333 0 -250.666 61 -333.999 183s-125 289.333 -125 502
zM265.998 672c0 -171.333 24.668 -305.333 74.001 -402s115.666 -145 198.999 -145c90 0 158.833 47 206.5 141s71.5 229.333 71.5 406c0 168.667 -22.833 299.834 -68.5 393.501s-114.167 140.5 -205.5 140.5c-83.333 0 -150.333 -47.833 -201 -143.5
s-76 -225.834 -76 -390.501z" />
    <glyph glyph-name="one" unicode="1" 
d="M221 1176l297 155h162v-1331h-184v1155h-4l-234 -123z" />
    <glyph glyph-name="two" unicode="2" 
d="M94 0l0.00195312 117c308 279.333 494.333 465.333 559 558s97 180.334 97 263.001c0 81.333 -23 144.666 -69 189.999s-112.667 68 -200 68c-98 0 -195.667 -39 -293 -117l-61 133c112.667 94 243.667 141.333 393 142c131.333 0 234.166 -37.333 308.499 -112
s111.5 -167.667 111.5 -279c0 -100 -31.833 -202.833 -95.5 -308.5s-222.834 -271.167 -477.501 -496.5h606v-158h-879z" />
    <glyph glyph-name="three" unicode="3" 
d="M90 72l48.998 144.999c98.667 -57.333 202 -86 310 -86c98 0 173.333 24.167 226 72.5s79 108.166 79 179.499c0 81.333 -32.5 145 -97.5 191s-147.833 69 -248.5 69h-111v143h111c80.667 0 150.667 19.667 210 59s89 92.333 89 159c0 59.333 -20.667 106.833 -62 142.5
s-100 53.5 -176 53.5c-94.667 0 -187.667 -30 -279 -90l-51 137c104.667 70.667 227 106.334 367 107.001c123.333 0 220 -30 290 -90s105 -136.667 105 -230c0 -147.333 -84 -253 -252 -317c92 -18 165.5 -58.167 220.5 -120.5s82.5 -135.5 82.5 -219.5
c0 -115.333 -45.167 -210.833 -135.5 -286.5s-212.166 -113.5 -365.499 -113.5c-143.333 0.666992 -263.666 32.334 -360.999 95.001z" />
    <glyph glyph-name="four" unicode="4" 
d="M33 360v125l604 846h213v-823h188v-148h-188v-360h-182v360h-635zM225 512l443 -4v442v207c-52 -98.667 -87.333 -160.667 -106 -186z" />
    <glyph glyph-name="five" unicode="5" 
d="M90 61l46.999 146c92.667 -50.667 192.334 -76 299.001 -76c89.333 0 164.666 26.5 225.999 79.5s92 120.833 92 203.5c0 93.333 -33.333 165.5 -100 216.5s-164 76.5 -292 76.5c-68 0 -132.667 -5 -194 -15l88 639h659v-160h-524l-49 -325c40.667 5.33301 79 8 115 8
c148 0 266.833 -37.667 356.5 -113s134.5 -178.333 134.5 -309c0 -130 -48.167 -238.333 -144.5 -325s-218.166 -130 -365.499 -130c-136 0 -252 28 -348 84z" />
    <glyph glyph-name="six" unicode="6" 
d="M70 547c0 178.667 40.6689 333.166 122.002 463.499s185.166 219.833 311.499 268.5s251.5 73 375.5 73l2 -156c-180.667 0 -323.334 -43.333 -428.001 -130s-165 -199.667 -181 -339c80.667 102.667 190.667 154 330 154c122.667 0 222.667 -40 300 -120
s116 -184 116 -312c0 -130.667 -43 -242 -129 -334s-196.667 -138 -332 -138c-146.667 0 -264.5 51.833 -353.5 155.5s-133.5 241.834 -133.5 414.501zM260.002 495.999c0 -108 26.333 -197.167 79 -267.5s126 -105.5 220 -105.5c78.667 0 142.334 29.167 191.001 87.5
s73 133.5 73 225.5s-25.167 165.167 -75.5 219.5s-117.833 81.5 -202.5 81.5c-70.667 0 -135.834 -24.667 -195.501 -74s-89.5 -105 -89.5 -167z" />
    <glyph glyph-name="seven" unicode="7" 
d="M121 1174v157h868v-127l-594 -1204h-198l591 1174h-667z" />
    <glyph glyph-name="eight" unicode="8" 
d="M78 340c0 160.667 88.667 278.002 266 352.002c-143.333 68.667 -215 169.667 -215 303c0 103.333 40.5 189 121.5 257s182.5 102 304.5 102c123.333 0 221.333 -31.833 294 -95.5s109 -141.834 109 -234.501c0 -138.667 -73.667 -243.667 -221 -315
c88 -32.667 155.5 -78.5 202.5 -137.5s70.5 -126.5 70.5 -202.5c0 -114 -44.5 -207.833 -133.5 -281.5s-200.833 -110.5 -335.5 -110.5c-138 0 -249.667 34.667 -335 104s-128 155.666 -128 258.999zM276 357.002c0 -66.667 25.002 -123.33 75.002 -169.997
s114.667 -70 194 -70c81.333 0 147 21.667 197 65s75 98.666 75 165.999c0 31.333 -4.33301 60.166 -13 86.499s-22.334 50.166 -41.001 71.499s-41.667 40.333 -69 57s-61.333 32.167 -102 46.5s-66.834 21.5 -78.501 21.5s-34.5 -8.5 -68.5 -25.5
s-60.833 -34.167 -80.5 -51.5s-36 -36.333 -49 -57s-22.833 -42.667 -29.5 -66s-10 -48 -10 -74zM315.002 1008.01c0 -117.333 86 -197.333 258 -240c136.667 44 205 122.667 205 236c0 58 -18.833 108 -56.5 150s-94.5 63 -170.5 63c-72 0 -129.333 -19.833 -172 -59.5
s-64 -89.5 -64 -149.5z" />
    <glyph glyph-name="nine" unicode="9" 
d="M84 879c0 130 44.332 241.667 132.999 335s202 140 340 140c139.333 0 250.333 -51 333 -153s124 -239.667 124 -413c0 -238 -65 -432.167 -195 -582.5s-335.333 -225.5 -616 -225.5v155c12.667 -1.33301 26.667 -2 42 -2c158 0 286.667 42 386 126s160 201.667 182 353
c-79.333 -95.333 -187.333 -143 -324 -143c-119.333 0 -216.666 39 -291.999 117s-113 175.667 -113 293zM273.999 889c0 -81.333 24.167 -147.833 72.5 -199.5s111.833 -77.5 190.5 -77.5c75.333 0 141.166 21 197.499 63s84.5 88.667 84.5 140
c0 122 -24.167 218 -72.5 288s-116.833 105 -205.5 105c-77.333 0 -141.166 -30.167 -191.499 -90.5s-75.5 -136.5 -75.5 -228.5z" />
    <glyph glyph-name="colon" unicode=":" horiz-adv-x="434" 
d="M106 111c0 38.667 12 70.833 36 96.5s54.333 38.5 91 38.5c37.333 0 67.833 -12.5 91.5 -37.5s35.5 -57.5 35.5 -97.5c0 -37.333 -11.833 -69 -35.5 -95s-54.167 -39 -91.5 -39c-36.667 0 -67 13 -91 39s-36 57.667 -36 95zM109 824.999c0 38.667 11.835 71 35.502 97
s54.167 39 91.5 39s67.666 -12.5 90.999 -37.5s35 -57.833 35 -98.5c0 -37.333 -11.833 -68.833 -35.5 -94.5s-53.834 -38.5 -90.501 -38.5s-67 12.833 -91 38.5s-36 57.167 -36 94.5z" />
    <glyph glyph-name="semicolon" unicode=";" horiz-adv-x="434" 
d="M33 -252c55.333 154 97 320 125 498l209 20c-60.667 -210.667 -127.667 -378.667 -201 -504zM123 825c0 38.667 12 71 36 97s54.333 39 91 39c37.333 0 67.833 -12.5 91.5 -37.5s35.5 -57.833 35.5 -98.5c0 -37.333 -12 -68.833 -36 -94.5s-54.333 -38.5 -91 -38.5
s-67 12.833 -91 38.5s-36 57.167 -36 94.5z" />
    <glyph glyph-name="less" unicode="&#x3c;" horiz-adv-x="1220" 
d="M133 485v119l952 486v-148l-796 -399l796 -396v-147z" />
    <glyph glyph-name="equal" unicode="=" horiz-adv-x="1220" 
d="M82 283v129h1057v-129h-1057zM82 690v129h1057v-129h-1057z" />
    <glyph glyph-name="greater" unicode="&#x3e;" horiz-adv-x="1220" 
d="M133 0v147l803 400l-803 395v148l954 -484v-123z" />
    <glyph glyph-name="question" unicode="?" horiz-adv-x="860" 
d="M104 1317c86.667 57.333 189.332 86 307.999 86c110.667 0 197.334 -28.667 260.001 -86s94 -130.333 94 -219c0 -48 -11 -97 -33 -147s-71 -117.667 -147 -203c-45.333 -52 -76.833 -100.333 -94.5 -145s-26.5 -95.334 -26.5 -152.001l2 -54h-170
c-3.33301 47.333 -5 76 -5 86c0 111.333 44 217.333 132 318c58 68 96.667 121.5 116 160.5s29 76.167 29 111.5c0 54.667 -17 97.334 -51 128.001s-82.333 46 -145 46c-84 0 -155.667 -21.667 -215 -65zM251.998 111c0 38.667 12.167 70.5 36.5 95.5
s55.166 37.5 92.499 37.5s67.833 -12.5 91.5 -37.5s35.5 -56.833 35.5 -95.5c0 -38 -12.167 -69.833 -36.5 -95.5s-55.166 -38.5 -92.499 -38.5c-36.667 0 -67 13 -91 39s-36 57.667 -36 95z" />
    <glyph glyph-name="at" unicode="@" horiz-adv-x="1550" 
d="M90 625c0 218 71.5 402.168 214.5 552.501s325.5 225.5 547.5 225.5c180.667 0 328.5 -56.5 443.5 -169.5s172.5 -257.167 172.5 -432.5c0 -143.333 -36.333 -258.333 -109 -345s-159.667 -130 -261 -130c-46 0 -83.833 14.667 -113.5 44s-46.5 74.666 -50.5 135.999
c-74 -120 -173 -180 -297 -180c-64 0 -117.833 24.167 -161.5 72.5s-65.5 111.5 -65.5 189.5c0 131.333 47 244.333 141 339s210 142 348 142c86 0 162.333 -15 229 -45c-46.667 -251.333 -71.5 -387.166 -74.5 -407.499s-4.5 -43.5 -4.5 -69.5c0 -78 26.667 -117 80 -117
c56 0 106.5 33.667 151.5 101s67.5 154 67.5 260c0 154.667 -46.167 279 -138.5 373s-216.833 141 -373.5 141c-176 0 -323.833 -62.167 -443.5 -186.5s-179.5 -284.833 -179.5 -481.5c0 -168.667 50.667 -304 152 -406s230.333 -153 387 -153
c121.333 0 226.333 24.667 315 74l33 -95c-104.667 -53.333 -228.334 -80 -371.001 -80c-179.333 0 -330.666 60.667 -453.999 182s-185 276.666 -185 465.999zM551 598.001c0 -48 12.332 -86.332 36.999 -114.999s58.667 -43 102 -43c56 0 108.833 29.167 158.5 87.5
s80.834 122.166 93.501 191.499l41 219c-30 10.667 -64.667 16 -104 16c-90 0 -167.167 -35 -231.5 -105s-96.5 -153.667 -96.5 -251z" />
    <glyph glyph-name="A" unicode="A" horiz-adv-x="1302" 
d="M51 0l484 1380h233l487 -1380h-204l-152 430h-504l-145 -430h-199zM434 578l425.999 -0.000976562c-123.333 346.667 -195.666 560.334 -216.999 641.001c-30 -114 -99.667 -327.667 -209 -641z" />
    <glyph glyph-name="B" unicode="B" horiz-adv-x="1148" 
d="M158 4v1358c94.667 20.667 208.667 31 342 31c176 0 305 -32 387 -96s123 -147.333 123 -250c0 -66 -20.667 -126.5 -62 -181.5s-99.333 -97.167 -174 -126.5c87.333 -22 157.333 -63.5 210 -124.5s79 -134.833 79 -221.5c0 -116.667 -47.333 -213.334 -142 -290.001
s-253 -115 -475 -115c-80.667 0 -176.667 5.33301 -288 16zM348 143.001c32 -5.33301 83.999 -8 155.999 -8c112.667 0 200.5 22.333 263.5 67s94.5 109.667 94.5 195c0 83.333 -32.167 147.5 -96.5 192.5s-152.166 67.5 -263.499 67.5h-154v-514zM347.999 799.001h168
c92.667 0 166 21 220 63s81 96.667 81 164c0 147.333 -101 221 -303 221c-72.667 0 -128 -4 -166 -12v-436z" />
    <glyph glyph-name="C" unicode="C" horiz-adv-x="1239" 
d="M76 678c0 212 68.833 385.833 206.5 521.5s318.5 203.5 542.5 203.5c141.333 0 256.666 -21.333 345.999 -64l-45 -153c-88 39.333 -185.333 59 -292 59c-171.333 0 -307.166 -50.333 -407.499 -151s-150.5 -238 -150.5 -412c0 -165.333 48.167 -297.5 144.5 -396.5
s230.5 -148.5 402.5 -148.5c120.667 0 223 20 307 60l37 -150c-93.333 -46.667 -221 -70 -383 -70c-212 0 -383 63 -513 189s-195 296.667 -195 512z" />
    <glyph glyph-name="D" unicode="D" horiz-adv-x="1421" 
d="M158 4v1358c128.667 20.667 262.334 31 401.001 31c269.333 0 467.833 -61 595.5 -183s191.5 -283.667 191.5 -485c0 -226 -70 -405.333 -210 -538s-351.333 -199 -634 -199c-128.667 0 -243.334 5.33301 -344.001 16zM348 147c28 -5.33301 91 -8 189 -8
c195.333 0 345.5 50.167 450.5 150.5s157.5 242.833 157.5 427.5c0 169.333 -49.5 299.333 -148.5 390s-242.167 136 -429.5 136c-86.667 0 -159.667 -6 -219 -18v-1078z" />
    <glyph glyph-name="E" unicode="E" horiz-adv-x="1044" 
d="M158 0v1380h778v-157h-588v-424h555v-158h-555v-483h621v-158h-811z" />
    <glyph glyph-name="F" unicode="F" horiz-adv-x="1036" 
d="M158 0v1380h776v-157h-586v-447h541v-158h-541v-618h-190z" />
    <glyph glyph-name="G" unicode="G" horiz-adv-x="1378" 
d="M76 680c0 209.333 70.832 380.832 212.499 514.499s329.5 200.5 563.5 200.5c142.667 0 264.334 -22 365.001 -66l-48 -153c-90 40.667 -197.667 61 -323 61c-173.333 0 -311.666 -49.5 -414.999 -148.5s-155 -231.833 -155 -398.5
c0 -167.333 49.667 -300.666 149 -399.999s232.666 -149 399.999 -149c114 0 196.667 13 248 39v398h-287v151h474v-663c-147.333 -53.333 -296.333 -80 -447 -80c-236.667 0 -418.667 65 -546 195s-191 296.333 -191 499z" />
    <glyph glyph-name="H" unicode="H" horiz-adv-x="1386" 
d="M158 0v1380h190v-573h690v573h191v-1380h-191v643h-690v-643h-190z" />
    <glyph glyph-name="I" unicode="I" horiz-adv-x="505" 
d="M158 0v1380h190v-1380h-190z" />
    <glyph glyph-name="J" unicode="J" horiz-adv-x="788" 
d="M8 12l28.999 154c46.667 -19.333 100 -29 160 -29c94.667 0 161.334 28 200.001 84s58 144 58 264v895h190v-911c0 -328 -144 -492 -432 -492c-80 0 -148.333 11.667 -205 35z" />
    <glyph glyph-name="K" unicode="K" horiz-adv-x="1153" 
d="M158 0v1380h196v-663c35.333 51.333 217 272.333 545 663h238l-516 -585l557 -795h-226l-467 674l-137 -154v-520h-190z" />
    <glyph glyph-name="L" unicode="L" horiz-adv-x="1003" 
d="M158 0v1380h190v-1220h610v-160h-800z" />
    <glyph glyph-name="M" unicode="M" horiz-adv-x="1701" 
d="M123 0l96.001 1380h248c172 -476 270.667 -753.167 296 -831.5s54.333 -175.833 87 -292.5c42 160 89.333 309 142 447l257 677h246l86 -1380h-186l-40 751l-22 451c-47.333 -154 -101 -312.667 -161 -476l-265 -716h-145
c-170.667 490.667 -270.834 782.334 -300.501 875.001s-60.5 198.334 -92.5 317.001c-9.33301 -257.333 -19 -464.666 -29 -621.999l-37 -580h-180z" />
    <glyph glyph-name="N" unicode="N" horiz-adv-x="1398" 
d="M158 0l0.000976562 1380h213l452 -690c103.333 -156 189.333 -304.667 258 -446c-13.333 125.333 -20 312.333 -20 561v575h178v-1380h-195l-448 692c-112.667 174.667 -203.334 329 -272.001 463c8 -133.333 12 -321 12 -563v-592h-178z" />
    <glyph glyph-name="O" unicode="O" horiz-adv-x="1472" 
d="M76 676c0 215.333 62.833 390.334 188.5 525.001s285.167 202 478.5 202c194 0 351.5 -65 472.5 -195s181.5 -297.667 181.5 -503c0 -221.333 -62.667 -398 -188 -530s-286 -198 -482 -198c-192 0 -348.5 65.167 -469.5 195.5s-181.5 298.166 -181.5 503.499z
M274 682.001c0 -154.667 42.501 -285.166 127.501 -391.499s194.833 -159.5 329.5 -159.5c139.333 0 251.333 52.667 336 158s127 241 127 407c0 154 -41.833 284.667 -125.5 392s-194.834 161 -333.501 161c-140.667 0 -252.667 -53.333 -336 -160
s-125 -242.334 -125 -407.001z" />
    <glyph glyph-name="P" unicode="P" horiz-adv-x="1128" 
d="M158 0v1364c105.333 19.333 226 29 362 29c174 0 304.5 -37.5 391.5 -112.5s130.5 -173.5 130.5 -295.5c0 -144 -50.167 -254.667 -150.5 -332s-231.5 -116 -393.5 -116c-68.667 0 -118.667 4.66699 -150 14v-551h-190zM348 705
c35.333 -10.667 86.668 -16.333 154.001 -17c110.667 0 196.667 25.5 258 76.5s92 121.833 92 212.5c0 85.333 -28.833 151 -86.5 197s-138.834 69 -243.501 69c-66 0 -124 -4.66699 -174 -14v-524z" />
    <glyph glyph-name="Q" unicode="Q" horiz-adv-x="1472" 
d="M76 674c0 218 62.666 394 187.999 528s286.666 201 483.999 201c192.667 0 349 -65.167 469 -195.5s180 -297.833 180 -502.5c0 -161.333 -35.667 -299.833 -107 -415.5s-171.666 -196.5 -300.999 -242.5v-8c152 -37.333 290.667 -66.666 416 -87.999l-55 -156
c-186.667 47.333 -371 101.333 -553 162c-36 12 -65.333 18.667 -88 20c-183.333 6.66699 -334.666 73.167 -453.999 199.5s-179 292.166 -179 497.499zM275.999 680c0 -155.333 42.333 -285.667 127 -391s194.667 -158 330 -158c139.333 0 251.333 52.667 336 158
s127 241 127 407c0 154 -41.667 284.667 -125 392s-193.333 161 -330 161c-142 0 -255 -53.5 -339 -160.5s-126 -243.167 -126 -408.5z" />
    <glyph glyph-name="R" unicode="R" horiz-adv-x="1140" 
d="M158 0l0.000976562 1362c108 20.667 228 31 360 31c182.667 0 315.667 -34.167 399 -102.5s125 -160.5 125 -276.5c0 -82 -23.333 -153.833 -70 -215.5s-111.334 -106.5 -194.001 -134.5c100 -38.667 167.667 -132.334 203 -281.001c56 -226 93 -353.667 111 -383h-197
c-19.333 32 -50 141.333 -92 328c-22 96.667 -54.5 165.167 -97.5 205.5s-104.167 60.5 -183.5 60.5h-174v-594h-190zM348.001 737.001h191c95.333 0 171.333 23.333 228 70s85 108.667 85 186c0 82.667 -27.5 145.667 -82.5 189s-134.167 65 -237.5 65
c-80 0 -141.333 -5.33301 -184 -16v-494z" />
    <glyph glyph-name="S" unicode="S" horiz-adv-x="1048" 
d="M88 70l49 157.002c103.333 -61.333 214.666 -92 333.999 -92c90 0 161.333 20.833 214 62.5s79 97.5 79 167.5c0 64 -20.833 116.333 -62.5 157s-110.167 77 -205.5 109c-131.333 45.333 -227.333 99.666 -288 162.999s-91 140 -91 230c0 110 43 200.667 129 272
s197.333 107 334 107c131.333 0 237.666 -23.333 318.999 -70l-51 -153c-79.333 45.333 -171 67.666 -275 66.999c-83.333 0 -148.166 -19.667 -194.499 -59s-69.5 -87.333 -69.5 -144c0 -57.333 19.833 -104.666 59.5 -141.999s114.167 -76 223.5 -116
c131.333 -48 224.833 -103.833 280.5 -167.5s83.5 -143.5 83.5 -239.5c0 -118 -44 -214.5 -132 -289.5s-210.333 -112.5 -367 -112.5c-65.333 0 -132.666 8.66699 -201.999 26s-125 39.666 -167 66.999z" />
    <glyph glyph-name="T" unicode="T" horiz-adv-x="1058" 
d="M-2 1221v159h1065v-159h-438v-1221h-191v1221h-436z" />
    <glyph glyph-name="U" unicode="U" horiz-adv-x="1376" 
d="M158 582l0.000976562 797.999h190v-805c0 -144 29.167 -254 87.5 -330s140.5 -114 246.5 -114c111.333 0 196.833 37.833 256.5 113.5s89.5 185.834 89.5 330.501v805h191v-792c0 -198 -47.5 -349.333 -142.5 -454s-229.167 -157 -402.5 -157
c-166.667 0 -294.334 51.333 -383.001 154s-133 253 -133 451z" />
    <glyph glyph-name="V" unicode="V" horiz-adv-x="1185" 
d="M6 1380h207l260 -803c50.667 -157.333 89.667 -286.333 117 -387c35.333 136 89.333 306 162 510l241 680h203l-510 -1380h-213z" />
    <glyph glyph-name="W" unicode="W" horiz-adv-x="1783" 
d="M29 1380l202.001 -0.000976562c161.333 -670 251 -1059.67 269 -1169h4c19.333 106.667 57.333 265.667 114 477l187 692h203l168 -698c49.333 -207.333 82 -363 98 -467h4c23.333 128.667 60.333 286.334 111 473.001l186 692h194l-403 -1380h-201l-174 717
c-50.667 208.667 -81.334 358 -92.001 448h-4c-16 -98.667 -51.667 -248 -107 -448l-198 -717h-203z" />
    <glyph glyph-name="X" unicode="X" horiz-adv-x="1218" 
d="M53 0l439 698l-422 682h223c195.333 -338.667 301 -523.667 317 -555c3.33301 12.667 111.333 197.667 324 555h223l-436 -673l446 -707h-223c-223.333 370.667 -339.333 561.667 -348 573l-322 -573h-221z" />
    <glyph glyph-name="Y" unicode="Y" horiz-adv-x="1153" 
d="M27 1380h219c194.667 -371.333 308 -591.666 340 -660.999c22 53.333 137.333 273.666 346 660.999h217l-479 -792v-588h-191v584z" />
    <glyph glyph-name="Z" unicode="Z" horiz-adv-x="1183" 
d="M63 0v109l791 1114h-723v157h973v-112l-787 -1110h799v-158h-1053z" />
    <glyph glyph-name="bracketleft" unicode="[" horiz-adv-x="593" 
d="M168 -229v1632h385v-117h-238v-1399h238v-116h-385z" />
    <glyph glyph-name="backslash" unicode="\" horiz-adv-x="722" 
d="M6 1403h148l571 -1485h-147z" />
    <glyph glyph-name="bracketright" unicode="]" horiz-adv-x="593" 
d="M41 -113h238v1399h-238v117h385v-1632h-385v116z" />
    <glyph glyph-name="asciicircum" unicode="^" horiz-adv-x="1220" 
d="M121 385l422 946h135l422 -946h-150l-342 791l-340 -791h-147z" />
    <glyph glyph-name="underscore" unicode="_" horiz-adv-x="1024" 
d="M0 -154h1024v-102h-1024v102z" />
    <glyph glyph-name="grave" unicode="`" horiz-adv-x="614" 
d="M39 1411h207l182 -297h-135z" />
    <glyph glyph-name="a" unicode="a" horiz-adv-x="1021" 
d="M74 262c0 120 52.166 211.832 156.499 275.499s256.833 95.5 457.5 95.5v18c0 70 -19.333 124.667 -58 164s-95.667 59 -171 59c-101.333 0 -191.666 -25 -270.999 -75l-43 125c95.333 60 209.333 90 342 90c129.333 0 227 -35.5 293 -106.5s99 -173.5 99 -307.5v-362
c0 -98 5.33301 -177.333 16 -238h-174l-23 127c-74.667 -100 -179 -150 -313 -150c-94 0 -169.333 27.833 -226 83.5s-85 122.834 -85 201.501zM265.999 286.999c0 -52.667 15.5 -93.834 46.5 -123.501s72.167 -44.5 123.5 -44.5c72.667 0 133.5 22.333 182.5 67
s73.5 95.334 73.5 152.001v164c-160 0 -271 -19.167 -333 -57.5s-93 -90.833 -93 -157.5z" />
    <glyph glyph-name="b" unicode="b" horiz-adv-x="1210" 
d="M145 0c5.33301 62.667 8.33105 149.332 8.99805 259.999v1198h194v-629c72.667 122.667 189.334 184.334 350.001 185.001c126.667 0 230.834 -47 312.501 -141s122.5 -215 122.5 -363c0 -162 -45 -291.333 -135 -388s-199.333 -145 -328 -145
c-154.667 0 -271.667 62.333 -351 187l-8 -164h-166zM343.998 405.998c0 -74 27.499 -138.666 82.499 -193.999s123.167 -83 204.5 -83c94.667 0 169.834 33.667 225.501 101s83.5 158 83.5 272c0 106 -27.667 192.833 -83 260.5s-129.333 101.5 -222 101.5
c-82 0 -151 -29.833 -207 -89.5s-84 -128.834 -84 -207.501v-161z" />
    <glyph glyph-name="c" unicode="c" horiz-adv-x="952" 
d="M78 483c0 156 50.667 283.501 152 382.501s234.333 148.5 399 148.5c100 0 187.333 -18.667 262 -56l-41 -145c-62.667 32.667 -135.667 49 -219 49c-108.667 0 -195.667 -34.333 -261 -103s-98 -156.334 -98 -263.001c0 -111.333 33.167 -200 99.5 -266
s150.833 -99 253.5 -99c79.333 0 156.333 16.333 231 49l31 -143c-84 -39.333 -183 -59.333 -297 -60c-152.667 0 -276.167 46.833 -370.5 140.5s-141.5 215.5 -141.5 365.5z" />
    <glyph glyph-name="d" unicode="d" horiz-adv-x="1198" 
d="M78 479c0 158 44.167 286.668 132.5 386.001s197.833 149 328.5 149c69.333 0 131.5 -13.667 186.5 -41s97.833 -64.333 128.5 -111v596h190v-1198c0 -110.667 3 -197.334 9 -260.001h-170l-15 176c-32.667 -62.667 -79.667 -111.5 -141 -146.5s-131 -52.5 -209 -52.5
c-125.333 0 -230 47.333 -314 142s-126 214.667 -126 360zM270 492.001c0 -104 26.667 -190.166 80 -258.499s127.666 -102.5 222.999 -102.5c73.333 0 138.5 26.833 195.5 80.5s85.5 125.167 85.5 214.5v158c0 84 -27.167 151.667 -81.5 203s-119.166 77 -194.499 77
c-92 0 -166.333 -34.333 -223 -103s-85 -158.334 -85 -269.001z" />
    <glyph glyph-name="e" unicode="e" horiz-adv-x="1062" 
d="M78 479c0 151.333 43.8301 278.332 131.497 380.999s205.5 154 353.5 154c136.667 0 241.5 -45.667 314.5 -137s109.5 -202.666 109.5 -333.999c0 -37.333 -2 -66 -6 -86h-719c2.66699 -107.333 35.834 -189.5 99.501 -246.5s145.834 -85.5 246.501 -85.5
c110 0 206.333 17 289 51l33 -133c-97.333 -44 -212.666 -66 -345.999 -66c-154 0 -276.833 45.833 -368.5 137.5s-137.5 213.167 -137.5 364.5zM263.997 593.999h539c0 85.333 -22 154.166 -66 206.499s-106.667 78.5 -188 78.5c-77.333 0 -141.333 -26.167 -192 -78.5
s-81.667 -121.166 -93 -206.499z" />
    <glyph glyph-name="f" unicode="f" horiz-adv-x="620" 
d="M31 846v145.001h139v45c0 141.333 32.333 250.833 97 328.5s154.667 116.5 270 116.5c58 0 110.333 -9.66699 157 -29l-22 -147c-34 15.333 -73.667 22.666 -119 21.999c-130 0 -195 -95 -195 -285v-51h244v-145h-242v-846h-190v846h-139z" />
    <glyph glyph-name="g" unicode="g" horiz-adv-x="1187" 
d="M78 487c0 159.333 45.498 287 136.498 383s199.833 144 326.5 144c150 0 258.333 -57.333 325 -172l8 149h168c-5.33301 -59.333 -8 -148.666 -8 -267.999v-576c0 -216 -46.667 -366.167 -140 -450.5s-220.666 -126.5 -381.999 -126.5
c-143.333 0 -258.666 28.667 -345.999 86l47 145c88 -54.667 189 -82 303 -82c106 0 187.5 29.5 244.5 88.5s85.5 145.167 85.5 258.5l-4 108c-72 -113.333 -181.333 -170 -328 -170c-124.667 0 -228.5 46.167 -311.5 138.5s-124.5 207.166 -124.5 344.499zM269.998 498
c0 -102 27.1689 -185.499 81.502 -250.499s127.5 -97.5 219.5 -97.5c73.333 0 137.166 26.167 191.499 78.5s81.5 120.166 81.5 203.499v162c0 74 -25 137.833 -75 191.5s-115.333 80.5 -196 80.5c-88.667 0 -161.334 -33.667 -218.001 -101s-85 -156.333 -85 -267z" />
    <glyph glyph-name="h" unicode="h" horiz-adv-x="1175" 
d="M154 0v1458h190v-624h4c33.333 56 80 100 140 132s121.333 48 184 48c102.667 0 188 -36.667 256 -110s102 -180.666 102 -321.999v-582h-190v561c0 93.333 -20.167 165.833 -60.5 217.5s-98.833 77.5 -175.5 77.5c-64.667 0 -124.167 -24.333 -178.5 -73
s-81.5 -111.667 -81.5 -189v-594h-190z" />
    <glyph glyph-name="i" unicode="i" horiz-adv-x="495" 
d="M127 1292c0 33.333 11.501 61.5 34.501 84.5s52.5 34.5 88.5 34.5c34.667 0 63.5 -11.5 86.5 -34.5s34.5 -51.167 34.5 -84.5c0 -34 -11.333 -62.667 -34 -86s-52.334 -35 -89.001 -35c-35.333 0 -64.333 11.667 -87 35s-34 52 -34 86zM154.001 0v991h190v-991h-190z" />
    <glyph glyph-name="j" unicode="j" horiz-adv-x="518" 
d="M-96 -285c78 3.33301 136.5 20.501 175.5 51.501s65.167 73.5 78.5 127.5s20 144.667 20 272v825h191v-897c0 -206.667 -42.167 -346.334 -126.5 -419.001s-190.5 -109 -318.5 -109zM152 1292c0 33.333 11.498 61.5 34.498 84.5s52.167 34.5 87.5 34.5
s64.333 -11.333 87 -34s34 -51 34 -85c0 -34.667 -11.167 -63.5 -33.5 -86.5s-52.166 -34.5 -89.499 -34.5c-35.333 0 -64.166 11.667 -86.499 35s-33.5 52 -33.5 86z" />
    <glyph glyph-name="k" unicode="k" horiz-adv-x="997" 
d="M154 0v1458h190l4 -917c25.333 35.333 56.333 73.666 93 114.999l294 335h232l-396 -405l453 -586h-236l-348 473l-96 -104v-369h-190z" />
    <glyph glyph-name="l" unicode="l" horiz-adv-x="495" 
d="M154 0v1458h190v-1458h-190z" />
    <glyph glyph-name="m" unicode="m" horiz-adv-x="1763" 
d="M145 991h166.001l15 -162c74 122.667 181.667 184.334 323 185.001c65.333 0 123.5 -17.833 174.5 -53.5s89.833 -84.834 116.5 -147.501c81.333 134 194.666 201 339.999 201c98 0 178.833 -37.167 242.5 -111.5s95.5 -183.5 95.5 -327.5v-575h-186v553
c0 98 -19 173.333 -57 226s-92.333 79 -163 79c-60.667 0 -114.667 -23.333 -162 -70s-71 -106.667 -71 -180v-608h-186v586c0 84 -18.833 150.333 -56.5 199s-89.167 73 -154.5 73c-63.333 0 -119.5 -26.667 -168.5 -80s-73.5 -115.333 -73.5 -186v-592h-186v719
c-0.666992 109.333 -3.66699 200 -9 272z" />
    <glyph glyph-name="n" unicode="n" horiz-adv-x="1175" 
d="M145 991l167.999 -0.00195312l17 -168c31.333 57.333 77.333 103.5 138 138.5s127.334 52.5 200.001 52.5c104 0 190.333 -36.667 259 -110s103 -180.666 103 -321.999v-582h-190v561c0 93.333 -20.167 165.833 -60.5 217.5s-98.833 77.5 -175.5 77.5
c-68 0 -128.333 -25.667 -181 -77s-79 -113.666 -79 -186.999v-592h-190v719c-0.666992 109.333 -3.66699 200 -9 272z" />
    <glyph glyph-name="o" unicode="o" horiz-adv-x="1167" 
d="M78 487c0 160.667 48.6699 288.666 146.003 383.999s220 143 368 143c147.333 0 267.166 -47.333 359.499 -142s138.5 -216.667 138.5 -366c0 -106.667 -22.333 -200 -67 -280s-106.834 -141.5 -186.501 -184.5s-165.834 -64.5 -258.501 -64.5
c-144.667 0 -264.167 47.333 -358.5 142s-141.5 217.334 -141.5 368.001zM272.003 493.999c0 -108.667 29 -198.331 87 -268.998s131 -106 219 -106c89.333 0 163.833 35.5 223.5 106.5s89.5 162.5 89.5 274.5c0 103.333 -27.5 191.166 -82.5 263.499
s-129.833 108.5 -224.5 108.5c-96 0 -172 -35.833 -228 -107.5s-84 -161.834 -84 -270.501z" />
    <glyph glyph-name="p" unicode="p" horiz-adv-x="1210" 
d="M145 991h169.999l11 -172h4c82.667 130 205.334 195 368.001 195c124 0 227.5 -47 310.5 -141s124.5 -214.333 124.5 -361c0 -163.333 -44.667 -293.333 -134 -390s-200.333 -145 -333 -145c-67.333 0 -129.333 13.667 -186 41s-100.667 66.333 -132 117h-4v-541h-190
v1072c-0.666992 132.667 -3.66699 241 -9 325zM343.999 410c0 -80 27.8311 -147.167 83.498 -201.5s122.834 -81.5 201.501 -81.5c95.333 0 171 34 227 102s84 159.667 84 275c0 104 -27.667 189.667 -83 257s-128.666 101 -219.999 101
c-58.667 0 -112.667 -16.833 -162 -50.5s-83.5 -75 -102.5 -124s-28.5 -88.5 -28.5 -118.5v-159z" />
    <glyph glyph-name="q" unicode="q" horiz-adv-x="1196" 
d="M78 479c0 108.667 20.5 203.333 61.5 284s97.667 142.667 170 186s149.5 65 231.5 65c148.667 0 255.667 -58 321 -174l6 151h185c-5.33301 -74 -8.33301 -164 -9 -270v-1127h-190v564c-72 -120 -186 -180.333 -342 -181c-122.667 0 -225.667 47.167 -309 141.5
s-125 214.5 -125 360.5zM270 491.999c0 -107.333 27 -194.667 81 -262s127.333 -101 220 -101c83.333 0 151.333 29.5 204 88.5s79 123.167 79 192.5v176c0 81.333 -27 148 -81 200s-119 78 -195 78c-92.667 0 -167.167 -34 -223.5 -102s-84.5 -158 -84.5 -270z" />
    <glyph glyph-name="r" unicode="r" horiz-adv-x="696" 
d="M145 991h168l13 -198c25.333 69.333 63.833 123.5 115.5 162.5s107.834 58.5 168.501 58.5c12.667 0 30 -1.33301 52 -4v-181c-18.667 4 -40.667 6.33301 -66 7c-68.667 0 -127.834 -27 -177.501 -81s-74.5 -131 -74.5 -231v-524h-190v676
c-0.666992 128 -3.66699 233 -9 315z" />
    <glyph glyph-name="s" unicode="s" horiz-adv-x="841" 
d="M84 47l45.0029 146.002c80.667 -49.333 164 -74 250 -74c61.333 0 108.666 13 141.999 39s50 60.667 50 104c0 41.333 -13.833 75.166 -41.5 101.499s-75.834 51.166 -144.501 74.499c-181.333 62 -272 155.667 -272 281c0 83.333 32.167 153.333 96.5 210
s150.166 85 257.499 85c100 0 184.667 -20.667 254 -62l-47 -137c-68.667 39.333 -139.667 59 -213 59c-50.667 0 -90.667 -12.333 -120 -37s-44 -56.667 -44 -96c0 -34.667 12.5 -64 37.5 -88s76.5 -50 154.5 -78c95.333 -34 164 -74.333 206 -121s63 -105 63 -175
c0 -90 -34.333 -162.833 -103 -218.5s-162 -83.5 -280 -83.5c-108.667 0 -205.667 23.333 -291 70z" />
    <glyph glyph-name="t" unicode="t" horiz-adv-x="700" 
d="M37 846v145.001h156v185l186 55v-240h264v-145h-264v-516c0 -68.667 11 -118.334 33 -149.001s57.333 -46 106 -46c44.667 0 81 4 109 12l8 -143c-47.333 -18 -104 -27 -170 -27c-181.333 0 -272 113.333 -272 340v529h-156z" />
    <glyph glyph-name="u" unicode="u" horiz-adv-x="1169" 
d="M147 418v573h191v-540c0 -210 75.667 -315.333 227 -316c69.333 0 130 25 182 75s78 110.333 78 181v600h191v-717c0 -112.667 2.66699 -204 8 -274h-168l-16 168c-76.667 -126.667 -190 -190.334 -340 -191.001c-108.667 0 -194.667 37.333 -258 112
s-95 184.334 -95 329.001z" />
    <glyph glyph-name="v" unicode="v" horiz-adv-x="1024" 
d="M27 991h206l211 -583c24 -65.333 49.333 -139.333 76 -222c18.667 62 47 146.333 85 253l198 552h203l-404 -991h-186z" />
    <glyph glyph-name="w" unicode="w" horiz-adv-x="1550" 
d="M37 991l194.001 -0.00195312c130 -480.667 199.667 -752.334 209 -815.001h4c7.33301 53.333 92 325 254 815h162c146.667 -459.333 228.667 -731 246 -815h4c19.333 102.667 43.333 203 72 301l149 514h189l-328 -991h-176
c-112.667 346.667 -176.167 543.834 -190.5 591.501s-30.833 114.834 -49.5 201.501h-4c-22.667 -103.333 -52.334 -208.666 -89.001 -315.999l-165 -477h-176z" />
    <glyph glyph-name="x" unicode="x" horiz-adv-x="987" 
d="M14 0l365 507.999l-348 483h215c160.667 -233.333 244.667 -356 252 -368c32.667 56.667 113.667 179.334 243 368.001h209l-348 -477l359 -514h-218c-134.667 195.333 -222.667 325.666 -264 390.999c-15.333 -31.333 -99.333 -161.666 -252 -390.999h-213z" />
    <glyph glyph-name="y" unicode="y" horiz-adv-x="1001" 
d="M18 991l209 -0.000976562l226 -591c19.333 -49.333 41.666 -112.333 66.999 -189c26.667 92 47.334 158.667 62.001 200l202 580h205l-280 -708c-89.333 -225.333 -161.833 -381 -217.5 -467s-116.167 -149.667 -181.5 -191s-126.333 -67.333 -183 -78l-45 160
c103.333 32 183.833 87.333 241.5 166s86.5 131.334 86.5 158.001c0 11.333 -4.33301 27 -13 47z" />
    <glyph glyph-name="z" unicode="z" horiz-adv-x="909" 
d="M39 0v111l455 567l137 162h-553v151h788l-2 -117l-448 -561c-60 -74 -105 -127.667 -135 -161h593v-152h-835z" />
    <glyph glyph-name="braceleft" unicode="{" horiz-adv-x="593" 
d="M57 537l-0.000976562 108.001c54.667 0 96.334 11.333 125.001 34s43 62 43 118c0 41.333 -5.33301 97.333 -16 168s-16 126.667 -16 168c0 90.667 27 158.334 81 203.001s128 67 222 67h47v-119h-37c-56.667 0 -98.5 -14 -125.5 -42s-40.5 -72.667 -40.5 -134
c0 -36.667 5.16699 -85.834 15.5 -147.501s15.5 -110.834 15.5 -147.501c0 -120 -50.667 -194.333 -152 -223c101.333 -24.667 152 -99 152 -223c0 -38 -5.66699 -90 -17 -156c-9.33301 -57.333 -14 -105 -14 -143c0 -120 55.333 -180.333 166 -181h37v-116h-47
c-202 0 -303 94 -303 282c0 36.667 5.33301 92 16 166s16 128.667 16 164c0 102.667 -56 154 -168 154z" />
    <glyph glyph-name="bar" unicode="|" horiz-adv-x="503" 
d="M180 -512v2048h144v-2048h-144z" />
    <glyph glyph-name="braceright" unicode="}" horiz-adv-x="593" 
d="M51 -113l37 -0.000976562c110.667 0 166 60.333 166 181c0 38 -4.66699 85.667 -14 143c-10.667 65.333 -16.334 117.333 -17.001 156c0 124 50.667 199.667 152 227c-101.333 26 -152 99 -152 219c0 36.667 5.66699 88 17 154c9.33301 57.333 14 104.333 14 141
c0 61.333 -13.5 106 -40.5 134s-68.833 42 -125.5 42h-37v119h47c96.667 0 171.334 -23.167 224.001 -69.5s79 -113.166 79 -200.499c0 -35.333 -5.33301 -91.333 -16 -168c-10.667 -74 -16 -130 -16 -168c0 -56 14.167 -95.333 42.5 -118s69.5 -34 123.5 -34l2 -108
c-112 0 -168 -51.333 -168 -154c0 -35.333 5.33301 -90 16 -164s16 -129.333 16 -166c0 -188.667 -101 -282.667 -303 -282h-47v116z" />
    <glyph glyph-name="asciitilde" unicode="~" horiz-adv-x="1220" 
d="M92 426c0 110.667 23.667 191.167 71 241.5s107 75.5 179 75.5c41.333 0 81.333 -6.33301 120 -19s96.334 -37.667 173.001 -75c122 -57.333 206.667 -86 254 -86c72 0 108.667 58 110 174h129c0 -82.667 -9.66699 -146 -29 -190s-47.833 -76.5 -85.5 -97.5
s-79.834 -31.5 -126.501 -31.5c-40 0 -81.833 6.66699 -125.5 20s-101.5 37.333 -173.5 72c-128.667 60 -210 90 -244 90c-78 0 -119 -58 -123 -174h-129z" />
    <glyph glyph-name="uni00A0" unicode="&#xa0;" horiz-adv-x="446" 
 />
    <glyph glyph-name="exclamdown" unicode="&#xa1;" horiz-adv-x="483" 
d="M115 866c0 38 11.833 69.667 35.5 95s54.167 38 91.5 38c36.667 0 67 -12.5 91 -37.5s36 -56.833 36 -95.5s-11.833 -70.5 -35.5 -95.5s-54.167 -37.5 -91.5 -37.5c-36.667 0 -67 12.667 -91 38s-36 57 -36 95zM139 -397l31 970h145l31 -970h-207z" />
    <glyph glyph-name="cent" unicode="&#xa2;" 
d="M139 668c0 131.333 38.002 243.666 114.002 336.999s180 151 312 173v206h135v-202c83.333 -2 160.666 -20 231.999 -54l-43 -143c-60 34 -133.667 51 -221 51c-100 0 -181.333 -33.667 -244 -101s-94 -153 -94 -257c0 -107.333 31 -193.166 93 -257.499
s140.667 -96.5 236 -96.5c85.333 0 166 17 242 51l33 -137c-66.667 -35.333 -144.667 -56 -234 -62v-207h-135v209c-134.667 13.333 -239.334 64.333 -314.001 153s-112 201 -112 337z" />
    <glyph glyph-name="sterling" unicode="&#xa3;" 
d="M119 0l0.000976562 106c75.333 38.667 133.666 89.5 174.999 152.5s62 130.5 62 202.5c0 48 -3.33301 93.667 -10 137h-213v137h195c-15.333 87.333 -23 159 -23 215c0 120 37.667 217.333 113 292s173 112 293 112c95.333 0 172.333 -17 231 -51l-41 -146
c-50 28.667 -112.667 43 -188 43s-132.5 -22.167 -171.5 -66.5s-58.5 -107.5 -58.5 -189.5c0 -64 7.66699 -133.667 23 -209h303v-137h-285c2 -40 3 -71.667 3 -95c0 -140.667 -50.667 -255.667 -152 -345h624v-158h-880z" />
    <glyph glyph-name="currency" unicode="&#xa4;" 
d="M63 1073l97 97.999l143 -157c63.333 56 143.333 84 240 84c98 0 178.333 -27.333 241 -82l148 155l96 -98l-164 -145c49.333 -66 74 -146.667 74 -242c0 -104 -24.667 -188 -74 -252l154 -151l-94 -97l-142 160c-65.333 -57.333 -146.333 -86 -243 -86
c-98.667 0 -178.667 26.667 -240 80l-137 -154l-94 97l149 143c-52 70 -78 152.667 -78 248c0 98.667 27.333 183.334 82 254.001zM293 677.999c0 -87.333 24.667 -156.333 74 -207s106.666 -76 171.999 -76c70.667 0 129.834 25.333 177.501 76s71.5 121.667 71.5 213
c0 77.333 -22.833 143.166 -68.5 197.499s-105.167 81.5 -178.5 81.5s-133 -27.167 -179 -81.5s-69 -122.166 -69 -203.499z" />
    <glyph glyph-name="yen" unicode="&#xa5;" 
d="M33 1331h205l305 -606l309 606h203l-377 -620h268v-105h-325v-147h325v-105h-325v-354h-181v354h-323v105h323v147h-323v105h270z" />
    <glyph glyph-name="brokenbar" unicode="&#xa6;" horiz-adv-x="503" 
d="M180 356h144v-716h-144v716zM180 664v716h144v-716h-144z" />
    <glyph glyph-name="section" unicode="&#xa7;" horiz-adv-x="1097" 
d="M125 690c0 95.333 50.334 175.336 151.001 240.003c-50.667 44.667 -75.667 102.667 -75 174c0 87.333 36.333 158 109 212s166 81 280 81c110 0 208.333 -22.667 295 -68l-45 -123c-76.667 44 -162 66 -256 66c-63.333 0 -115 -13.833 -155 -41.5
s-60 -63.834 -60 -108.501c0 -36.667 15.5 -68.834 46.5 -96.501s102.167 -58.834 213.5 -93.501c134 -43.333 224.833 -90.333 272.5 -141s71.5 -112.334 71.5 -185.001c0 -100 -45 -182.667 -135 -248c54.667 -48.667 82 -110 82 -184
c0 -101.333 -40 -178.166 -120 -230.499s-174 -78.5 -282 -78.5c-139.333 0 -250.666 29.333 -333.999 88l52 123c81.333 -56 174.666 -84 279.999 -84c68.667 0 124 14.833 166 44.5s63 69.5 63 119.5c0 49.333 -19 88.833 -57 118.5s-102.667 59.834 -194 90.501
c-146.667 48.667 -244.834 97.667 -294.501 147s-74.5 108.666 -74.5 177.999zM281.001 717.003c0 -79.333 73 -144.332 219 -194.999c131.333 -47.333 211 -79.333 239 -96c50.667 40.667 76 92 76 154c0 83.333 -61.333 146.666 -184 189.999c-140 48 -226 82 -258 102
c-61.333 -42 -92 -93.667 -92 -155z" />
    <glyph glyph-name="dieresis" unicode="&#xa8;" horiz-adv-x="614" 
d="M10 1245c0 30 10.166 55.333 30.499 76s45.833 31 76.5 31c28 0 51.667 -10.333 71 -31s29 -46 29 -76c0 -29.333 -9.66699 -54.333 -29 -75s-43.666 -31 -72.999 -31c-30 0 -55 10.333 -75 31s-30 45.667 -30 75zM394.999 1245c0 30 10.1689 55.333 30.502 76
s45.166 31 74.499 31s53.666 -10.333 72.999 -31s29 -46 29 -76c0 -29.333 -9.66699 -54.333 -29 -75s-43.666 -31 -72.999 -31c-30.667 0 -55.834 10.167 -75.501 30.5s-29.5 45.5 -29.5 75.5z" />
    <glyph glyph-name="copyright" unicode="&#xa9;" horiz-adv-x="1386" 
d="M74 696c0 174 60.5 322.667 181.5 446s267.833 185 440.5 185c171.333 0 317 -61.667 437 -185s180 -272 180 -446c0 -176 -60 -325.833 -180 -449.5s-265.667 -185.5 -437 -185.5c-172.667 0 -319.5 61.833 -440.5 185.5s-181.5 273.5 -181.5 449.5zM180 690
c0 -152 50 -279.999 150 -383.999s222.667 -156 368 -156c143.333 0 264.5 52.5 363.5 157.5s148.5 234.5 148.5 388.5c0 152 -49.5 280.5 -148.5 385.5s-220.167 157.5 -363.5 157.5c-146 0 -268.833 -52.833 -368.5 -158.5s-149.5 -235.834 -149.5 -390.501zM354 684.001
c0 112.667 38.667 204.332 116 274.999s169 106 275 106c102 0 177.333 -18.333 226 -55l-25 -84c-57.333 32.667 -124.333 49 -201 49c-88.667 0 -157.834 -25.667 -207.501 -77s-74.5 -120.666 -74.5 -207.999c0 -83.333 25 -152 75 -206s120 -81 210 -81
c84 0 153.333 18.667 208 56l25 -80c-64 -44 -148 -66 -252 -66c-113.333 0 -204.166 34.5 -272.499 103.5s-102.5 158.167 -102.5 267.5z" />
    <glyph glyph-name="ordfeminine" unicode="&#xaa;" horiz-adv-x="731" 
d="M70 731c0 68.667 32.834 124.833 98.501 168.5s172.5 65.5 320.5 65.5v20c0 30.667 -12.5 58.5 -37.5 83.5s-63.5 37.5 -115.5 37.5c-70 0 -130 -18.333 -180 -55l-35 92c69.333 45.333 150.666 67.666 243.999 66.999c177.333 0 266 -96.667 266 -290v-213
c0 -59.333 4 -112.666 12 -159.999h-129l-12 86h-4c-57.333 -64 -128.333 -96 -213 -96c-65.333 0 -117.5 18.167 -156.5 54.5s-58.5 82.833 -58.5 139.5zM213.001 738.999c0 -30.667 11.5 -55.333 34.5 -74s51.167 -28 84.5 -28c50 0 89.5 16.5 118.5 49.5
s43.5 60.167 43.5 81.5v104c-110.667 0 -185.167 -12.333 -223.5 -37s-57.5 -56.667 -57.5 -96z" />
    <glyph glyph-name="guillemotleft" unicode="&#xab;" horiz-adv-x="880" 
d="M59 518l275 379h153l-278 -379l278 -381h-151zM406 518l274 379h151l-276 -379l279 -381h-154z" />
    <glyph glyph-name="logicalnot" unicode="&#xac;" horiz-adv-x="1220" 
d="M82 692v129h1057v-575h-138v446h-919z" />
    <glyph glyph-name="uni00AD" unicode="&#xad;" horiz-adv-x="636" 
d="M61 485v140h514v-140h-514z" />
    <glyph glyph-name="registered" unicode="&#xae;" horiz-adv-x="1044" 
d="M68 940c0 126.667 44.668 234.833 134.001 324.5s196.666 134.5 321.999 134.5c126 0 233.333 -44.5 322 -133.5s133 -197.5 133 -325.5c0 -129.333 -44.167 -238.833 -132.5 -328.5s-195.833 -134.5 -322.5 -134.5c-126 0 -233.5 44.833 -322.5 134.5
s-133.5 199.167 -133.5 328.5zM158.001 939.999c0 -108.667 35.835 -200.999 107.502 -276.999s158.5 -114 260.5 -114c101.333 0 187.833 38 259.5 114s107.5 167.667 107.5 275c0 108 -35.833 199.833 -107.5 275.5s-158.834 113.5 -261.501 113.5
c-100.667 0 -186.834 -37.833 -258.501 -113.5s-107.5 -166.834 -107.5 -273.501zM354.003 672l-0.000976562 514.001c54.667 8 103.334 12 146.001 12c139.333 0 209 -49 209 -147c0 -60.667 -33.667 -103 -101 -127c47.333 -8.66699 76 -50.334 86 -125.001
c10 -66.667 21 -109 33 -127h-88c-9.33301 10.667 -21 55 -35 133c-9.33301 58.667 -46 88 -110 88h-56v-221h-84zM438.002 956.001h58c83.333 0 125 28.667 125 86c0 60 -41 90.333 -123 91c-21.333 0 -41.333 -1.66699 -60 -5v-172z" />
    <glyph glyph-name="macron" unicode="&#xaf;" horiz-adv-x="614" 
d="M74 1200v115h471v-115h-471z" />
    <glyph glyph-name="degree" unicode="&#xb0;" horiz-adv-x="665" 
d="M59 1124c0 78.667 27 144.833 81 198.5s120 80.5 198 80.5c81.333 0 147.333 -26 198 -78s76 -115.333 76 -190c0 -80.667 -27.833 -147 -83.5 -199s-120.5 -78 -194.5 -78c-79.333 0 -145 25.833 -197 77.5s-78 114.5 -78 188.5zM178 1126
c0 -47.333 14.998 -87.166 44.998 -119.499s67.667 -48.5 113 -48.5c46.667 0 85.334 16.5 116.001 49.5s46 73.833 46 122.5c0 48 -14.167 88.833 -42.5 122.5s-68.166 50.5 -119.499 50.5c-48 0 -86.333 -17.333 -115 -52s-43 -76.334 -43 -125.001z" />
    <glyph glyph-name="plusminus" unicode="&#xb1;" horiz-adv-x="1220" 
d="M84 0v129h1055v-129h-1055zM84 649v129h459v396h137v-396h459v-129h-459v-407h-137v407h-459z" />
    <glyph glyph-name="uni00B2" unicode="&#xb2;" horiz-adv-x="739" 
d="M92 547l0.000976562 82c191.333 168.667 304.666 277.5 339.999 326.5s53 95.167 53 138.5c0 41.333 -13.667 74.833 -41 100.5s-65.333 38.5 -114 38.5c-58 0 -117.333 -21.333 -178 -64l-46 97c70.667 58.667 157.667 88 261 88c87.333 0 155.833 -22.333 205.5 -67
s74.5 -99.667 74.5 -165c0 -54 -16.5 -110 -49.5 -168s-129.833 -154 -290.5 -288h355v-119h-570z" />
    <glyph glyph-name="uni00B3" unicode="&#xb3;" horiz-adv-x="716" 
d="M74 596l39.002 106c62 -36.667 128 -55 198 -55c56 0 100.167 13.333 132.5 40s48.5 57.667 48.5 93c0 46.667 -21.833 81.667 -65.5 105s-95.834 35 -156.501 35h-59v98h59c51.333 0 95.666 11 132.999 33s56 52.667 56 92c0 29.333 -11.5 53.333 -34.5 72
s-55.167 28 -96.5 28c-63.333 0 -122 -18.333 -176 -55l-41 100c70.667 44 152.334 66 245.001 66c82.667 0 146.667 -18.167 192 -54.5s68 -83.166 68 -140.499c0 -39.333 -14 -75.5 -42 -108.5s-67 -59.5 -117 -79.5c60 -8 107.333 -30.333 142 -67s52 -80 52 -130
c0 -66.667 -30.167 -122.834 -90.5 -168.501s-140.833 -68.5 -241.5 -68.5s-182.334 19.667 -245.001 59z" />
    <glyph glyph-name="acute" unicode="&#xb4;" horiz-adv-x="614" 
d="M203 1114l182 297h207l-254 -297h-135z" />
    <glyph glyph-name="uni00B5" unicode="&#xb5;" horiz-adv-x="1169" 
d="M147 -406l0.000976562 1397h191v-555c0 -96 19.667 -169.833 59 -221.5s96.666 -77.5 171.999 -77.5c66.667 0 126 24.667 178 74s78 102.666 78 159.999v620h191v-717c0 -112.667 2.66699 -204 8 -274h-168l-16 170c-74.667 -126.667 -178 -190 -310 -190
c-96.667 0 -167.667 38 -213 114l7 -500h-177z" />
    <glyph glyph-name="paragraph" unicode="&#xb6;" horiz-adv-x="1079" 
d="M70 930c0 95.333 21.668 177.5 65.001 246.5s108 121.167 194 156.5s192.667 53 320 53c115.333 0 198.666 -6 249.999 -18v-1468h-135v1355h-150v-1355h-135v639h-14c-98.667 0 -189.167 36.167 -271.5 108.5s-123.5 166.5 -123.5 282.5z" />
    <glyph glyph-name="periodcentered" unicode="&#xb7;" horiz-adv-x="434" 
d="M88 559c0 38.667 12.167 70.834 36.5 96.501s55.166 38.5 92.499 38.5s67.833 -12.333 91.5 -37s35.5 -57.334 35.5 -98.001c0 -38 -12.167 -69.667 -36.5 -95s-55.166 -38 -92.499 -38c-36.667 0 -67 12.833 -91 38.5s-36 57.167 -36 94.5z" />
    <glyph glyph-name="cedilla" unicode="&#xb8;" horiz-adv-x="614" 
d="M106 -373l30.999 88c36.667 -19.333 74.334 -28.666 113.001 -27.999c58.667 0 88 21 88 63c0 47.333 -54 75.333 -162 84l98 170h115l-65 -106c42 -5.33301 76.333 -21 103 -47s40 -57 40 -93c0 -54.667 -19.333 -96.334 -58 -125.001s-92.334 -43 -161.001 -43
c-55.333 0 -102.666 12.333 -141.999 37z" />
    <glyph glyph-name="uni00B9" unicode="&#xb9;" horiz-adv-x="669" 
d="M127 1253l195 90h133v-796h-152l-4 665l-147 -69z" />
    <glyph glyph-name="ordmasculine" unicode="&#xba;" horiz-adv-x="745" 
d="M35 866c0 102.667 32.999 185.666 98.999 248.999s146.333 95 241 95c100.667 0 181.834 -31 243.501 -93s92.5 -141.333 92.5 -238c0 -109.333 -33.833 -193.666 -101.5 -252.999s-147.167 -89 -238.5 -89c-96 0 -176 31 -240 93s-96 140.667 -96 236zM181.999 869.999
c0 -65.333 19.168 -119.499 57.501 -162.499s83.5 -64.5 135.5 -64.5c56 0 102 21.167 138 63.5s54 98.166 54 167.499c0 61.333 -17.333 115 -52 161s-81.334 69 -140.001 69s-105.5 -23 -140.5 -69s-52.5 -101 -52.5 -165z" />
    <glyph glyph-name="guillemotright" unicode="&#xbb;" horiz-adv-x="880" 
d="M47 897h152l276 -379l-276 -381h-150l279 381zM391 137l279 381l-279 379h150l278 -379l-276 -381h-152z" />
    <glyph glyph-name="onequarter" unicode="&#xbc;" horiz-adv-x="1599" 
d="M90 1253l195 90h133v-796h-152l-4 665l-147 -69zM297 -23l782 1377h123l-786 -1377h-119zM834 207v84l405 518h162v-498h125v-104h-125v-207h-144v207h-423zM989 311h268v242l3 127c-34 -57.333 -57.333 -94 -70 -110z" />
    <glyph glyph-name="onehalf" unicode="&#xbd;" horiz-adv-x="1599" 
d="M61 1253l195 90h133v-796h-151l-5 665l-147 -69zM258 -23l782 1377h121l-784 -1377h-119zM928 0l-0.000976562 82.001c192 172 305.5 282.167 340.5 330.5s52.5 93.833 52.5 136.5c0 41.333 -13.667 74.833 -41 100.5s-65.666 38.5 -114.999 38.5
c-59.333 0 -118 -21 -176 -63l-45 96c70.667 58.667 156.667 88 258 88c87.333 0 156 -22.333 206 -67s75 -99.334 75 -164.001c0 -47.333 -14.167 -97.833 -42.5 -151.5s-126.833 -156.167 -295.5 -307.5h352v-119h-569z" />
    <glyph glyph-name="threequarters" unicode="&#xbe;" horiz-adv-x="1599" 
d="M61 596l39 103.999c60 -35.333 126.333 -53 199 -53c56 0 100 13.333 132 40s48 57.667 48 93c0 44 -20.667 78.333 -62 103s-94.333 37 -159 37h-59v98h59c51.333 0 95.5 11 132.5 33s55.5 52.667 55.5 92c0 28 -10.667 51.667 -32 71s-54.333 29 -99 29
c-59.333 0 -118 -18.333 -176 -55l-41 100c70.667 44 152.667 66 246 66c82.667 0 146.667 -18.167 192 -54.5s68 -83.166 68 -140.499c0 -39.333 -14 -75.5 -42 -108.5s-67.333 -58.167 -118 -75.5v-4c60 -8 107.5 -30.333 142.5 -67s52.5 -80 52.5 -130
c0 -66 -29.5 -122 -88.5 -168s-140.167 -69 -243.5 -69c-101.333 0 -183.333 19.667 -246 59zM375 -23.001l784 1377h121l-784 -1377h-121zM858 206.999v84l404 518h161v-498h125v-104h-125v-207h-143v207h-422zM1014 310.999l266 0.000976562v242
c0 11.333 0.666992 53.666 2 126.999l-40 -67c-12.667 -20.667 -37.667 -54.667 -75 -102z" />
    <glyph glyph-name="questiondown" unicode="&#xbf;" horiz-adv-x="860" 
d="M121 -123c0 44.667 10.168 91.5 30.501 140.5s70.166 119.5 149.499 211.5c31.333 35.333 59 75.333 83 120s36 103.667 36 177l-2 54h170c3.33301 -47.333 5 -75.666 5 -84.999c0 -110 -44 -216.333 -132 -319c-54 -62.667 -91.5 -114.5 -112.5 -155.5
s-31.5 -80.5 -31.5 -118.5c0 -54.667 17 -97.334 51 -128.001s82 -46 144 -46c82.667 0 155 22.333 217 67l51 -137c-86.667 -57.333 -189 -86 -307 -86c-109.333 0 -195.333 28.667 -258 86s-94 130.333 -94 219zM373.001 866c0 38.667 12 70.5 36 95.5s55 37.5 93 37.5
c37.333 0 67.833 -12.333 91.5 -37s35.5 -56.667 35.5 -96c0 -38.667 -12 -70.5 -36 -95.5s-55 -37.5 -93 -37.5c-36.667 0 -67 12.667 -91 38s-36 57 -36 95z" />
    <glyph glyph-name="Agrave" unicode="&#xc0;" horiz-adv-x="1302" 
d="M51 0l484 1380h233l487 -1380h-204l-152 430h-504l-145 -430h-199zM434 578l425.999 -0.000976562c-123.333 346.667 -195.666 560.334 -216.999 641.001c-30 -114 -99.667 -327.667 -209 -641zM338.999 1729h230l188 -242h-154z" />
    <glyph glyph-name="Aacute" unicode="&#xc1;" horiz-adv-x="1302" 
d="M51 0l484 1380h233l487 -1380h-204l-152 430h-504l-145 -430h-199zM434 578l425.999 -0.000976562c-123.333 346.667 -195.666 560.334 -216.999 641.001c-30 -114 -99.667 -327.667 -209 -641zM507.999 1484l191 244h227l-262 -244h-156z" />
    <glyph glyph-name="Acircumflex" unicode="&#xc2;" horiz-adv-x="1302" 
d="M51 0l484 1380h233l487 -1380h-204l-152 430h-504l-145 -430h-199zM434 578l425.999 -0.000976562c-123.333 346.667 -195.666 560.334 -216.999 641.001c-30 -114 -99.667 -327.667 -209 -641zM378.999 1485l213 244h139l217 -244h-156l-133 149l-131 -149h-149z" />
    <glyph glyph-name="Atilde" unicode="&#xc3;" horiz-adv-x="1302" 
d="M51 0l484 1380h233l487 -1380h-204l-152 430h-504l-145 -430h-199zM434 578l425.999 -0.000976562c-123.333 346.667 -195.666 560.334 -216.999 641.001c-30 -114 -99.667 -327.667 -209 -641zM389.999 1495c0 72 13.332 124.5 39.999 157.5s59.667 49.5 99 49.5
c34 0 77 -13.667 129 -41c46.667 -24.667 80.334 -37 101.001 -37c18.667 0 32.5 5.83301 41.5 17.5s14.833 34.5 17.5 68.5h96c0 -135.333 -47 -203 -141 -203c-32 0 -75 13 -129 39c-54.667 26 -88.667 39 -102 39c-28.667 0 -46.667 -30 -54 -90h-98z" />
    <glyph glyph-name="Adieresis" unicode="&#xc4;" horiz-adv-x="1302" 
d="M51 0l484 1380h233l487 -1380h-204l-152 430h-504l-145 -430h-199zM434 578l425.999 -0.000976562c-123.333 346.667 -195.666 560.334 -216.999 641.001c-30 -114 -99.667 -327.667 -209 -641zM360.999 1612c0 29.333 10.3311 54.333 30.998 75s46 31 76 31
c28.667 0 52.834 -10.333 72.501 -31s29.5 -45.667 29.5 -75s-9.66699 -54.5 -29 -75.5s-43.666 -31.5 -72.999 -31.5c-30 0 -55.333 10.5 -76 31.5s-31 46.167 -31 75.5zM745.997 1612c0 29.333 10.167 54.333 30.5 75s45.166 31 74.499 31s54 -10.167 74 -30.5
s30 -45.5 30 -75.5c0 -29.333 -9.66699 -54.5 -29 -75.5s-43.666 -31.5 -72.999 -31.5c-30.667 0 -56.167 10.5 -76.5 31.5s-30.5 46.167 -30.5 75.5z" />
    <glyph glyph-name="Aring" unicode="&#xc5;" horiz-adv-x="1302" 
d="M51 0l477 1360c-65.333 27.333 -98 77 -98 149c0 55.333 20.5 102 61.5 140s96.167 57 165.5 57s124.333 -18 165 -54s61 -83.667 61 -143c0 -75.333 -36.333 -126.333 -109 -153l479 -1356h-204l-152 430h-502l-145 -430h-199zM434 578h428l-154 433l-65 206
c-17.333 -77.333 -37 -148.333 -59 -213zM545 1511c0 -30 10.167 -55.499 30.5 -76.499s46.833 -31.5 79.5 -31.5c34 0 61.333 10.333 82 31s31 48 31 82c0 33.333 -10.167 60.333 -30.5 81s-47.833 31 -82.5 31c-34 0 -60.833 -10.833 -80.5 -32.5
s-29.5 -49.834 -29.5 -84.501z" />
    <glyph glyph-name="AE" unicode="&#xc6;" horiz-adv-x="1679" 
d="M-4 0l653 1380h903v-157h-608l55 -426h533v-158h-508l63 -481h523v-158h-686l-64 483h-440l-227 -483h-197zM485 637h353c-46.667 370.667 -74 572.667 -82 606c-24.667 -62 -54 -130.333 -88 -205z" />
    <glyph glyph-name="Ccedilla" unicode="&#xc7;" horiz-adv-x="1239" 
d="M76 678c0 212 68.834 385.83 206.501 521.497s318.5 203.5 542.5 203.5c141.333 0 256.666 -21.333 345.999 -64l-47 -153c-86 39.333 -182.667 59 -290 59c-171.333 0 -307.166 -50.333 -407.499 -151s-150.5 -238 -150.5 -412c0 -165.333 48.167 -297.5 144.5 -396.5
s230.5 -148.5 402.5 -148.5c118 0 220.333 20 307 60l39 -152c-96 -45.333 -225.667 -68 -389 -68l-51 -77c43.333 -7.33301 78 -24.666 104 -51.999s39 -59.333 39 -96c0 -52 -19.333 -92 -58 -120s-91.667 -42 -159 -42c-52.667 0 -100.334 11.667 -143.001 35l31 90
c34 -19.333 71.333 -28.666 112 -27.999c57.333 0 86 21 86 63c0 47.333 -53 75.333 -159 84l86 152c-186.667 24.667 -332 98.334 -436 221.001s-156 279.667 -156 471z" />
    <glyph glyph-name="Egrave" unicode="&#xc8;" horiz-adv-x="1044" 
d="M158 0v1380h778v-157h-588v-424h555v-158h-555v-483h621v-158h-811zM266 1729h230l188 -242h-154z" />
    <glyph glyph-name="Eacute" unicode="&#xc9;" horiz-adv-x="1044" 
d="M158 0v1380h778v-157h-588v-424h555v-158h-555v-483h621v-158h-811zM447 1484l191 244h227l-262 -244h-156z" />
    <glyph glyph-name="Ecircumflex" unicode="&#xca;" horiz-adv-x="1044" 
d="M158 0v1380h778v-157h-588v-424h555v-158h-555v-483h621v-158h-811zM265 1485l213 244h139l217 -244h-156l-133 149l-131 -149h-149z" />
    <glyph glyph-name="Edieresis" unicode="&#xcb;" horiz-adv-x="1044" 
d="M158 0v1380h778v-157h-588v-424h555v-158h-555v-483h621v-158h-811zM255 1612c0 29.333 10.3311 54.333 30.998 75s46 31 76 31c28.667 0 52.834 -10.333 72.501 -31s29.5 -45.667 29.5 -75s-9.66699 -54.5 -29 -75.5s-43.666 -31.5 -72.999 -31.5
c-30 0 -55.333 10.5 -76 31.5s-31 46.167 -31 75.5zM639.998 1612c0 29.333 10.167 54.333 30.5 75s45.166 31 74.499 31s54 -10.167 74 -30.5s30 -45.5 30 -75.5c0 -29.333 -9.66699 -54.5 -29 -75.5s-43.666 -31.5 -72.999 -31.5c-30.667 0 -56.167 10.5 -76.5 31.5
s-30.5 46.167 -30.5 75.5z" />
    <glyph glyph-name="Igrave" unicode="&#xcc;" horiz-adv-x="505" 
d="M158 0v1380h190v-1380h-190zM-50 1729h230l188 -242h-154z" />
    <glyph glyph-name="Iacute" unicode="&#xcd;" horiz-adv-x="505" 
d="M158 0v1380h190v-1380h-190zM149 1484l191 244h227l-262 -244h-156z" />
    <glyph glyph-name="Icircumflex" unicode="&#xce;" horiz-adv-x="505" 
d="M158 0v1380h190v-1380h-190zM-29 1485l213 244h139l217 -244h-156l-133 149l-131 -149h-149z" />
    <glyph glyph-name="Idieresis" unicode="&#xcf;" horiz-adv-x="505" 
d="M159 0v1380h190v-1380h-190zM-42 1612c0 29.333 10.3311 54.333 30.998 75s46 31 76 31c28.667 0 52.834 -10.333 72.501 -31s29.5 -45.667 29.5 -75s-9.66699 -54.5 -29 -75.5s-43.666 -31.5 -72.999 -31.5c-30 0 -55.333 10.5 -76 31.5s-31 46.167 -31 75.5z
M342.998 1612c0 29.333 10.167 54.333 30.5 75s45.166 31 74.499 31s54 -10.167 74 -30.5s30 -45.5 30 -75.5c0 -29.333 -9.66699 -54.5 -29 -75.5s-43.666 -31.5 -72.999 -31.5c-30.667 0 -56.167 10.5 -76.5 31.5s-30.5 46.167 -30.5 75.5z" />
    <glyph glyph-name="Eth" unicode="&#xd0;" horiz-adv-x="1431" 
d="M-2 623l-0.000976562 152.998h170v590c128.667 20.667 262.334 31 401.001 31c268.667 0 466.667 -61.167 594 -183.5s191 -285.166 191 -488.499c0 -227.333 -69.833 -407.666 -209.5 -540.999s-351.167 -200 -634.5 -200c-127.333 0 -241.333 5.33301 -342 16v623h-170
zM357.999 142.998c27.333 -5.33301 90.334 -8 189.001 -8c195.333 0 345.166 50.667 449.499 152s156.5 246 156.5 434c0 170 -49.167 300.167 -147.5 390.5s-240.833 135.5 -427.5 135.5c-86.667 0 -160 -6 -220 -18v-453h381v-153h-381v-480z" />
    <glyph glyph-name="Ntilde" unicode="&#xd1;" horiz-adv-x="1398" 
d="M158 0l0.000976562 1380h213l452 -690c103.333 -156 189.333 -304.667 258 -446c-13.333 125.333 -20 312.333 -20 561v575h178v-1380h-195l-448 692c-112.667 174.667 -203.334 329 -272.001 463c8 -133.333 12 -321 12 -563v-592h-178zM457.001 1485
c0 72 13.332 124.5 39.999 157.5s59.667 49.5 99 49.5c34 0 77 -13.667 129 -41c46.667 -24.667 80.334 -37 101.001 -37c18.667 0 32.5 5.83301 41.5 17.5s14.833 34.5 17.5 68.5h96c0 -135.333 -47 -203 -141 -203c-32 0 -75 13 -129 39c-54.667 26 -88.667 39 -102 39
c-28.667 0 -46.667 -30 -54 -90h-98z" />
    <glyph glyph-name="Ograve" unicode="&#xd2;" horiz-adv-x="1472" 
d="M76 676c0 215.333 62.833 390.334 188.5 525.001s285.167 202 478.5 202c194 0 351.5 -65 472.5 -195s181.5 -297.667 181.5 -503c0 -221.333 -62.667 -398 -188 -530s-286 -198 -482 -198c-192 0 -348.5 65.167 -469.5 195.5s-181.5 298.166 -181.5 503.499z
M274 682.001c0 -154.667 42.501 -285.166 127.501 -391.499s194.833 -159.5 329.5 -159.5c139.333 0 251.333 52.667 336 158s127 241 127 407c0 154 -41.833 284.667 -125.5 392s-194.834 161 -333.501 161c-140.667 0 -252.667 -53.333 -336 -160
s-125 -242.334 -125 -407.001zM422.001 1729h230l188 -242h-154z" />
    <glyph glyph-name="Oacute" unicode="&#xd3;" horiz-adv-x="1472" 
d="M76 676c0 215.333 62.833 390.334 188.5 525.001s285.167 202 478.5 202c194 0 351.5 -65 472.5 -195s181.5 -297.667 181.5 -503c0 -221.333 -62.667 -398 -188 -530s-286 -198 -482 -198c-192 0 -348.5 65.167 -469.5 195.5s-181.5 298.166 -181.5 503.499z
M274 682.001c0 -154.667 42.501 -285.166 127.501 -391.499s194.833 -159.5 329.5 -159.5c139.333 0 251.333 52.667 336 158s127 241 127 407c0 154 -41.833 284.667 -125.5 392s-194.834 161 -333.501 161c-140.667 0 -252.667 -53.333 -336 -160
s-125 -242.334 -125 -407.001zM651.001 1484l191 244h227l-262 -244h-156z" />
    <glyph glyph-name="Ocircumflex" unicode="&#xd4;" horiz-adv-x="1472" 
d="M76 676c0 215.333 62.833 390.334 188.5 525.001s285.167 202 478.5 202c194 0 351.5 -65 472.5 -195s181.5 -297.667 181.5 -503c0 -221.333 -62.667 -398 -188 -530s-286 -198 -482 -198c-192 0 -348.5 65.167 -469.5 195.5s-181.5 298.166 -181.5 503.499z
M274 682.001c0 -154.667 42.501 -285.166 127.501 -391.499s194.833 -159.5 329.5 -159.5c139.333 0 251.333 52.667 336 158s127 241 127 407c0 154 -41.833 284.667 -125.5 392s-194.834 161 -333.501 161c-140.667 0 -252.667 -53.333 -336 -160
s-125 -242.334 -125 -407.001zM453.001 1485l213 244h139l217 -244h-156l-133 149l-131 -149h-149z" />
    <glyph glyph-name="Otilde" unicode="&#xd5;" horiz-adv-x="1472" 
d="M76 676c0 215.333 62.833 390.334 188.5 525.001s285.167 202 478.5 202c194 0 351.5 -65 472.5 -195s181.5 -297.667 181.5 -503c0 -221.333 -62.667 -398 -188 -530s-286 -198 -482 -198c-192 0 -348.5 65.167 -469.5 195.5s-181.5 298.166 -181.5 503.499z
M274 682.001c0 -154.667 42.501 -285.166 127.501 -391.499s194.833 -159.5 329.5 -159.5c139.333 0 251.333 52.667 336 158s127 241 127 407c0 154 -41.833 284.667 -125.5 392s-194.834 161 -333.501 161c-140.667 0 -252.667 -53.333 -336 -160
s-125 -242.334 -125 -407.001zM474.001 1495c0 72 13.332 124.5 39.999 157.5s59.667 49.5 99 49.5c34 0 77 -13.667 129 -41c46.667 -24.667 80.334 -37 101.001 -37c18.667 0 32.5 5.83301 41.5 17.5s14.833 34.5 17.5 68.5h96c0 -135.333 -47 -203 -141 -203
c-32 0 -75 13 -129 39c-54.667 26 -88.667 39 -102 39c-28.667 0 -46.667 -30 -54 -90h-98z" />
    <glyph glyph-name="Odieresis" unicode="&#xd6;" horiz-adv-x="1472" 
d="M76 676c0 215.333 62.833 390.334 188.5 525.001s285.167 202 478.5 202c194 0 351.5 -65 472.5 -195s181.5 -297.667 181.5 -503c0 -221.333 -62.667 -398 -188 -530s-286 -198 -482 -198c-192 0 -348.5 65.167 -469.5 195.5s-181.5 298.166 -181.5 503.499z
M274 682.001c0 -154.667 42.501 -285.166 127.501 -391.499s194.833 -159.5 329.5 -159.5c139.333 0 251.333 52.667 336 158s127 241 127 407c0 154 -41.833 284.667 -125.5 392s-194.834 161 -333.501 161c-140.667 0 -252.667 -53.333 -336 -160
s-125 -242.334 -125 -407.001zM439.001 1612c0 29.333 10.3311 54.333 30.998 75s46 31 76 31c28.667 0 52.834 -10.333 72.501 -31s29.5 -45.667 29.5 -75s-9.66699 -54.5 -29 -75.5s-43.666 -31.5 -72.999 -31.5c-30 0 -55.333 10.5 -76 31.5s-31 46.167 -31 75.5z
M823.999 1612c0 29.333 10.167 54.333 30.5 75s45.166 31 74.499 31s54 -10.167 74 -30.5s30 -45.5 30 -75.5c0 -29.333 -9.66699 -54.5 -29 -75.5s-43.666 -31.5 -72.999 -31.5c-30.667 0 -56.167 10.5 -76.5 31.5s-30.5 46.167 -30.5 75.5z" />
    <glyph glyph-name="multiply" unicode="&#xd7;" horiz-adv-x="1220" 
d="M82 94l434 447l-434 444l94 94l434 -444l434 444l95 -94l-434 -444l434 -447l-95 -94l-434 444l-434 -444z" />
    <glyph glyph-name="Oslash" unicode="&#xd8;" horiz-adv-x="1472" 
d="M76 682c0 211.333 63 384.333 189 519s285.333 202 478 202c134 0 253 -36.333 357 -109l127 168l114 -80l-131 -174c124 -133.333 186.333 -302 187 -506c0 -220.667 -62.5 -396.667 -187.5 -528s-281.833 -197 -470.5 -197c-135.333 0 -255.333 36.333 -360 109
l-135 -178l-109 88l131 176c-126.667 136 -190 306 -190 510zM270 692c0 -129.333 35 -251.333 105 -366l631 833c-76 62.667 -165 94 -267 94c-142 0 -255.667 -53.5 -341 -160.5s-128 -240.5 -128 -400.5zM473 221c72.667 -62.667 160 -94 262 -94
c140 0 252.833 53.667 338.5 161s128.5 243.333 128.5 408c0 131.333 -33.333 249 -100 353h-4z" />
    <glyph glyph-name="Ugrave" unicode="&#xd9;" horiz-adv-x="1376" 
d="M158 582l0.000976562 797.999h190v-805c0 -144 29.167 -254 87.5 -330s140.5 -114 246.5 -114c111.333 0 196.833 37.833 256.5 113.5s89.5 185.834 89.5 330.501v805h191v-792c0 -198 -47.5 -349.333 -142.5 -454s-229.167 -157 -402.5 -157
c-166.667 0 -294.334 51.333 -383.001 154s-133 253 -133 451zM391.001 1729h230l188 -242h-154z" />
    <glyph glyph-name="Uacute" unicode="&#xda;" horiz-adv-x="1376" 
d="M158 582l0.000976562 797.999h190v-805c0 -144 29.167 -254 87.5 -330s140.5 -114 246.5 -114c111.333 0 196.833 37.833 256.5 113.5s89.5 185.834 89.5 330.501v805h191v-792c0 -198 -47.5 -349.333 -142.5 -454s-229.167 -157 -402.5 -157
c-166.667 0 -294.334 51.333 -383.001 154s-133 253 -133 451zM596.001 1484l191 244h227l-262 -244h-156z" />
    <glyph glyph-name="Ucircumflex" unicode="&#xdb;" horiz-adv-x="1376" 
d="M158 582l0.000976562 797.999h190v-805c0 -144 29.167 -254 87.5 -330s140.5 -114 246.5 -114c111.333 0 196.833 37.833 256.5 113.5s89.5 185.834 89.5 330.501v805h191v-792c0 -198 -47.5 -349.333 -142.5 -454s-229.167 -157 -402.5 -157
c-166.667 0 -294.334 51.333 -383.001 154s-133 253 -133 451zM420.001 1485l213 244h139l217 -244h-156l-133 149l-131 -149h-149z" />
    <glyph glyph-name="Udieresis" unicode="&#xdc;" horiz-adv-x="1376" 
d="M158 582l0.000976562 797.999h190v-805c0 -144 29.167 -254 87.5 -330s140.5 -114 246.5 -114c111.333 0 196.833 37.833 256.5 113.5s89.5 185.834 89.5 330.501v805h191v-792c0 -198 -47.5 -349.333 -142.5 -454s-229.167 -157 -402.5 -157
c-166.667 0 -294.334 51.333 -383.001 154s-133 253 -133 451zM396.001 1612c0 29.333 10.3311 54.333 30.998 75s46 31 76 31c28.667 0 52.834 -10.333 72.501 -31s29.5 -45.667 29.5 -75s-9.66699 -54.5 -29 -75.5s-43.666 -31.5 -72.999 -31.5
c-30 0 -55.333 10.5 -76 31.5s-31 46.167 -31 75.5zM780.999 1612c0 29.333 10.167 54.333 30.5 75s45.166 31 74.499 31s54 -10.167 74 -30.5s30 -45.5 30 -75.5c0 -29.333 -9.66699 -54.5 -29 -75.5s-43.666 -31.5 -72.999 -31.5c-30.667 0 -56.167 10.5 -76.5 31.5
s-30.5 46.167 -30.5 75.5z" />
    <glyph glyph-name="Yacute" unicode="&#xdd;" horiz-adv-x="1153" 
d="M27 1380h219c194.667 -371.333 308 -591.666 340 -660.999c22 53.333 137.333 273.666 346 660.999h217l-479 -792v-588h-191v584zM502 1484l191 244h227l-262 -244h-156z" />
    <glyph glyph-name="Thorn" unicode="&#xde;" horiz-adv-x="1126" 
d="M158 0l0.000976562 1380h188v-268c61.333 10.667 129.666 16 204.999 16c163.333 0 286 -36.5 368 -109.5s123 -164.167 123 -273.5c0 -139.333 -47.5 -247.833 -142.5 -325.5s-224.833 -116.5 -389.5 -116.5c-60 0 -114.667 3.33301 -164 10v-313h-188zM346.001 469
c35.333 -9.33301 89.333 -14 162 -14c108.667 0 193.167 24 253.5 72s90.5 114 90.5 198c0 82 -27.833 144.833 -83.5 188.5s-134.5 65.5 -236.5 65.5c-77.333 0 -139.333 -5.33301 -186 -16v-494z" />
    <glyph glyph-name="germandbls" unicode="&#xdf;" horiz-adv-x="1157" 
d="M154 0l0.000976562 922c0 194.667 40.5 336.5 121.5 425.5s193.167 133.5 336.5 133.5c109.333 0 199.833 -32.333 271.5 -97s107.5 -150 107.5 -256c0 -66.667 -16.333 -121.667 -49 -165c-96.667 -43.333 -145 -98 -145 -164c0 -32 7.83301 -60.167 23.5 -84.5
s41.834 -54.166 78.501 -89.499c73.333 -73.333 120 -133.333 140 -180s30 -92.667 30 -138c0 -98.667 -33.833 -178.334 -101.5 -239.001s-158.834 -91 -273.501 -91c-90.667 0 -165 14.333 -223 43l33 146c59.333 -27.333 117.333 -41 174 -41
c61.333 0 110.166 15.667 146.499 47s54.5 71.666 54.5 120.999c0 36.667 -8 70.167 -24 100.5s-44.333 64.5 -85 102.5c-67.333 62.667 -111.5 114.334 -132.5 155.001s-31.5 81 -31.5 121c0 106 60.667 190.667 182 254c12 24.667 18.333 52.667 19 84
c0 67.333 -19.5 121 -58.5 161s-91.167 60 -156.5 60c-85.333 0 -148 -32.333 -188 -97s-60 -164.667 -60 -300v-934h-190z" />
    <glyph glyph-name="agrave" unicode="&#xe0;" horiz-adv-x="1021" 
d="M74 262c0 120 52.166 211.832 156.499 275.499s256.833 95.5 457.5 95.5v18c0 70 -19.333 124.667 -58 164s-95.667 59 -171 59c-101.333 0 -191.666 -25 -270.999 -75l-43 125c95.333 60 209.333 90 342 90c129.333 0 227 -35.5 293 -106.5s99 -173.5 99 -307.5v-362
c0 -98 5.33301 -177.333 16 -238h-174l-23 127c-74.667 -100 -179 -150 -313 -150c-94 0 -169.333 27.833 -226 83.5s-85 122.834 -85 201.501zM265.999 286.999c0 -52.667 15.5 -93.834 46.5 -123.501s72.167 -44.5 123.5 -44.5c72.667 0 133.5 22.333 182.5 67
s73.5 95.334 73.5 152.001v164c-160 0 -271 -19.167 -333 -57.5s-93 -90.833 -93 -157.5zM204.999 1411h207l182 -297h-135z" />
    <glyph glyph-name="aacute" unicode="&#xe1;" horiz-adv-x="1021" 
d="M74 262c0 120 52.166 211.832 156.499 275.499s256.833 95.5 457.5 95.5v18c0 70 -19.333 124.667 -58 164s-95.667 59 -171 59c-101.333 0 -191.666 -25 -270.999 -75l-43 125c95.333 60 209.333 90 342 90c129.333 0 227 -35.5 293 -106.5s99 -173.5 99 -307.5v-362
c0 -98 5.33301 -177.333 16 -238h-174l-23 127c-74.667 -100 -179 -150 -313 -150c-94 0 -169.333 27.833 -226 83.5s-85 122.834 -85 201.501zM265.999 286.999c0 -52.667 15.5 -93.834 46.5 -123.501s72.167 -44.5 123.5 -44.5c72.667 0 133.5 22.333 182.5 67
s73.5 95.334 73.5 152.001v164c-160 0 -271 -19.167 -333 -57.5s-93 -90.833 -93 -157.5zM399.999 1114l182 297h207l-254 -297h-135z" />
    <glyph glyph-name="acircumflex" unicode="&#xe2;" horiz-adv-x="1021" 
d="M74 262c0 120 52.166 211.832 156.499 275.499s256.833 95.5 457.5 95.5v18c0 70 -19.333 124.667 -58 164s-95.667 59 -171 59c-101.333 0 -191.666 -25 -270.999 -75l-43 125c95.333 60 209.333 90 342 90c129.333 0 227 -35.5 293 -106.5s99 -173.5 99 -307.5v-362
c0 -98 5.33301 -177.333 16 -238h-174l-23 127c-74.667 -100 -179 -150 -313 -150c-94 0 -169.333 27.833 -226 83.5s-85 122.834 -85 201.501zM265.999 286.999c0 -52.667 15.5 -93.834 46.5 -123.501s72.167 -44.5 123.5 -44.5c72.667 0 133.5 22.333 182.5 67
s73.5 95.334 73.5 152.001v164c-160 0 -271 -19.167 -333 -57.5s-93 -90.833 -93 -157.5zM239.999 1114l197 297h129l200 -297h-143l-125 195l-119 -195h-139z" />
    <glyph glyph-name="atilde" unicode="&#xe3;" horiz-adv-x="1021" 
d="M74 262c0 120 52.166 211.832 156.499 275.499s256.833 95.5 457.5 95.5v18c0 70 -19.333 124.667 -58 164s-95.667 59 -171 59c-101.333 0 -191.666 -25 -270.999 -75l-43 125c95.333 60 209.333 90 342 90c129.333 0 227 -35.5 293 -106.5s99 -173.5 99 -307.5v-362
c0 -98 5.33301 -177.333 16 -238h-174l-23 127c-74.667 -100 -179 -150 -313 -150c-94 0 -169.333 27.833 -226 83.5s-85 122.834 -85 201.501zM265.999 286.999c0 -52.667 15.5 -93.834 46.5 -123.501s72.167 -44.5 123.5 -44.5c72.667 0 133.5 22.333 182.5 67
s73.5 95.334 73.5 152.001v164c-160 0 -271 -19.167 -333 -57.5s-93 -90.833 -93 -157.5zM247.999 1151c0 64.667 11.833 115.667 35.5 153s56.834 56 99.501 56c30.667 0 75.334 -15.667 134.001 -47c40.667 -23.333 72 -35 94 -35c32 0 49.667 29.333 53 88h94
c0 -135.333 -46.333 -203 -139 -203c-33.333 0 -76.333 15 -129 45c-40.667 23.333 -71.334 35 -92.001 35c-30.667 0 -48.334 -30.667 -53.001 -92h-97z" />
    <glyph glyph-name="adieresis" unicode="&#xe4;" horiz-adv-x="1021" 
d="M74 262c0 120 52.166 211.832 156.499 275.499s256.833 95.5 457.5 95.5v18c0 70 -19.333 124.667 -58 164s-95.667 59 -171 59c-101.333 0 -191.666 -25 -270.999 -75l-43 125c95.333 60 209.333 90 342 90c129.333 0 227 -35.5 293 -106.5s99 -173.5 99 -307.5v-362
c0 -98 5.33301 -177.333 16 -238h-174l-23 127c-74.667 -100 -179 -150 -313 -150c-94 0 -169.333 27.833 -226 83.5s-85 122.834 -85 201.501zM265.999 286.999c0 -52.667 15.5 -93.834 46.5 -123.501s72.167 -44.5 123.5 -44.5c72.667 0 133.5 22.333 182.5 67
s73.5 95.334 73.5 152.001v164c-160 0 -271 -19.167 -333 -57.5s-93 -90.833 -93 -157.5zM214.999 1245c0 30 10.166 55.333 30.499 76s45.833 31 76.5 31c28 0 51.667 -10.333 71 -31s29 -46 29 -76c0 -29.333 -9.66699 -54.333 -29 -75s-43.666 -31 -72.999 -31
c-30 0 -55 10.333 -75 31s-30 45.667 -30 75zM599.998 1245c0 30 10.1689 55.333 30.502 76s45.166 31 74.499 31s53.666 -10.333 72.999 -31s29 -46 29 -76c0 -29.333 -9.66699 -54.333 -29 -75s-43.666 -31 -72.999 -31c-30.667 0 -55.834 10.167 -75.501 30.5
s-29.5 45.5 -29.5 75.5z" />
    <glyph glyph-name="aring" unicode="&#xe5;" horiz-adv-x="1021" 
d="M74 262c0 120 52.166 211.832 156.499 275.499s256.833 95.5 457.5 95.5v18c0 70 -19.333 124.667 -58 164s-95.667 59 -171 59c-101.333 0 -191.666 -25 -270.999 -75l-43 125c95.333 60 209.333 90 342 90c129.333 0 227 -35.5 293 -106.5s99 -173.5 99 -307.5v-362
c0 -98 5.33301 -177.333 16 -238h-174l-23 127c-74.667 -100 -179 -150 -313 -150c-94 0 -169.333 27.833 -226 83.5s-85 122.834 -85 201.501zM265.999 286.999c0 -52.667 15.5 -93.834 46.5 -123.501s72.167 -44.5 123.5 -44.5c72.667 0 133.5 22.333 182.5 67
s73.5 95.334 73.5 152.001v164c-160 0 -271 -19.167 -333 -57.5s-93 -90.833 -93 -157.5zM268.999 1286c0 55.333 19.667 101.668 59 139.001s90.666 56 153.999 56c62 0 112.333 -18.333 151 -55s58 -83.334 58 -140.001c0 -54 -20 -99.167 -60 -135.5
s-89.667 -54.5 -149 -54.5c-61.333 0 -112.166 18.167 -152.499 54.5s-60.5 81.5 -60.5 135.5zM376.999 1286c0 -29.333 10 -55 30 -77s44.333 -33 73 -33c31.333 0 56.833 10.667 76.5 32s29.5 48 29.5 80c0 31.333 -9.66699 58 -29 80s-45 33 -77 33
c-30 0 -54.667 -11.167 -74 -33.5s-29 -49.5 -29 -81.5z" />
    <glyph glyph-name="ae" unicode="&#xe6;" horiz-adv-x="1638" 
d="M74 260c0 110.667 49.665 198.499 148.998 263.499s255.666 97.5 468.999 97.5v38c0 52 -19.667 100.833 -59 146.5s-98 68.5 -176 68.5c-101.333 0 -191 -25.667 -269 -77l-45 125c102 61.333 210 92 324 92c172.667 0 285.334 -69.667 338.001 -209
c77.333 139.333 196 209 356 209c128.667 0 227.834 -46.5 297.501 -139.5s104.5 -200.167 104.5 -321.5c0 -35.333 -2.33301 -62.666 -7 -81.999h-686c0 -115.333 30.833 -201.833 92.5 -259.5s138.834 -86.5 231.501 -86.5c110 0 203.667 19 281 57l34 -135
c-93.333 -46.667 -206 -70 -338 -70c-88 0 -167.333 19.333 -238 58s-123 92.667 -157 162c-34 -70 -84.5 -124.167 -151.5 -162.5s-143.5 -57.5 -229.5 -57.5c-98 0 -176 27.167 -234 81.5s-87 121.5 -87 201.5zM263.998 275.999c0 -48 16.332 -86.5 48.999 -115.5
s74.334 -43.5 125.001 -43.5c73.333 0 134.666 22.833 183.999 68.5s74 102.5 74 170.5v138c-167.333 0 -281.166 -20.167 -341.499 -60.5s-90.5 -92.833 -90.5 -157.5zM869.997 605.999h510c0 78.667 -21.5 144.167 -64.5 196.5s-101.167 78.5 -174.5 78.5
c-76 0 -139 -26.667 -189 -80s-77.333 -118.333 -82 -195z" />
    <glyph glyph-name="ccedilla" unicode="&#xe7;" horiz-adv-x="952" 
d="M78 485c0 154.667 50.834 281.501 152.501 380.501s235.167 148.5 400.5 148.5c98 0 184.667 -18.667 260 -56l-41 -145c-62.667 32.667 -135.667 49 -219 49c-108.667 0 -195.667 -34.333 -261 -103s-98 -156.334 -98 -263.001c0 -109.333 33.167 -197.5 99.5 -264.5
s151.5 -100.5 255.5 -100.5c80 0 156.333 16.333 229 49l35 -143c-78.667 -36 -171.667 -55 -279 -57l-49 -80c43.333 -6 78.166 -22.167 104.499 -48.5s39.5 -57.5 39.5 -93.5c0 -54 -19.5 -95.5 -58.5 -124.5s-92.833 -43.5 -161.5 -43.5
c-54.667 0 -101.667 12.333 -141 37l31 90c33.333 -20.667 70 -30.667 110 -30c60 0 90.333 21 91 63c0 47.333 -54 75.333 -162 84l86 152c-132.667 18 -236.5 72.5 -311.5 163.5s-112.5 202.833 -112.5 335.5z" />
    <glyph glyph-name="egrave" unicode="&#xe8;" horiz-adv-x="1062" 
d="M78 479c0 151.333 43.8301 278.332 131.497 380.999s205.5 154 353.5 154c136.667 0 241.5 -45.667 314.5 -137s109.5 -202.666 109.5 -333.999c0 -37.333 -2 -66 -6 -86h-719c2.66699 -107.333 35.834 -189.5 99.501 -246.5s145.834 -85.5 246.501 -85.5
c110 0 206.333 17 289 51l33 -133c-97.333 -44 -212.666 -66 -345.999 -66c-154 0 -276.833 45.833 -368.5 137.5s-137.5 213.167 -137.5 364.5zM263.997 593.999h539c0 85.333 -22 154.166 -66 206.499s-106.667 78.5 -188 78.5c-77.333 0 -141.333 -26.167 -192 -78.5
s-81.667 -121.166 -93 -206.499zM288.997 1411h207l182 -297h-135z" />
    <glyph glyph-name="eacute" unicode="&#xe9;" horiz-adv-x="1062" 
d="M78 479c0 151.333 43.8301 278.332 131.497 380.999s205.5 154 353.5 154c136.667 0 241.5 -45.667 314.5 -137s109.5 -202.666 109.5 -333.999c0 -37.333 -2 -66 -6 -86h-719c2.66699 -107.333 35.834 -189.5 99.501 -246.5s145.834 -85.5 246.501 -85.5
c110 0 206.333 17 289 51l33 -133c-97.333 -44 -212.666 -66 -345.999 -66c-154 0 -276.833 45.833 -368.5 137.5s-137.5 213.167 -137.5 364.5zM263.997 593.999h539c0 85.333 -22 154.166 -66 206.499s-106.667 78.5 -188 78.5c-77.333 0 -141.333 -26.167 -192 -78.5
s-81.667 -121.166 -93 -206.499zM253.997 1114l182 297h207l-254 -297h-135z" />
    <glyph glyph-name="ecircumflex" unicode="&#xea;" horiz-adv-x="1062" 
d="M78 479c0 151.333 43.8301 278.332 131.497 380.999s205.5 154 353.5 154c136.667 0 241.5 -45.667 314.5 -137s109.5 -202.666 109.5 -333.999c0 -37.333 -2 -66 -6 -86h-719c2.66699 -107.333 35.834 -189.5 99.501 -246.5s145.834 -85.5 246.501 -85.5
c110 0 206.333 17 289 51l33 -133c-97.333 -44 -212.666 -66 -345.999 -66c-154 0 -276.833 45.833 -368.5 137.5s-137.5 213.167 -137.5 364.5zM263.997 593.999h539c0 85.333 -22 154.166 -66 206.499s-106.667 78.5 -188 78.5c-77.333 0 -141.333 -26.167 -192 -78.5
s-81.667 -121.166 -93 -206.499zM294.997 1114l197 297h129l200 -297h-143l-125 195l-119 -195h-139z" />
    <glyph glyph-name="edieresis" unicode="&#xeb;" horiz-adv-x="1062" 
d="M78 479c0 151.333 43.8301 278.332 131.497 380.999s205.5 154 353.5 154c136.667 0 241.5 -45.667 314.5 -137s109.5 -202.666 109.5 -333.999c0 -37.333 -2 -66 -6 -86h-719c2.66699 -107.333 35.834 -189.5 99.501 -246.5s145.834 -85.5 246.501 -85.5
c110 0 206.333 17 289 51l33 -133c-97.333 -44 -212.666 -66 -345.999 -66c-154 0 -276.833 45.833 -368.5 137.5s-137.5 213.167 -137.5 364.5zM263.997 593.999h539c0 85.333 -22 154.166 -66 206.499s-106.667 78.5 -188 78.5c-77.333 0 -141.333 -26.167 -192 -78.5
s-81.667 -121.166 -93 -206.499zM271.997 1245c0 30 10.166 55.333 30.499 76s45.833 31 76.5 31c28 0 51.667 -10.333 71 -31s29 -46 29 -76c0 -29.333 -9.66699 -54.333 -29 -75s-43.666 -31 -72.999 -31c-30 0 -55 10.333 -75 31s-30 45.667 -30 75zM656.996 1245
c0 30 10.1689 55.333 30.502 76s45.166 31 74.499 31s53.666 -10.333 72.999 -31s29 -46 29 -76c0 -29.333 -9.66699 -54.333 -29 -75s-43.666 -31 -72.999 -31c-30.667 0 -55.834 10.167 -75.501 30.5s-29.5 45.5 -29.5 75.5z" />
    <glyph glyph-name="igrave" unicode="&#xec;" horiz-adv-x="495" 
d="M154 0v991h190v-991h-190zM-7 1411h207l182 -297h-135z" />
    <glyph glyph-name="iacute" unicode="&#xed;" horiz-adv-x="495" 
d="M154 0v991h190v-991h-190zM157 1114l182 297h207l-254 -297h-135z" />
    <glyph glyph-name="icircumflex" unicode="&#xee;" horiz-adv-x="495" 
d="M154 0v991h190v-991h-190zM-11 1114l197 297h129l200 -297h-143l-125 195l-119 -195h-139z" />
    <glyph glyph-name="idieresis" unicode="&#xef;" horiz-adv-x="495" 
d="M154 0v991h190v-991h-190zM-46 1245c0 30 10.166 55.333 30.499 76s45.833 31 76.5 31c28 0 51.667 -10.333 71 -31s29 -46 29 -76c0 -29.333 -9.66699 -54.333 -29 -75s-43.666 -31 -72.999 -31c-30 0 -55 10.333 -75 31s-30 45.667 -30 75zM338.999 1245
c0 30 10.1689 55.333 30.502 76s45.166 31 74.499 31s53.666 -10.333 72.999 -31s29 -46 29 -76c0 -29.333 -9.66699 -54.333 -29 -75s-43.666 -31 -72.999 -31c-30.667 0 -55.834 10.167 -75.501 30.5s-29.5 45.5 -29.5 75.5z" />
    <glyph glyph-name="eth" unicode="&#xf0;" horiz-adv-x="1150" 
d="M80 481c0 149.333 46.666 271.667 139.999 367s205.666 143 336.999 143c94.667 0 176 -28.667 244 -86c-65.333 105.333 -148.666 194 -249.999 266l-303 -137l-41 94l244 113c-63.333 43.333 -136.666 82.333 -219.999 117l80 119
c111.333 -46.667 213 -101.334 305 -164.001l273 125l45 -92l-223 -103c240 -191.333 360 -432.333 360 -723c0 -169.333 -47.5 -302.166 -142.5 -398.499s-214.167 -144.5 -357.5 -144.5c-142.667 0 -260.167 47 -352.5 141s-138.5 215 -138.5 363zM273.999 485.001
c0 -105.333 28.3311 -192.667 84.998 -262s126.667 -104 210 -104c90.667 0 163.834 34.5 219.501 103.5s83.5 160.833 83.5 275.5c0 138.667 -29.667 234 -89 286s-128.666 78 -207.999 78c-92.667 0 -166 -37.167 -220 -111.5s-81 -162.833 -81 -265.5z" />
    <glyph glyph-name="ntilde" unicode="&#xf1;" horiz-adv-x="1175" 
d="M145 991l167.999 -0.00195312l17 -168c31.333 57.333 77.333 103.5 138 138.5s127.334 52.5 200.001 52.5c104 0 190.333 -36.667 259 -110s103 -180.666 103 -321.999v-582h-190v561c0 93.333 -20.167 165.833 -60.5 217.5s-98.833 77.5 -175.5 77.5
c-68 0 -128.333 -25.667 -181 -77s-79 -113.666 -79 -186.999v-592h-190v719c-0.666992 109.333 -3.66699 200 -9 272zM335.999 1151c0 64.667 11.833 115.667 35.5 153s56.834 56 99.501 56c30.667 0 75.334 -15.667 134.001 -47c40.667 -23.333 72 -35 94 -35
c32 0 49.667 29.333 53 88h94c0 -135.333 -46.333 -203 -139 -203c-33.333 0 -76.333 15 -129 45c-40.667 23.333 -71.334 35 -92.001 35c-30.667 0 -48.334 -30.667 -53.001 -92h-97z" />
    <glyph glyph-name="ograve" unicode="&#xf2;" horiz-adv-x="1167" 
d="M78 487c0 160.667 48.6699 288.666 146.003 383.999s220 143 368 143c147.333 0 267.166 -47.333 359.499 -142s138.5 -216.667 138.5 -366c0 -106.667 -22.333 -200 -67 -280s-106.834 -141.5 -186.501 -184.5s-165.834 -64.5 -258.501 -64.5
c-144.667 0 -264.167 47.333 -358.5 142s-141.5 217.334 -141.5 368.001zM272.003 493.999c0 -108.667 29 -198.331 87 -268.998s131 -106 219 -106c89.333 0 163.833 35.5 223.5 106.5s89.5 162.5 89.5 274.5c0 103.333 -27.5 191.166 -82.5 263.499
s-129.833 108.5 -224.5 108.5c-96 0 -172 -35.833 -228 -107.5s-84 -161.834 -84 -270.501zM309.003 1411h207l182 -297h-135z" />
    <glyph glyph-name="oacute" unicode="&#xf3;" horiz-adv-x="1167" 
d="M78 487c0 160.667 48.6699 288.666 146.003 383.999s220 143 368 143c147.333 0 267.166 -47.333 359.499 -142s138.5 -216.667 138.5 -366c0 -106.667 -22.333 -200 -67 -280s-106.834 -141.5 -186.501 -184.5s-165.834 -64.5 -258.501 -64.5
c-144.667 0 -264.167 47.333 -358.5 142s-141.5 217.334 -141.5 368.001zM272.003 493.999c0 -108.667 29 -198.331 87 -268.998s131 -106 219 -106c89.333 0 163.833 35.5 223.5 106.5s89.5 162.5 89.5 274.5c0 103.333 -27.5 191.166 -82.5 263.499
s-129.833 108.5 -224.5 108.5c-96 0 -172 -35.833 -228 -107.5s-84 -161.834 -84 -270.501zM473.003 1114l182 297h207l-254 -297h-135z" />
    <glyph glyph-name="ocircumflex" unicode="&#xf4;" horiz-adv-x="1167" 
d="M78 487c0 160.667 48.6699 288.666 146.003 383.999s220 143 368 143c147.333 0 267.166 -47.333 359.499 -142s138.5 -216.667 138.5 -366c0 -106.667 -22.333 -200 -67 -280s-106.834 -141.5 -186.501 -184.5s-165.834 -64.5 -258.501 -64.5
c-144.667 0 -264.167 47.333 -358.5 142s-141.5 217.334 -141.5 368.001zM272.003 493.999c0 -108.667 29 -198.331 87 -268.998s131 -106 219 -106c89.333 0 163.833 35.5 223.5 106.5s89.5 162.5 89.5 274.5c0 103.333 -27.5 191.166 -82.5 263.499
s-129.833 108.5 -224.5 108.5c-96 0 -172 -35.833 -228 -107.5s-84 -161.834 -84 -270.501zM321.003 1114l197 297h129l200 -297h-143l-125 195l-119 -195h-139z" />
    <glyph glyph-name="otilde" unicode="&#xf5;" horiz-adv-x="1167" 
d="M78 487c0 160.667 48.6699 288.666 146.003 383.999s220 143 368 143c147.333 0 267.166 -47.333 359.499 -142s138.5 -216.667 138.5 -366c0 -106.667 -22.333 -200 -67 -280s-106.834 -141.5 -186.501 -184.5s-165.834 -64.5 -258.501 -64.5
c-144.667 0 -264.167 47.333 -358.5 142s-141.5 217.334 -141.5 368.001zM272.003 493.999c0 -108.667 29 -198.331 87 -268.998s131 -106 219 -106c89.333 0 163.833 35.5 223.5 106.5s89.5 162.5 89.5 274.5c0 103.333 -27.5 191.166 -82.5 263.499
s-129.833 108.5 -224.5 108.5c-96 0 -172 -35.833 -228 -107.5s-84 -161.834 -84 -270.501zM329.003 1151c0 64.667 11.833 115.667 35.5 153s56.834 56 99.501 56c30.667 0 75.334 -15.667 134.001 -47c40.667 -23.333 72 -35 94 -35c32 0 49.667 29.333 53 88h94
c0 -135.333 -46.333 -203 -139 -203c-33.333 0 -76.333 15 -129 45c-40.667 23.333 -71.334 35 -92.001 35c-30.667 0 -48.334 -30.667 -53.001 -92h-97z" />
    <glyph glyph-name="odieresis" unicode="&#xf6;" horiz-adv-x="1167" 
d="M78 487c0 160.667 48.6699 288.666 146.003 383.999s220 143 368 143c147.333 0 267.166 -47.333 359.499 -142s138.5 -216.667 138.5 -366c0 -106.667 -22.333 -200 -67 -280s-106.834 -141.5 -186.501 -184.5s-165.834 -64.5 -258.501 -64.5
c-144.667 0 -264.167 47.333 -358.5 142s-141.5 217.334 -141.5 368.001zM272.003 493.999c0 -108.667 29 -198.331 87 -268.998s131 -106 219 -106c89.333 0 163.833 35.5 223.5 106.5s89.5 162.5 89.5 274.5c0 103.333 -27.5 191.166 -82.5 263.499
s-129.833 108.5 -224.5 108.5c-96 0 -172 -35.833 -228 -107.5s-84 -161.834 -84 -270.501zM286.003 1245c0 30 10.166 55.333 30.499 76s45.833 31 76.5 31c28 0 51.667 -10.333 71 -31s29 -46 29 -76c0 -29.333 -9.66699 -54.333 -29 -75s-43.666 -31 -72.999 -31
c-30 0 -55 10.333 -75 31s-30 45.667 -30 75zM671.002 1245c0 30 10.1689 55.333 30.502 76s45.166 31 74.499 31s53.666 -10.333 72.999 -31s29 -46 29 -76c0 -29.333 -9.66699 -54.333 -29 -75s-43.666 -31 -72.999 -31c-30.667 0 -55.834 10.167 -75.501 30.5
s-29.5 45.5 -29.5 75.5z" />
    <glyph glyph-name="divide" unicode="&#xf7;" horiz-adv-x="1220" 
d="M80 483v129h1057v-129h-1057zM496 188c0 34.667 10.668 63.167 32.001 85.5s48.666 33.5 81.999 33.5s60.5 -11 81.5 -33s31.5 -50.667 31.5 -86c0 -34.667 -10.667 -63 -32 -85s-49 -33 -83 -33c-32.667 0 -59.5 11.167 -80.5 33.5s-31.5 50.5 -31.5 84.5zM498.001 907
c0 34.667 10.668 63.167 32.001 85.5s48.666 33.5 81.999 33.5s60.5 -11.167 81.5 -33.5s31.5 -50.833 31.5 -85.5s-10.5 -63.167 -31.5 -85.5s-48.833 -33.5 -83.5 -33.5c-32.667 0 -59.5 11.333 -80.5 34s-31.5 51 -31.5 85z" />
    <glyph glyph-name="oslash" unicode="&#xf8;" horiz-adv-x="1167" 
d="M78 489c0 158.667 48.167 285.833 144.5 381.5s217.5 143.5 363.5 143.5c100 0 187.333 -23.333 262 -70l90 125l84 -57l-90 -127c105.333 -100.667 158 -227.667 158 -381c0 -162 -49 -290.333 -147 -385s-217.667 -142 -359 -142c-100 0 -187.333 23.333 -262 70
l-95 -129l-75 64l88 122c-108 98 -162 226.333 -162 385zM266 493.999c0 -94.667 24.666 -176.667 73.999 -246l422 567c-49.333 38 -108.666 57 -177.999 57c-98 0 -175.5 -36 -232.5 -108s-85.5 -162 -85.5 -270zM411.999 173.999c44 -36.667 100 -55 168 -55
c94.667 0 172.5 35.167 233.5 105.5s91.5 161.5 91.5 273.5c0 91.333 -24.667 171 -74 239z" />
    <glyph glyph-name="ugrave" unicode="&#xf9;" horiz-adv-x="1169" 
d="M147 418v573h191v-540c0 -210 75.667 -315.333 227 -316c69.333 0 130 25 182 75s78 110.333 78 181v600h191v-717c0 -112.667 2.66699 -204 8 -274h-168l-16 168c-76.667 -126.667 -190 -190.334 -340 -191.001c-108.667 0 -194.667 37.333 -258 112
s-95 184.334 -95 329.001zM309 1411h207l182 -297h-135z" />
    <glyph glyph-name="uacute" unicode="&#xfa;" horiz-adv-x="1169" 
d="M147 418v573h191v-540c0 -210 75.667 -315.333 227 -316c69.333 0 130 25 182 75s78 110.333 78 181v600h191v-717c0 -112.667 2.66699 -204 8 -274h-168l-16 168c-76.667 -126.667 -190 -190.334 -340 -191.001c-108.667 0 -194.667 37.333 -258 112
s-95 184.334 -95 329.001zM494 1114l182 297h207l-254 -297h-135z" />
    <glyph glyph-name="ucircumflex" unicode="&#xfb;" horiz-adv-x="1169" 
d="M147 418v573h191v-540c0 -210 75.667 -315.333 227 -316c69.333 0 130 25 182 75s78 110.333 78 181v600h191v-717c0 -112.667 2.66699 -204 8 -274h-168l-16 168c-76.667 -126.667 -190 -190.334 -340 -191.001c-108.667 0 -194.667 37.333 -258 112
s-95 184.334 -95 329.001zM321 1114l197 297h129l200 -297h-143l-125 195l-119 -195h-139z" />
    <glyph glyph-name="udieresis" unicode="&#xfc;" horiz-adv-x="1169" 
d="M147 418v573h191v-540c0 -210 75.667 -315.333 227 -316c69.333 0 130 25 182 75s78 110.333 78 181v600h191v-717c0 -112.667 2.66699 -204 8 -274h-168l-16 168c-76.667 -126.667 -190 -190.334 -340 -191.001c-108.667 0 -194.667 37.333 -258 112
s-95 184.334 -95 329.001zM293 1245c0 30 10.166 55.333 30.499 76s45.833 31 76.5 31c28 0 51.667 -10.333 71 -31s29 -46 29 -76c0 -29.333 -9.66699 -54.333 -29 -75s-43.666 -31 -72.999 -31c-30 0 -55 10.333 -75 31s-30 45.667 -30 75zM677.999 1245
c0 30 10.1689 55.333 30.502 76s45.166 31 74.499 31s53.666 -10.333 72.999 -31s29 -46 29 -76c0 -29.333 -9.66699 -54.333 -29 -75s-43.666 -31 -72.999 -31c-30.667 0 -55.834 10.167 -75.501 30.5s-29.5 45.5 -29.5 75.5z" />
    <glyph glyph-name="yacute" unicode="&#xfd;" horiz-adv-x="1001" 
d="M18 991l209 -0.000976562l226 -591c19.333 -49.333 41.666 -112.333 66.999 -189c26.667 92 47.334 158.667 62.001 200l202 580h205l-280 -708c-89.333 -225.333 -161.833 -381 -217.5 -467s-116.167 -149.667 -181.5 -191s-126.333 -67.333 -183 -78l-45 160
c103.333 32 183.833 87.333 241.5 166s86.5 131.334 86.5 158.001c0 11.333 -4.33301 27 -13 47zM424 1114l182 297h207l-254 -297h-135z" />
    <glyph glyph-name="thorn" unicode="&#xfe;" horiz-adv-x="1210" 
d="M154 -406v1778h190l4 -538c77.333 120 193.333 180 348 180c124 0 227.833 -47 311.5 -141s125.5 -215 125.5 -363c0 -107.333 -20.167 -201.166 -60.5 -281.499s-96.833 -142.333 -169.5 -186s-151.667 -65.5 -237 -65.5c-138.667 0 -246 52.667 -322 158v-541h-190z
M344 394.999c0 -30.667 10 -67.833 30 -111.5s53.667 -80.667 101 -111s100.666 -45.5 159.999 -45.5c91.333 0 165 34.167 221 102.5s84 160.5 84 276.5c0 102.667 -27.667 187.667 -83 255s-127.333 101 -216 101c-89.333 0 -161.166 -30.833 -215.499 -92.5
s-81.5 -128.5 -81.5 -200.5v-174z" />
    <glyph glyph-name="ydieresis" unicode="&#xff;" horiz-adv-x="1001" 
d="M18 991l209 -0.000976562l226 -591c19.333 -49.333 41.666 -112.333 66.999 -189c26.667 92 47.334 158.667 62.001 200l202 580h205l-280 -708c-89.333 -225.333 -161.833 -381 -217.5 -467s-116.167 -149.667 -181.5 -191s-126.333 -67.333 -183 -78l-45 160
c103.333 32 183.833 87.333 241.5 166s86.5 131.334 86.5 158.001c0 11.333 -4.33301 27 -13 47zM229 1245c0 30 10.166 55.333 30.499 76s45.833 31 76.5 31c28 0 51.667 -10.333 71 -31s29 -46 29 -76c0 -29.333 -9.66699 -54.333 -29 -75s-43.666 -31 -72.999 -31
c-30 0 -55 10.333 -75 31s-30 45.667 -30 75zM613.999 1245c0 30 10.1689 55.333 30.502 76s45.166 31 74.499 31s53.666 -10.333 72.999 -31s29 -46 29 -76c0 -29.333 -9.66699 -54.333 -29 -75s-43.666 -31 -72.999 -31c-30.667 0 -55.834 10.167 -75.501 30.5
s-29.5 45.5 -29.5 75.5z" />
    <glyph glyph-name="dotlessi" unicode="&#x131;" horiz-adv-x="495" 
d="M154 0v991h190v-991h-190z" />
    <glyph glyph-name="OE" unicode="&#x152;" horiz-adv-x="1904" 
d="M76 678c0 220.667 64.5 396.667 193.5 528s298.5 197 508.5 197c38 0 101.667 -3.33301 191 -10c74 -8 120.333 -12.333 139 -13h684v-157h-588v-426h555v-158h-555v-481h621v-158h-735c-34.667 0 -82 -3.33301 -142 -10c-68 -8 -128 -12.333 -180 -13
c-209.333 0 -377 65.333 -503 196s-189 299 -189 505zM276 686c0 -164.667 47.001 -298.333 141.001 -401s224 -154 390 -154c86.667 0 155.667 9.66699 207 29v1059c-60.667 20.667 -136.667 30.667 -228 30c-154.667 0 -278.334 -51.667 -371.001 -155
s-139 -239.333 -139 -408z" />
    <glyph glyph-name="oe" unicode="&#x153;" horiz-adv-x="1828" 
d="M78 489c0 154.667 46.499 280.833 139.499 378.5s210.833 146.5 353.5 146.5c88 0 166.333 -20.5 235 -61.5s121 -99.167 157 -174.5c38 76.667 89.333 135.167 154 175.5s137.334 60.5 218.001 60.5c135.333 0 238.833 -45.667 310.5 -137s107.5 -202 107.5 -332
c0 -38 -2 -66.667 -6 -86h-694c0 -101.333 31 -182.333 93 -243s143 -91 243 -91c95.333 0 187.333 19 276 57l37 -135c-92.667 -46.667 -204.667 -70 -336 -70c-190.667 0 -326.667 78 -408 234c-36.667 -76 -90.5 -134 -161.5 -174s-150.167 -60 -237.5 -60
c-139.333 0 -254.333 47.5 -345 142.5s-136 218.167 -136 369.5zM273.999 493.999c0 -108 28.667 -197.5 86 -268.5s129 -106.5 215 -106.5c88 0 159.833 34.5 215.5 103.5s83.5 160.167 83.5 273.5c0 109.333 -26.5 199.333 -79.5 270s-126.167 106 -219.5 106
c-94.667 0 -168.5 -36 -221.5 -108s-79.5 -162 -79.5 -270zM1049 595.999h518c0 85.333 -21.5 153.833 -64.5 205.5s-104.167 77.5 -183.5 77.5c-74.667 0 -136.167 -26.5 -184.5 -79.5s-76.833 -120.833 -85.5 -203.5z" />
    <glyph glyph-name="Ydieresis" unicode="&#x178;" horiz-adv-x="1153" 
d="M27 1380h219c194.667 -371.333 308 -591.666 340 -660.999c22 53.333 137.333 273.666 346 660.999h217l-479 -792v-588h-191v584zM285 1612c0 29.333 10.3311 54.333 30.998 75s46 31 76 31c28.667 0 52.834 -10.333 72.501 -31s29.5 -45.667 29.5 -75
s-9.66699 -54.5 -29 -75.5s-43.666 -31.5 -72.999 -31.5c-30 0 -55.333 10.5 -76 31.5s-31 46.167 -31 75.5zM669.998 1612c0 29.333 10.167 54.333 30.5 75s45.166 31 74.499 31s54 -10.167 74 -30.5s30 -45.5 30 -75.5c0 -29.333 -9.66699 -54.5 -29 -75.5
s-43.666 -31.5 -72.999 -31.5c-30.667 0 -56.167 10.5 -76.5 31.5s-30.5 46.167 -30.5 75.5z" />
    <glyph glyph-name="circumflex" unicode="&#x2c6;" horiz-adv-x="614" 
d="M45 1114l197 297h129l200 -297h-143l-125 195l-119 -195h-139z" />
    <glyph glyph-name="ring" unicode="&#x2da;" horiz-adv-x="819" 
d="M199 1286c0 55.333 19.667 101.668 59 139.001s90.666 56 153.999 56c62 0 112.333 -18.333 151 -55s58 -83.334 58 -140.001c0 -54 -20 -99.167 -60 -135.5s-89.667 -54.5 -149 -54.5c-61.333 0 -112.166 18.167 -152.499 54.5s-60.5 81.5 -60.5 135.5zM307 1286
c0 -29.333 10 -55 30 -77s44.333 -33 73 -33c31.333 0 56.833 10.667 76.5 32s29.5 48 29.5 80c0 31.333 -9.66699 58 -29 80s-45 33 -77 33c-30 0 -54.667 -11.167 -74 -33.5s-29 -49.5 -29 -81.5z" />
    <glyph glyph-name="tilde" unicode="&#x2dc;" horiz-adv-x="614" 
d="M53 1151c0 64.667 11.833 115.667 35.5 153s56.834 56 99.501 56c30.667 0 75.334 -15.667 134.001 -47c40.667 -23.333 72 -35 94 -35c32 0 49.667 29.333 53 88h94c0 -135.333 -46.333 -203 -139 -203c-33.333 0 -76.333 15 -129 45
c-40.667 23.333 -71.334 35 -92.001 35c-30.667 0 -48.334 -30.667 -53.001 -92h-97z" />
    <glyph glyph-name="uni2000" unicode="&#x2000;" horiz-adv-x="864" 
 />
    <glyph glyph-name="uni2001" unicode="&#x2001;" horiz-adv-x="1728" 
 />
    <glyph glyph-name="uni2002" unicode="&#x2002;" horiz-adv-x="864" 
 />
    <glyph glyph-name="uni2003" unicode="&#x2003;" horiz-adv-x="1728" 
 />
    <glyph glyph-name="uni2004" unicode="&#x2004;" horiz-adv-x="575" 
 />
    <glyph glyph-name="uni2005" unicode="&#x2005;" horiz-adv-x="432" 
 />
    <glyph glyph-name="uni2006" unicode="&#x2006;" horiz-adv-x="287" 
 />
    <glyph glyph-name="uni2007" unicode="&#x2007;" horiz-adv-x="287" 
 />
    <glyph glyph-name="uni2008" unicode="&#x2008;" horiz-adv-x="216" 
 />
    <glyph glyph-name="uni2009" unicode="&#x2009;" horiz-adv-x="345" 
 />
    <glyph glyph-name="uni200A" unicode="&#x200a;" horiz-adv-x="95" 
 />
    <glyph glyph-name="uni2010" unicode="&#x2010;" horiz-adv-x="636" 
d="M61 485v140h514v-140h-514z" />
    <glyph glyph-name="uni2011" unicode="&#x2011;" horiz-adv-x="636" 
d="M61 485v140h514v-140h-514z" />
    <glyph glyph-name="figuredash" unicode="&#x2012;" horiz-adv-x="636" 
d="M61 485v140h514v-140h-514z" />
    <glyph glyph-name="endash" unicode="&#x2013;" horiz-adv-x="1024" 
d="M61 455v127h902v-127h-902z" />
    <glyph glyph-name="emdash" unicode="&#x2014;" horiz-adv-x="2048" 
d="M61 455v127h1926v-127h-1926z" />
    <glyph glyph-name="quoteleft" unicode="&#x2018;" horiz-adv-x="438" 
d="M74 913c58.667 201.333 123.333 366 194 494l123 12c-55.333 -155.333 -96.333 -317 -123 -485z" />
    <glyph glyph-name="quoteright" unicode="&#x2019;" horiz-adv-x="438" 
d="M74 913c55.333 155.333 96.334 317.332 123.001 485.999l194 20c-58.667 -201.333 -123.334 -365.666 -194.001 -492.999z" />
    <glyph glyph-name="quotesinglbase" unicode="&#x201a;" horiz-adv-x="438" 
d="M41 -238c55.333 155.333 96.334 317.332 123.001 485.999l194 20c-58.667 -201.333 -123.334 -365.666 -194.001 -492.999z" />
    <glyph glyph-name="quotedblleft" unicode="&#x201c;" horiz-adv-x="751" 
d="M72 913c60 205.333 125.333 370.001 196 494.001l121 12c-52.667 -148.667 -93 -310.334 -121 -485.001zM387 913.001c56.667 202 121.667 366.667 195 494l123 12c-55.333 -155.333 -96.333 -317 -123 -485z" />
    <glyph glyph-name="quotedblright" unicode="&#x201d;" horiz-adv-x="751" 
d="M72 913c55.333 155.333 96.334 317.332 123.001 485.999l194 20c-54.667 -193.333 -119.334 -357.666 -194.001 -492.999zM387.001 912.999c52.667 148.667 93 310.666 121 485.999l197 20c-60 -205.333 -125.667 -369.666 -197 -492.999z" />
    <glyph glyph-name="quotedblbase" unicode="&#x201e;" horiz-adv-x="755" 
d="M41 -238c55.333 155.333 96.334 317.332 123.001 485.999l194 20c-54.667 -193.333 -119.334 -357.666 -194.001 -492.999zM356.001 -238.001c52.667 148.667 93 310.666 121 485.999l197 20c-60 -205.333 -125.667 -369.666 -197 -492.999z" />
    <glyph glyph-name="bullet" unicode="&#x2022;" horiz-adv-x="591" 
d="M76 705c0 61.333 21.5 113.5 64.5 156.5s95.167 64.5 156.5 64.5s113.5 -21.5 156.5 -64.5s64.5 -95.167 64.5 -156.5c0 -60.667 -21.5 -112.5 -64.5 -155.5s-95.167 -64.5 -156.5 -64.5s-113.5 21.5 -156.5 64.5s-64.5 94.833 -64.5 155.5z" />
    <glyph glyph-name="ellipsis" unicode="&#x2026;" horiz-adv-x="2048" 
d="M213 111c0 38.667 12.167 70.833 36.5 96.5s55.166 38.5 92.499 38.5s67.833 -12.5 91.5 -37.5s35.5 -57.5 35.5 -97.5c0 -38 -12.167 -69.833 -36.5 -95.5s-55.166 -38.5 -92.499 -38.5c-36.667 0 -67 13 -91 39s-36 57.667 -36 95zM893 110.999
c0 38.667 12.167 70.833 36.5 96.5s55.166 38.5 92.499 38.5s67.833 -12.5 91.5 -37.5s35.5 -57.5 35.5 -97.5c0 -38 -12.167 -69.833 -36.5 -95.5s-55.166 -38.5 -92.499 -38.5c-36.667 0 -67 13 -91 39s-36 57.667 -36 95zM1573 110.998c0 38.667 12.167 70.833 36.5 96.5
s55.166 38.5 92.499 38.5s67.833 -12.5 91.5 -37.5s35.5 -57.5 35.5 -97.5c0 -38 -12.167 -69.833 -36.5 -95.5s-55.166 -38.5 -92.499 -38.5c-36.667 0 -67 13 -91 39s-36 57.667 -36 95z" />
    <glyph glyph-name="uni202F" unicode="&#x202f;" horiz-adv-x="345" 
 />
    <glyph glyph-name="guilsinglleft" unicode="&#x2039;" horiz-adv-x="536" 
d="M59 518l275 379h151l-276 -379l278 -381h-151z" />
    <glyph glyph-name="guilsinglright" unicode="&#x203a;" horiz-adv-x="536" 
d="M47 897h152l276 -379l-276 -381h-150l277 381z" />
    <glyph glyph-name="uni205F" unicode="&#x205f;" horiz-adv-x="432" 
 />
    <glyph glyph-name="Euro" unicode="&#x20ac;" 
d="M18 508l-0.000976562 106.002h119v29c0 16 0.333008 31.5 1 46.5s1.66699 29.5 3 43.5h-123v107h140c12 68.667 32.333 131.5 61 188.5s64.334 106.833 107.001 149.5c54.667 55.333 116.667 98.5 186 129.5s148 46.5 236 46.5c64.667 0 121.167 -7 169.5 -21
s87.833 -29 118.5 -45l-43 -143c-28 16 -62.833 29.5 -104.5 40.5s-86.5 16.5 -134.5 16.5c-116 0 -210.333 -38.333 -283 -115c-30 -28.667 -54.833 -64.5 -74.5 -107.5s-34.5 -89.5 -44.5 -139.5h592v-107h-612c-2 -13.333 -3.16699 -27 -3.5 -41s-0.5 -28.333 -0.5 -43
v-35h616v-106h-600c8 -55.333 21.667 -104.333 41 -147s43.333 -79 72 -109c38 -40 82.5 -69.833 133.5 -89.5s105.5 -29.5 163.5 -29.5c28 0 54.833 2.16699 80.5 6.5s49.834 10.166 72.501 17.499s43 15.166 61 23.499s33.333 15.833 46 22.5l37 -137
c-34 -22.667 -77.833 -43.167 -131.5 -61.5s-115.834 -27.5 -186.501 -27.5c-89.333 0 -171.5 16.333 -246.5 49s-138.833 80 -191.5 142c-78 86 -127.333 199.333 -148 340h-129z" />
    <glyph glyph-name="trademark" unicode="&#x2122;" horiz-adv-x="1685" 
d="M29 1270v110h641v-110h-256v-705h-131v705h-254zM700 565l62.001 815h174l156 -428l65 -213c29.333 116 48.333 185.667 57 209l160 432h168l62 -815h-129c-22.667 328.667 -34.334 512.667 -35.001 552l-8 159c-26.667 -101.333 -52 -185 -76 -251l-164 -447h-100
l-167 476l-65 222l-5 -179l-32 -532h-123z" />
    <glyph glyph-name="uniE000" unicode="&#xe000;" horiz-adv-x="990" 
d="M0 990h990v-990h-990v990z" />
    <glyph glyph-name="uniF100" unicode="&#xf100;" horiz-adv-x="614" 
d="M98 1464l191 244h227l-262 -244h-156z" />
    <glyph glyph-name="uniF101" unicode="&#xf101;" horiz-adv-x="614" 
d="M10 1612c0 29.333 10.3311 54.333 30.998 75s46 31 76 31c28.667 0 52.834 -10.333 72.501 -31s29.5 -45.667 29.5 -75s-9.66699 -54.5 -29 -75.5s-43.666 -31.5 -72.999 -31.5c-30 0 -55.333 10.5 -76 31.5s-31 46.167 -31 75.5zM394.998 1612
c0 29.333 10.167 54.333 30.5 75s45.166 31 74.499 31s54 -10.167 74 -30.5s30 -45.5 30 -75.5c0 -29.333 -9.66699 -54.5 -29 -75.5s-43.666 -31.5 -72.999 -31.5c-30.667 0 -56.167 10.5 -76.5 31.5s-30.5 46.167 -30.5 75.5z" />
    <glyph glyph-name="uniF102" unicode="&#xf102;" horiz-adv-x="614" 
d="M23 1485l213 244h139l217 -244h-156l-133 149l-131 -149h-149z" />
    <glyph glyph-name="uniF103" unicode="&#xf103;" horiz-adv-x="614" 
d="M45 1485c0 72 13.332 124.5 39.999 157.5s59.667 49.5 99 49.5c34 0 77 -13.667 129 -41c46.667 -24.667 80.334 -37 101.001 -37c18.667 0 32.5 5.83301 41.5 17.5s14.833 34.5 17.5 68.5h96c0 -135.333 -47 -203 -141 -203c-32 0 -75 13 -129 39
c-54.667 26 -88.667 39 -102 39c-28.667 0 -46.667 -30 -54 -90h-98z" />
    <glyph glyph-name="uniF112" unicode="&#xf112;" horiz-adv-x="615" 
d="M98 1729h230l188 -242h-154z" />
    <glyph glyph-name="uniFB01" unicode="&#xfb01;" horiz-adv-x="1105" 
d="M31 846v145h139v53c0 136 39.5 242.833 118.5 320.5s188.167 116.5 327.5 116.5c46.667 0 95.167 -6.33301 145.5 -19s89.5 -29 117.5 -49l-54 -145c-60.667 39.333 -133 59 -217 59c-166.667 0 -250 -96.333 -250 -289v-47h594v-991h-190v846h-402v-846h-190v846h-139z
" />
    <glyph glyph-name="uniFB02" unicode="&#xfb02;" horiz-adv-x="1105" 
d="M31 846v145h139v41c0 132.667 39.833 240.667 119.5 324s197.5 125 353.5 125c116.667 0 219.667 -22.667 309 -68v-1413h-190v1307c-33.333 18 -83.333 26.667 -150 26c-82.667 0 -145.667 -25.667 -189 -77s-65 -124 -65 -218v-47h236v-145h-234v-846h-190v846h-139z
" />
    <glyph glyph-name="uniFB03" unicode="&#xfb03;" horiz-adv-x="1736" 
d="M1368 1292c0 33.333 11.501 61.5 34.501 84.5s52.5 34.5 88.5 34.5c34.667 0 63.5 -11.5 86.5 -34.5s34.5 -51.167 34.5 -84.5c0 -34 -11.333 -62.667 -34 -86s-52.334 -35 -89.001 -35c-35.333 0 -64.333 11.667 -87 35s-34 52 -34 86zM1395 0v991h190v-991h-190z
M652.001 846v145.001h139v45c0 141.333 32.333 250.833 97 328.5s154.667 116.5 270 116.5c58 0 110.333 -9.66699 157 -29l-22 -147c-34 15.333 -73.667 22.666 -119 21.999c-130 0 -195 -95 -195 -285v-51h244v-145h-242v-846h-190v846h-139zM31.001 846.001v145.001h139
v45c0 141.333 32.333 250.833 97 328.5s154.667 116.5 270 116.5c58 0 110.333 -9.66699 157 -29l-22 -147c-34 15.333 -73.667 22.666 -119 21.999c-130 0 -195 -95 -195 -285v-51h244v-145h-242v-846h-190v846h-139z" />
    <glyph glyph-name="uniFB04" unicode="&#xfb04;" horiz-adv-x="1736" 
d="M1395 0v1458h190v-1458h-190zM652 846v145.001h139v45c0 141.333 32.333 250.833 97 328.5s154.667 116.5 270 116.5c58 0 110.333 -9.66699 157 -29l-22 -147c-34 15.333 -73.667 22.666 -119 21.999c-130 0 -195 -95 -195 -285v-51h244v-145h-242v-846h-190v846h-139z
M31 846.001v145.001h139v45c0 141.333 32.333 250.833 97 328.5s154.667 116.5 270 116.5c58 0 110.333 -9.66699 157 -29l-22 -147c-34 15.333 -73.667 22.666 -119 21.999c-130 0 -195 -95 -195 -285v-51h244v-145h-242v-846h-190v846h-139z" />
    <glyph glyph-name=".null" horiz-adv-x="0" 
 />
    <glyph glyph-name="nonmarkingreturn" horiz-adv-x="682" 
 />
    </font>
</defs>
</svg>
